<?xml version="1.0" standalone="no"?>
<!DOCTYPE svg PUBLIC "-//W3C//DTD SVG 1.1//EN" "http://www.w3.org/Graphics/SVG/1.1/DTD/svg11.dtd" >
<svg xmlns="http://www.w3.org/2000/svg" xmlns:xlink="http://www.w3.org/1999/xlink" version="1.1">
<metadata>
Created by FontForge 20170731 at Fri Feb 18 18:05:01 2022
 By Aleksey,,,
Copyright 2020 The Rubik Filtered Project Authors (https://github.com/NaN-xyz/Rubik-Filtered)
</metadata>
<defs>
<font id="RubikBubbles-Regular" horiz-adv-x="0" >
  <font-face 
    font-family="Rubik Bubbles"
    font-weight="400"
    font-stretch="normal"
    units-per-em="1000"
    panose-1="0 0 0 0 0 0 0 0 0 0"
    ascent="800"
    descent="-200"
    x-height="530.5"
    cap-height="724.5"
    bbox="-234 -324.381 1252.67 968"
    underline-thickness="50"
    underline-position="-150"
    unicode-range="U+0020-FB4B"
  />
<missing-glyph horiz-adv-x="695" 
d="M102 -117q-22 0 -22 22v891q0 22 22 22h491q22 0 22 -22v-891q0 -22 -22 -22h-491zM141 -9l377 769h-377v-769zM181 -59h373v762z" />
    <glyph glyph-name="fi" unicode="fi" horiz-adv-x="785" 
d="M136 43q-16 0 -26 15.5t-13 39t0 46.5t13 39t26 16q-22 0 -32.5 15t-10.5 34.5t10.5 34.5t32.5 15q-20 0 -28.5 8.5t-5.5 16.5q-8 2 -13.5 10t-3.5 19q-10 -15 -22.5 -15t-20.5 12t-2 35q-20 -1 -31 16t-12.5 40t8 41.5t29.5 19.5q1 17 19 23.5t38 3.5q-3 16 9.5 29.5
t37.5 10.5q-28 6 -35.5 17.5t4 19.5t39.5 2q-13 10 -11.5 25t11.5 29t24 19.5t27 -3.5q-5 15 10.5 28t39 20t43.5 5t25 -17q0 12 14 19.5t35.5 10t43 0.5t36 -9t14.5 -19q0 16 19 24t43.5 8t43 -8t18.5 -24q0 29 14 38.5t27.5 0.5t13.5 -37q0 18 11.5 28t27 11t28 -7.5
t13.5 -27.5q19 -1 28 -12.5t8.5 -26t-10 -25.5t-28.5 -10q10 -12 6 -26t-16 -25t-26.5 -14t-25.5 8q0 -13 -16 -19.5t-37.5 -6.5t-37.5 6.5t-16 19.5q0 -16 -17.5 -24t-40 -8t-40 8t-17.5 24q0 -26 -15.5 -32.5t-25.5 6.5q-4 -22 -22 -45q21 1 39.5 -5t18.5 -19q0 10 15 16
t37 8t44 0t37 -8t15 -16q0 22 13 29.5t25.5 0t12.5 -29.5q2 17 16.5 24t32.5 5t30.5 -12t10.5 -27q16 0 25.5 -14t12.5 -35t0 -41.5t-12.5 -34.5t-25.5 -14q16 0 26 -14.5t13 -36t0 -43t-13 -36t-26 -14.5q23 0 30.5 -15t0 -29.5t-30.5 -14.5q19 0 29.5 -18t11.5 -42.5
t-7.5 -43.5t-27.5 -20q-3 -22 -16.5 -28.5t-25.5 1.5t-10 28q-1 -18 -11 -24t-19.5 1.5t-9.5 27.5q1 -18 -13.5 -27.5t-33.5 -9.5t-33.5 9t-14.5 28q-20 0 -29.5 19t-9 44t10.5 44t30 19q-17 0 -25.5 12.5t-8.5 29t8.5 29t25.5 12.5q-20 0 -27 12t0 24t27 12q-23 0 -31.5 10
t-1.5 19q-15 3 -28 16t-11 27q-10 -12 -30.5 -17t-42.5 -2.5t-36 12.5q3 -9 -2 -14.5t-13 -3.5q10 -17 10.5 -43.5t-8.5 -47t-27 -20.5q15 0 22.5 -15t7.5 -34.5t-7.5 -34.5t-22.5 -15q16 -1 23.5 -16t6.5 -33.5t-10.5 -32t-25.5 -12.5q0 -16 -18.5 -23.5t-43 -7.5t-43 7.5
t-18.5 23.5q0 -23 -12 -30.5t-24.5 4t-13.5 44.5z" />
    <glyph glyph-name="fl" unicode="fl" horiz-adv-x="797" 
d="M136 47q-27 0 -36.5 14t0 28t36.5 14q-16 0 -24.5 19t-8.5 44.5t8.5 44.5t24.5 19q-17 -1 -28.5 12.5t-17 35t-4 43t11.5 35.5q-15 -1 -30.5 6t-24.5 19.5t-3 25.5q-17 3 -23 17.5t-3.5 32t13 29.5t27.5 9q0 24 19 33t37 3q-3 19 1.5 41t14.5 37t25 13q-9 10 -2 25
t21.5 29t30 20t24.5 -4q-3 16 10 26.5t32.5 15t36 0t19.5 -20.5q0 19 15 28.5t35 9.5t35.5 -9t16.5 -27q14 8 24.5 0t11 -21t-14.5 -20q14 0 21 -13t6.5 -29.5t-8 -29t-21.5 -12.5q0 -17 -14 -25t-31.5 -6t-26.5 14q0 -6 -2 -11q11 -7 20 -18t11 -23q8 11 20 4.5t12 -30.5
q0 18 13 26.5t28.5 7.5t25.5 -11q1 12 10 18t20 3q-7 12 -9.5 31t0 38.5t9 32.5t18.5 13q-12 6 -13 19t5.5 25t17.5 18t24 -1q0 21 10.5 31.5t25 10.5t25 -10.5t10.5 -31.5q5 17 19 22t28.5 1t23 -16t3.5 -29q15 0 23 -19t8 -44.5t-8 -45t-23 -19.5q17 0 25 -20.5t8 -47
t-8 -47t-25 -20.5q24 0 31.5 -13t0 -26t-31.5 -13q22 0 33 -18t11 -42t-11 -42t-33 -18q18 0 27 -18.5t9 -43t-9 -43t-27 -18.5q17 -2 24 -19.5t5 -39t-12 -37.5t-27 -14q0 -14 -15 -23t-37 -11.5t-43.5 0t-36.5 11.5t-15 23q-19 -7 -31 5t-11 29t20 24q-19 0 -28.5 17.5
t-9.5 40.5t9.5 40.5t28.5 17.5q-18 0 -26.5 10.5t-8.5 25t8.5 25t26.5 10.5q-23 -1 -33 21.5t-5 44.5q-15 -1 -28 7.5t-13 26.5q0 -26 -15.5 -36t-32.5 -4t-22 28q-1 -22 -17 -32.5t-33 -7.5q3 -17 -5.5 -32.5t-28.5 -15.5q13 0 21 -15t10.5 -37.5t0 -45.5t-10.5 -38
t-21 -15q12 -4 12.5 -20.5t-6 -35t-17.5 -30.5t-23 -8q0 -21 -15 -28t-29.5 0t-14.5 28q0 -19 -13 -28t-29.5 -7t-29.5 16t-14 41z" />
    <glyph glyph-name="f_f" unicode="ff" horiz-adv-x="904" 
d="M136 99q-22 0 -29.5 16t0 32t29.5 16q-18 0 -27 19t-9 44.5t9 44.5t27 19q-23 -1 -33.5 14t-8.5 31q-19 -2 -36.5 7.5t-17.5 29.5q-29 0 -39 10.5t0 21.5t39 11q-20 0 -26.5 14.5t0 29t26.5 14.5q-11 13 -8 22.5t13 11t21 -11.5q-11 27 3.5 42.5t33.5 13.5q-6 21 6 42
t38 18q-11 12 -1 31.5t30 37.5t40.5 25.5t31.5 -5.5q-3 21 11 33.5t34.5 15.5t37.5 -5t20 -29q0 21 13 32t30 11t30 -10.5t13 -32.5q15 5 27 -6.5t18 -29.5t2.5 -34.5t-18.5 -21.5q20 -1 26 -9.5t-1 -16.5t-27 -7q1 -16 -17 -24.5t-41 -9t-39 7.5q4 -20 -9 -40
q11 -3 18.5 -10.5t5.5 -18.5q0 11 12 17t29 7t31.5 -3t20.5 -13q-2 12 8 22.5t24.5 16t26.5 2.5q-7 12 -6 32.5t9 40t20.5 31.5t27.5 8q-13 16 -9.5 27.5t15.5 12.5t25 -15q-3 13 9 24t32 18.5t41.5 10t37.5 -2t19 -17.5q0 23 11 34t26 11t26 -11t12 -33q5 21 19.5 24.5
t24.5 -7t4 -31.5q17 1 26 -15.5t10.5 -39t-6 -40t-24.5 -18.5q-1 -22 -14 -29t-25 1t-11 30q0 -15 -10.5 -22.5t-23.5 -6t-21 10.5q-1 -13 -12 -21q11 -7 17.5 -18.5t5.5 -21.5q11 11 30 11.5t34 -8t14 -25.5q28 0 37.5 -11.5t0 -23.5t-37.5 -12q21 -3 30 -15t7 -26.5
t-14 -24t-33 -6.5q0 -19 -10 -28.5t-23 -9t-21 10.5q-2 -19 -16.5 -31t-31.5 -9q6 -15 -1 -32t-28 -17q15 0 23.5 -15t11.5 -37.5t0 -45.5t-11.5 -38t-23.5 -15q24 0 32 -11t0 -22t-32 -11q4 -13 -9 -24.5t-33 -18t-37.5 -5.5t-21.5 14q-7 -13 -22 -14.5t-30.5 6t-24 20
t-1.5 26.5q-22 0 -32.5 20t-10.5 46t10.5 46t32.5 20q-18 0 -26.5 10t-8.5 23.5t8.5 23.5t26.5 10q-26 0 -33.5 19.5t2.5 34.5q-21 1 -42 15t-20 31q-5 -13 -24.5 -19t-43.5 -6t-42 7q5 -20 -3 -41.5t-27 -20.5q12 0 19.5 -15t10 -38t0 -45.5t-10 -37.5t-19.5 -15
q13 -3 16 -20.5t-1 -38t-14 -35.5t-23 -12q0 -18 -15.5 -28t-39 -10t-46.5 11.5t-39 36t-17 64.5z" />
    <glyph glyph-name="f_f_i" unicode="ffi" horiz-adv-x="1197" 
d="M134 19q-21 1 -31.5 21t-10 46t11.5 45.5t32 19.5q-19 0 -28.5 17.5t-9.5 40t9.5 40t28.5 17.5q-27 0 -35.5 15t0.5 27q-17 2 -34.5 10.5t-27.5 21t-5 24.5q-21 2 -30.5 14t-8.5 26.5t12.5 25t32.5 8.5q-10 10 -6 23.5t15.5 24.5t24.5 15t23 -6q0 18 7 26t14 7
q-2 23 4.5 52t17.5 49t25 18q-7 13 7.5 28.5t38 28t44.5 15.5t28 -10q-1 14 9.5 22.5t25.5 10t27.5 -5t13.5 -21.5q3 16 20 21t38.5 2t36.5 -14t12 -27q16 0 21.5 -13.5t0 -27t-21.5 -13.5q17 -2 21.5 -16t-3 -26.5t-24.5 -10.5q2 -18 -16 -28.5t-42.5 -12.5t-41.5 6
q3 -20 -14 -30q3 -1 5 -4q17 5 37 3.5t34.5 -8.5t14.5 -21q0 19 14 24.5t25 -2.5q1 18 14.5 38.5t31 31.5t31.5 1q-13 7 -12 24t11 33.5t24 25.5t26 1q-5 18 10 33t39 23t45 5t27 -21q0 14 15.5 22t38.5 11.5t46 1t39 -10.5t16 -21q0 16 18 24t42 8t42 -8t18 -24
q0 20 14.5 30t33 10t33 -10t14.5 -30q15 6 28 -4.5t19.5 -28t4 -33.5t-17.5 -22q6 -15 -4 -28.5t-28 -21t-34.5 -5.5t-22.5 18q0 -17 -12 -26t-28 -9t-28 9t-12 26q0 -19 -15 -25t-30 0t-15 25q0 -23 -12.5 -30.5t-25.5 0t-13 30.5q0 -19 -12 -27t-25.5 -5.5t-20.5 16.5
q0 -13 -11 -20q14 -15 16 -33q12 10 28 3.5t16 -29.5q0 17 16 25.5t36.5 8.5t36 -8.5t15.5 -25.5q0 11 15.5 18t39 9t46.5 0t38.5 -9t15.5 -18q14 19 26 19.5t15 -11t-11 -30.5q18 0 26.5 -18.5t8.5 -43t-8.5 -43t-26.5 -18.5q29 0 38.5 -16t0 -32t-38.5 -16q19 0 28.5 -12
t9.5 -28t-9.5 -28t-28.5 -12q25 0 33 -10t0 -20t-33 -10q21 0 31 -15.5t10 -36t-10 -36t-31 -15.5q10 -12 2 -26t-23 -19t-25 7q0 -19 -16.5 -28.5t-38.5 -9.5t-39 9.5t-17 28.5q-4 -39 -15 -38t-7 40q-26 0 -35 14t0 28t35 14q-25 0 -33.5 10t0 20t33.5 10q-15 0 -22.5 15
t-7.5 34.5t7.5 34.5t22.5 15q-20 0 -30 16.5t-10 38t10 37.5t30 16q-18 0 -28 7q-16 -7 -36.5 -7t-37.5 6.5t-24 19.5q-1 -14 -13 -26.5t-28 -21.5t-30 -9q12 -14 13.5 -37t-8 -41.5t-29.5 -18.5q20 0 30.5 -15.5t10.5 -36t-10.5 -36t-30.5 -15.5q21 1 32 -9.5t12 -25.5
t-8.5 -27t-29.5 -14q-1 -21 -21.5 -32t-48 -11t-49 10t-24.5 30q2 -19 -9 -26.5t-23.5 -1.5t-15.5 27q-20 2 -29 14.5t-8 28.5t12 27t31 10q-20 0 -27 13t0 26t27 13q-16 0 -25.5 14.5t-12.5 35.5t0 42.5t12.5 36t25.5 14.5q-21 -2 -32 11.5t-10 27.5q-13 10 -13 37
q0 -24 -16.5 -33.5t-34.5 -4t-23 26.5q-2 -17 -21 -29t-40 -14q2 -8 -9 -15t-34 -7q18 0 27 -20.5t9 -47t-9 -47t-27 -20.5q28 0 37.5 -10t0 -20t-37.5 -10q17 0 26 -14.5t9 -33.5t-8.5 -33.5t-26.5 -14.5q-4 -43 -15.5 -42.5t-6.5 38.5q-3 -18 -17 -26t-31.5 -7.5t-30 10.5
t-12.5 29q0 -20 -16.5 -27t-33 -1.5t-18.5 22.5z" />
    <glyph glyph-name="f_f_l" unicode="ffl" horiz-adv-x="1209" 
d="M136 23q-18 0 -26.5 15.5t-8.5 36t9 36.5t26 16q-16 0 -25.5 15t-12.5 36.5t0 43.5t12.5 37t25.5 15q-22 0 -30.5 20.5t-3.5 39.5q-18 -2 -34 7.5t-14 28.5q-16 -37 -23 -34t9 40q-22 0 -32.5 10.5t-10.5 24.5t10.5 24.5t32.5 10.5q-21 0 -28.5 12t-0.5 23.5t29 11.5
q-1 27 16.5 36.5t33.5 0.5q1 23 15.5 42t34.5 12q-14 9 -10 29.5t18 40.5t31.5 30.5t31.5 0.5q-6 19 5.5 32.5t29.5 18.5t35 -0.5t22 -24.5q-1 16 15 24t37 9t37.5 -6.5t17.5 -22.5q0 30 11.5 39.5t23 0t11.5 -39.5q16 2 25 -11t11 -31.5t-4 -33t-22 -16.5q13 -8 12.5 -19.5
t-10.5 -17t-23 3.5q0 -23 -15 -27.5t-23 9.5q-2 -12 -12 -23.5t-23 -19.5q16 0 29 -8.5t13 -25.5q0 19 11 27.5t25 7.5t23 -11q2 17 16 33.5t31 23.5t30 -4q-11 6 -6.5 26t17.5 41.5t28.5 35t26.5 6.5q-4 16 13 28.5t42 19t46.5 3.5t25.5 -18q0 19 16 29t38 10.5t38.5 -9.5
t16.5 -29q18 2 25.5 -8.5t3 -22.5t-22.5 -14q15 1 23 -11.5t9 -29.5t-5 -30.5t-21 -14.5q1 -15 -19.5 -24.5t-45.5 -10.5q12 -19 10 -34q11 8 30 10.5t37 -0.5t28 -13q-1 16 14.5 31.5t31.5 11.5q-8 10 -12 34t-3 51t7.5 46t17.5 19q-2 21 12.5 33t34.5 14t36 -7t18 -30
q0 16 12.5 25t29 9.5t29.5 -7.5t13 -25q16 -1 23.5 -15t6.5 -31t-10.5 -30t-25.5 -12q28 0 37 -16t0 -32t-37 -16q15 0 22.5 -16.5t7.5 -39t-7.5 -39t-22.5 -16.5q21 0 31 -13t10 -29.5t-10 -29t-31 -12.5q27 0 35.5 -10t0 -20t-35.5 -10q18 0 26.5 -14.5t8.5 -33.5
t-8.5 -33.5t-26.5 -14.5q21 0 32 -15.5t11 -36t-11 -36t-32 -15.5q18 1 27.5 -15.5t10.5 -38.5t-7 -39.5t-25 -18.5q-1 -19 -17 -27.5t-36.5 -7.5t-35.5 11.5t-14 29.5q0 -25 -15 -33t-30 0t-15 33q-20 -11 -32 -5.5t-11 18.5t21 25q-19 0 -29 12.5t-10 29t10 29.5t29 13
q-17 0 -25.5 14.5t-8.5 33t8.5 33t25.5 14.5q-15 0 -24 15.5t-11 37.5t2 41q-17 -6 -37 -4.5t-34 11.5t-14 27q1 -15 -14.5 -24t-37 -12t-38.5 2q7 -18 6.5 -42t-8.5 -42t-23 -18q17 0 25.5 -17.5t8.5 -40t-8.5 -40t-25.5 -17.5q13 -3 16 -18.5t-1.5 -34.5t-14 -31.5
t-22.5 -9.5q0 -29 -13 -38.5t-26 0t-13 38.5q0 -21 -10 -31.5t-23.5 -10.5t-23.5 10.5t-10 31.5q-16 -7 -30 3.5t-21.5 28t-5 34.5t18.5 24q-15 0 -22.5 16t-7.5 37.5t7.5 37.5t22.5 16q-17 0 -25.5 20.5t-8.5 47t8 45.5q-17 -4 -37.5 -1t-34.5 12.5t-13 23.5
q0 -22 -13.5 -30.5t-29 -3t-19.5 24.5q1 -14 -7 -22.5t-18 -9.5q5 -16 2.5 -33t-11.5 -29.5t-26 -12.5q17 0 26 -18t9 -41.5t-9 -41.5t-26 -18q21 0 31 -14t10 -32t-10 -32t-31 -14q3 -18 -13.5 -29.5t-39.5 -15t-42.5 2.5t-21.5 24q0 -20 -15 -27t-30.5 -0.5t-16.5 25.5z
" />
    <glyph glyph-name=".notdef" horiz-adv-x="695" 
d="M102 -117q-22 0 -22 22v891q0 22 22 22h491q22 0 22 -22v-891q0 -22 -22 -22h-491zM141 -9l377 769h-377v-769zM181 -59h373v762z" />
    <glyph glyph-name=".null" 
 />
    <glyph glyph-name="nonmarkingreturn" horiz-adv-x="333" 
 />
    <glyph glyph-name="space" unicode=" " horiz-adv-x="186" 
 />
    <glyph glyph-name="exclam" unicode="!" horiz-adv-x="330" 
d="M76 295q-14 0 -22 14.5t-11 36t0 42.5t11 35.5t22 14.5q-20 0 -30 11.5t-10 26.5t10 26.5t30 11.5q-22 0 -29.5 16t0 32t29.5 16q-11 3 -12.5 19.5t4.5 36t16 32t22 9.5q0 20 13.5 30t31.5 10t32 -10t14 -30q-1 26 14 35t30 0.5t15 -35.5q21 0 31 -18.5t9.5 -42.5
t-11 -42.5t-31.5 -17.5q20 0 29.5 -13.5t9.5 -30.5t-9.5 -30.5t-29.5 -13.5q21 0 31.5 -20t10.5 -46t-10.5 -45.5t-31.5 -19.5q8 -12 2.5 -24t-17.5 -20t-25.5 -8.5t-20.5 10.5q0 -16 -17.5 -23.5t-40.5 -7.5t-40.5 8.5t-18.5 24.5zM76 51q-20 0 -30 12.5t-10 29t10 29
t30 12.5q-13 8 -13.5 22.5t7.5 28t21 20t27 -1.5q0 14 19 21.5t44 7.5t44 -7.5t19 -21.5q32 17 36.5 8.5t-26.5 -26.5q20 0 30 -18.5t10 -42.5t-10 -42.5t-30 -18.5q7 -16 -1.5 -29t-24.5 -20.5t-32 -5.5t-23 17q0 -21 -14.5 -31t-33.5 -8t-33.5 18t-15.5 47z" />
    <glyph glyph-name="quotedbl" unicode="&#x22;" horiz-adv-x="519" 
d="M334 463q-19 -2 -26 8t-2.5 21.5t23.5 13.5q-18 -2 -28.5 17t-13.5 45t3 46.5t24 22.5q-18 11 -17 27t14.5 24t31.5 -3q0 25 14 33.5t28 0t14 -33.5q7 9 20 7t25.5 -11.5t18 -21.5t-2.5 -22q22 -2 32 -15.5t8 -29t-14.5 -26.5t-34.5 -8q16 -3 21 -23.5t0 -45t-16.5 -42
t-27.5 -14.5q0 -27 -10.5 -36t-21.5 0t-11 36q0 -28 -10 -36t-22.5 7.5t-18.5 58.5zM83 435q-20 -3 -28 8t-3 24t24 16q-20 -3 -28 8.5t-2.5 24t25.5 14.5q-19 -2 -30 10t-13 29.5t6 31.5t27 17q-9 10 -1.5 25.5t23 29t32 18.5t25.5 -6q11 8 26 0t27.5 -24.5t16 -33.5
t-8.5 -25q10 -2 14.5 -18t3.5 -39.5t-5.5 -46t-12.5 -37.5t-18 -14q3 -20 -9.5 -32t-31.5 -14.5t-36 5.5t-23 29z" />
    <glyph glyph-name="numbersign" unicode="#" horiz-adv-x="677" 
d="M139 149q-7 -16 -22.5 -18.5t-30 4t-22 20t0.5 30.5q-16 0 -24.5 11.5t-8.5 27.5t8.5 27.5t24.5 11.5q-10 17 1.5 34.5t33 29t40.5 10.5q-7 9 -5 21t11 19q-14 0 -18 6t4 14q-18 1 -33 14t-8 32q-17 0 -25.5 11t-8.5 26t8.5 26t25.5 11q-6 20 4.5 30.5t25 8t21.5 -22.5
q-6 19 5 30t24 10q-1 11 8.5 20t27.5 6q-4 15 12 27.5t40 18.5t44 3t24 -18q25 -6 27.5 -21.5t-13.5 -20.5q12 -5 16 -19q16 9 30 -3q2 18 13 35.5t25.5 27t28.5 1.5q0 20 11 30t25 10t25 -10t11 -30q23 6 33.5 -11.5t1.5 -32.5q18 7 35 -3.5t23.5 -28.5t-7.5 -37
q28 0 37 -10.5t0 -21.5t-37 -11q15 -8 17.5 -21t-3.5 -24.5t-18 -16.5t-27 3q0 -16 -5.5 -24.5t-12.5 -8.5q1 -16 -4 -34t-15 -32q22 -3 38 -22t4 -43q13 -5 14.5 -21t-5.5 -34t-19 -29t-25 -6q12 -13 5.5 -31t-22.5 -33.5t-34.5 -20.5t-30.5 7q11 -20 6.5 -32t-17.5 -10
t-24 23q-9 -15 -25 -15.5t-30.5 8.5t-21 23.5t3.5 29.5q-12 -12 -26.5 -9.5t-24.5 13.5q-7 -17 -19.5 -31t-26.5 -20.5t-25 1.5q0 -16 -11.5 -24.5t-26.5 -8.5t-26.5 8.5t-11.5 24.5q0 -15 -5.5 -21.5t-12 1t-9.5 33t3 72.5zM299 295q11 9 29 5t18 -20q-2 12 8 18.5t20 3.5
q-4 15 0.5 35.5t14.5 27.5q-9 1 -18.5 10t-14.5 19q-8 -13 -27 -22t-33 -5q7 -12 6.5 -34t-3.5 -38z" />
    <glyph glyph-name="dollar" unicode="$" horiz-adv-x="711" 
d="M295 7q-15 -31 -31.5 -35.5t-23.5 11t7 45.5q-9 -22 -30.5 -26t-44.5 4.5t-35.5 26.5t-4.5 41q-16 -15 -33.5 -12.5t-30 15.5t-13.5 31t16 33q-34 -10 -49.5 1.5t-8.5 29t41 27.5q1 23 16 34t34 10t33 -13t13 -35q0 28 14 37.5t27.5 0t13.5 -37.5q6 18 22.5 22.5t34 -1.5
t28 -19t4.5 -31q8 33 23.5 36t18.5 -18q6 11 19 21t29 17q-14 10 -23.5 23t-7.5 25q-8 -15 -25.5 -19.5t-35.5 0t-30 17t-9 31.5q-7 -15 -24 -17.5t-37.5 3t-38.5 17.5t-27.5 26.5t-2.5 29.5q-24 -13 -43 -7t-28.5 23t-5 37t28.5 33q-16 4 -22 20t-4.5 37.5t9 41.5t20 32
t28.5 8q-10 16 -4 34t22 33t36.5 23.5t39 7t28.5 -17.5q-5 25 2 38.5t18 14.5q-13 10 -1.5 21.5t48.5 11.5q-37 29 -29 39.5t46 -18.5q0 30 11 44.5t25.5 14.5t26 -14.5t11.5 -44.5q19 8 32.5 3t18.5 -17t-1 -25t-26 -21q16 3 28 2q18 16 35 0.5t6 -55.5q16 26 40.5 28
t46 -11.5t30 -36.5t-7.5 -48q21 13 37 11.5t23 -13t2.5 -27t-25.5 -28.5q7 -21 1.5 -34.5t-18 -17.5t-25 3t-19.5 28q-1 -19 -16 -29.5t-37 -13t-43 2.5t-35 17t-13 31q-1 -19 -18 -29.5t-40 -11.5q8 -17 6 -30q15 12 36.5 11t37.5 -15t12 -37q6 28 18.5 35t21.5 -4.5
t3 -39.5q7 17 22.5 21t32 -2t26 -19.5t2.5 -30.5q15 11 33.5 1t33 -30t18 -40.5t-11.5 -31.5q37 2 50 -11t1 -27.5t-49 -15.5q13 -7 14 -23.5t-6 -35.5t-19 -35.5t-26 -24.5t-27 -2q11 -20 3.5 -37t-25 -26.5t-36 -7t-29.5 21.5q12 -18 6 -36t-21.5 -30t-34.5 -14
q4 -11 -7.5 -21t-36.5 -10q0 -23 -17.5 -33.5t-40.5 -4t-40.5 34t-16.5 79.5z" />
    <glyph glyph-name="percent" unicode="%" horiz-adv-x="846" 
d="M141 376q-10 -20 -26 -20t-25 12.5t1 32.5q-16 -5 -30 10t-22 38.5t-6 43.5t18 26q-21 2 -30 16.5t-7 32.5t14 30t33 10q-11 14 -2.5 31t26 30.5t36 17t29.5 -10.5q-1 18 9 27.5t23 10t23 -8t11 -26.5q8 12 27 9.5t38.5 -14.5t30.5 -27.5t3 -27.5q17 1 28.5 -12t17 -33
t3.5 -40.5t-11 -35t-26 -16.5q13 -6 13 -21t-8 -31.5t-20 -26t-24 -3.5q5 -16 -8.5 -28t-37.5 -17.5t-51 -1t-50 22.5zM131 38q-18 14 -17.5 26t12 15.5t29.5 -9.5q-18 13 -16 33.5t16 39t33 25.5t37 -6q-15 11 -16 25.5t7.5 25.5t22.5 14t29 -8q-14 11 -14.5 24.5t8 25
t22.5 15t28 -7.5q-12 9 -11.5 21.5t8.5 23t20 14.5t24 -5q-17 12 -13 28t18 24t31 -5q-10 8 -4 26.5t21 38t31 30.5t26 4q-13 10 -11 26t13 30.5t26 20.5t28 -4q-12 9 -10 26t13 36t26.5 35t31.5 22.5t28 -2.5q-2 19 12.5 30t34 12.5t35.5 -6.5t18 -27q37 9 38.5 2.5
t-35.5 -15.5q15 -12 13 -30.5t-15 -35.5t-30.5 -24t-32.5 4q12 -9 10.5 -23t-11 -26.5t-22.5 -17.5t-25 4q17 -13 17.5 -30t-10 -31t-27 -18t-33.5 9q10 -8 8.5 -20t-10 -23.5t-20 -16.5t-22.5 3q13 -10 12 -24.5t-11.5 -28t-24 -18.5t-26.5 4q11 -8 8.5 -24.5t-13 -35
t-25.5 -34t-30.5 -22t-26.5 1.5q14 -10 13 -29t-12.5 -39.5t-28 -37t-34.5 -22.5t-32 5q15 -12 15 -27t-9.5 -26t-24 -13.5t-28.5 9.5q0 -22 -16 -33t-36 -9.5t-33 15t-7 40.5zM236 461q-12 1 -17.5 11.5t-4.5 23.5t6.5 22.5t15.5 8.5q-10 2 -22 24t-16 42q-7 -8 -18 -13.5
t-21 -4.5q7 -10 1.5 -24t-21.5 -12q12 0 17.5 -12t3 -25.5t-12.5 -17.5q12 1 19 -8.5t6 -20.5q11 8 28 6.5t36 -0.5zM646 20q-6 -29 -24 -35t-31 7t-7 42q-13 -7 -29.5 6.5t-29.5 36t-16.5 43.5t9.5 29q-22 0 -29 11t0 22t29 11q-14 3 -18.5 17t-1 30.5t13 27.5t24.5 8
q-16 18 -11 33t21 18.5t31 -13.5q-2 17 14 27.5t38.5 13.5t40.5 -3.5t20 -23.5q7 7 21.5 1t31.5 -20t31 -30.5t20 -31t-1 -21.5q12 -2 17 -18.5t4.5 -40t-5.5 -46.5t-14.5 -37.5t-21.5 -13.5q5 -12 -10 -25.5t-39.5 -23t-46.5 -11.5t-31 10zM697 101q-14 2 -16.5 18t4.5 30
t21 11q-10 1 -14.5 16.5t-4 33t7.5 25.5q-7 -2 -13 1.5t-9 10.5q-8 -12 -24.5 -22t-29.5 -9q8 -9 10 -24.5t-3 -29.5t-16 -17q16 1 22.5 -12t0.5 -24q13 3 31 -2t33 -6z" />
    <glyph glyph-name="ampersand" unicode="&#x26;" horiz-adv-x="783" 
d="M169 44q-12 -11 -29 -5.5t-34.5 20t-30 33.5t-15.5 36.5t9 28.5q-29 1 -42.5 15.5t-13 33t15 32t42.5 13.5q-32 16 -38.5 31t9.5 19.5t49 -11.5q-17 18 -17.5 35t10 27.5t27.5 9.5t35 -18q-15 17 -12.5 33.5t14.5 25.5q-14 13 -21.5 31t-5.5 35t17 27q-20 6 -24 28
t3.5 47.5t23 42t35.5 11.5q-23 32 -19.5 50.5t22 15t40.5 -36.5q-7 29 6.5 47t35 23t41.5 -5.5t27 -38.5q1 27 12.5 40t25.5 12.5t24.5 -15t8.5 -41.5q9 36 22 45.5t20 -5t-3 -50.5q13 28 26.5 33t18.5 -8.5t-8 -41.5q16 10 35 -2t32.5 -34t16.5 -44t-13 -32q22 -7 29 -24.5
t1 -35.5t-21.5 -28.5t-37.5 -3.5q10 -14 5 -30t-19.5 -30t-31.5 -21q8 -9 -6 -20q16 -2 28.5 -13.5t15.5 -26.5q13 9 29.5 11.5t28.5 -7.5q-10 17 -3.5 29.5t21 14t31.5 -15.5q0 26 11.5 39.5t26.5 13.5t26 -13.5t11 -39.5q26 16 40 13.5t10.5 -16.5t-28.5 -30
q19 -13 19.5 -32.5t-11 -37t-30 -24t-37.5 5.5q22 -16 27 -33.5t-2 -29.5q20 -12 34 -32.5t15 -42.5t-16 -39q10 -35 5.5 -49t-15.5 -4.5t-21 45.5q0 -38 -13 -51t-26 0t-13 51q-2 -27 -16.5 -40.5t-32.5 -13t-32 14t-15 38.5q-3 -20 -20.5 -31.5t-40.5 -12.5t-41.5 8
t-22.5 30q4 -32 -4.5 -43.5t-20 -1.5t-16.5 45q2 -48 -44 -46.5t-155 67.5zM344 471q10 6 21 -8q-6 13 1.5 23t19.5 8q-6 7 -5 18t8 18q-25 4 -38 27q-13 -22 -39 -25q6 -7 4.5 -16t-10.5 -14q12 -2 22 -11t16 -20zM337 128q-7 19 6.5 29.5t28.5 6.5q-2 3 -2 5q-15 8 -21 25
t9 31q-11 -11 -26 -6.5t-27 17.5t-15 28q-7 -6 -15 -1q0 -14 -8 -29.5t-20 -23.5q14 -5 22 -20t3 -28q15 7 36 -3.5t29 -30.5z" />
    <glyph glyph-name="quotesingle" unicode="'" horiz-adv-x="264" 
d="M79 459q-15 -2 -24.5 12t-11.5 34t3.5 35.5t21.5 17.5q-16 2 -21.5 22t-2 45.5t13.5 43.5t26 16q3 14 23.5 17t45 -2.5t41.5 -17t14 -25.5q16 -2 21.5 -23t2.5 -48t-13.5 -46.5t-26.5 -17.5q29 -3 37.5 -14t-2.5 -20t-39 -5q6 -13 -5.5 -26.5t-31.5 -21t-40.5 -3.5
t-31.5 27z" />
    <glyph glyph-name="parenleft" unicode="(" horiz-adv-x="423" 
d="M305 -128q-6 -14 -27 -12.5t-45 12t-38.5 26t-8.5 29.5q-15 -16 -29.5 -12t-19 18.5t11.5 29.5q-18 -9 -36 4.5t-31 37t-14 46.5t17 32q-15 -3 -26.5 12.5t-16.5 38t-1 41t19 22.5q-14 -1 -23.5 14t-13.5 37.5t-1.5 45t10.5 38t23 16.5q-20 2 -28.5 18t-6.5 35.5t13.5 34
t30.5 12.5q-27 6 -33 21.5t6 27.5t39 6q-16 8 -19 26.5t3.5 41t19.5 42t29 29.5t32 3q-13 13 -12 27.5t11 24.5t24.5 11t27.5 -12q-11 17 -6 28.5t17 11t23 -18.5q-6 19 3.5 32.5t26 19.5t32.5 0.5t22 -23.5q7 12 20 12.5t26.5 -6.5t20 -18.5t-0.5 -24.5q15 -6 16 -24
t-7 -37t-22 -31t-29 -5q12 -16 5 -31.5t-23.5 -24.5t-31.5 -2q9 -12 7.5 -30.5t-9.5 -36.5t-20.5 -29.5t-27.5 -10.5q15 -5 20.5 -18t3 -27.5t-13 -24.5t-27.5 -8q28 -1 37 -13.5t-0.5 -24t-37.5 -10.5q18 0 27.5 -13t10.5 -30.5t-7 -31t-25 -13.5q14 0 26.5 -18.5
t19.5 -44.5t6.5 -49.5t-11.5 -33.5q13 4 27 -4.5t23 -22.5t7 -28q11 14 26 12.5t24 -14t2 -33.5q17 0 27 -13t10.5 -32t-10 -38t-33.5 -31t-61 -11z" />
    <glyph glyph-name="parenright" unicode=")" horiz-adv-x="423" 
d="M47 -92q-15 3 -19.5 18t-1 33t14 30.5t24.5 9.5q-10 14 -5.5 30.5t19 31t32.5 22t33 4.5q-12 12 -10.5 25.5t13.5 21.5t32 3q-17 8 -21.5 30.5t-0.5 48t16.5 43t31.5 14.5q-14 2 -22 24.5t-9.5 52.5t3.5 54t18 29q-23 -4 -38 13t-17.5 40t12.5 38q-16 -4 -32 3.5
t-27.5 22t-13.5 31.5t11 30q-15 -5 -29 10.5t-22.5 39.5t-7.5 45.5t16 26.5q-11 14 -9 23.5t11.5 9t20.5 -15.5q4 14 21 18t39.5 0.5t43 -13t32.5 -22t8 -26.5q9 7 24 0t32 -23t30.5 -35t18.5 -35t-4 -24q21 8 36 -2t21.5 -28t1 -35.5t-25.5 -24.5q14 2 24 -12.5t16 -37.5
t6 -46.5t-6 -40t-20 -18.5q23 0 30.5 -15.5t0 -31.5t-29.5 -16q18 -2 24.5 -23t4 -48t-14 -46.5t-28.5 -17.5q21 -6 27.5 -22.5t1.5 -34t-19.5 -27.5t-35.5 -4q19 -9 21 -22t-9 -20t-30 2q12 -11 9 -28t-15.5 -35.5t-29.5 -32.5t-33.5 -19t-28.5 6q12 -24 1 -39t-29 -14
t-30 25q4 -21 -10.5 -33t-36 -11.5t-39.5 17t-22 53.5z" />
    <glyph glyph-name="asterisk" unicode="*" horiz-adv-x="444" 
d="M158 397q-12 -16 -27.5 -17t-28 8t-16 24t9.5 32q-12 9 -11.5 21.5t8.5 22t20 12.5t24 -7q-4 5 -5 11q-26 1 -48 10.5t-21 27.5q-24 3 -30.5 17t3.5 25.5t34 7.5q-22 8 -24.5 25t10 29.5t34.5 5.5q18 24 34 24t20.5 -15.5t-13.5 -39.5q8 12 27 7q7 15 25 18
q-23 3 -29 18.5t3.5 29.5t32.5 11q6 14 20.5 16t30 -4.5t24.5 -18t4 -25.5q14 1 22.5 -8t11.5 -22q17 3 27 -10q10 8 23 2.5t23.5 -19t13.5 -27.5t-8 -22q9 -19 -2 -32t-28 -13.5t-26 18.5q1 -15 -8 -23q10 -4 15 -15.5t-4 -24.5q13 -5 16 -17.5t-2 -25.5t-15 -20.5
t-23 -2.5q-4 -23 -17 -28.5t-23.5 4t-7.5 31.5q-8 -3 -16.5 2t-15.5 14q-11 -21 -28.5 -34t-38.5 -3z" />
    <glyph glyph-name="plus" unicode="+" horiz-adv-x="594" 
d="M229 52q-18 1 -28 17t-12.5 39.5t2.5 46t17 35.5q-12 1 -21.5 9t-11.5 20q-10 -11 -23 -4.5t-13 31.5q0 -18 -12.5 -27t-29.5 -9.5t-30.5 8t-13.5 26.5q-19 0 -28.5 17t-9.5 39.5t9.5 39.5t28.5 17q0 13 14.5 21t35 10t40 -1.5t29.5 -12.5q-3 16 8 28.5t26 13.5
q-6 10 1.5 22t27.5 12q-27 0 -36 10.5t0 21.5t36 11q-9 8 -6.5 19.5t11.5 21.5t20 13t20 -5q7 12 22.5 11t31.5 -10t25 -22t2 -24q15 0 23 -14t9 -33t-4 -35q19 5 41 -1.5t36.5 -21t9.5 -33.5q12 12 28 7.5t29 -18t16.5 -30t-8.5 -27.5q26 -4 33 -16t-3 -22t-36 -7
q0 -19 -19 -28t-42.5 -7t-36.5 15q1 -13 -8 -27t-23 -23.5t-28 -8.5q10 -9 14 -27.5t1.5 -38t-10.5 -32.5t-22 -13q0 -20 -19 -30t-44.5 -10t-45.5 9t-23 27z" />
    <glyph glyph-name="comma" unicode="," horiz-adv-x="303" 
d="M54 13q-16 3 -21.5 18.5t-2.5 35t13 33t26 11.5q-12 10 -4.5 29.5t24 37.5t35.5 27t30 -2q3 22 18.5 31t34.5 7t32 -15t10 -35q19 -7 24.5 -21.5t0 -28.5t-19 -20.5t-32.5 0.5q13 -5 15.5 -22t-3 -38.5t-16 -40.5t-24 -30t-26.5 -6q4 -12 -7 -22.5t-28.5 -15.5t-36 -1
t-31 20.5t-11.5 47.5z" />
    <glyph glyph-name="hyphen" unicode="-" horiz-adv-x="471" 
d="M71 245q-16 0 -24.5 10.5t-8.5 24.5t8.5 25t24.5 11q-20 9 -20.5 26.5t12.5 28.5t34 2q0 25 15 33t29.5 0t14.5 -33q0 18 11.5 27.5t26.5 9.5t26.5 -9.5t11.5 -27.5q0 17 11.5 25.5t27.5 8.5t28 -8.5t12 -25.5q5 14 21 16t34 -4.5t28.5 -19t5.5 -26.5q19 0 28.5 -15.5
t9.5 -35.5t-9.5 -35.5t-28.5 -15.5q2 -20 -15.5 -31.5t-41.5 -13.5t-43 6.5t-21 28.5q0 -22 -11.5 -33t-26 -11t-26 11t-11.5 33q0 -17 -20 -25t-46 -6.5t-46 13.5t-21 36z" />
    <glyph glyph-name="period" unicode="." horiz-adv-x="312" 
d="M67 86q-21 0 -31.5 17t-10.5 39t10.5 38.5t31.5 16.5q-4 28 6.5 39t23 3t16.5 -36q0 20 14 29.5t33 9.5t33 -9.5t14 -29.5q14 19 27.5 19t18.5 -13t-8 -32q17 0 27 -14t13.5 -34.5t0 -41t-13.5 -34.5t-27 -14q10 -25 5 -36.5t-17 -7t-22 29.5q0 -17 -14 -27t-35.5 -10.5
t-43 9t-36 32t-15.5 57.5z" />
    <glyph glyph-name="slash" unicode="/" horiz-adv-x="579" 
d="M75 7q-14 6 -15 23.5t6.5 36.5t21 30.5t27.5 5.5q-18 8 -23 21t0 25.5t18 18t31 -1.5q-14 6 -15.5 22.5t5.5 34t19.5 28t27.5 4.5q-16 6 -17 26.5t8.5 43.5t24.5 37t31 7q-17 7 -20.5 21.5t2.5 29.5t19 22.5t30 0.5q-20 8 -22.5 30.5t7.5 47t27.5 38.5t37.5 6
q-16 7 -20 19.5t1 25t17 18.5t28 0q-15 6 -16.5 24.5t6.5 38t22 31.5t29 6q-6 15 3.5 27.5t26.5 19.5t32.5 4t21.5 -18q4 13 16 15.5t25 -1.5t20.5 -13.5t3.5 -22.5q18 -7 20 -27.5t-7.5 -42t-25 -34.5t-33.5 -6q15 -6 18.5 -23t-1.5 -37.5t-16 -38.5t-25.5 -27t-29.5 -3
q25 -10 29.5 -22.5t-7.5 -18.5t-37 4q16 -6 18 -24.5t-6 -38t-22.5 -31.5t-30.5 -5q15 -6 18.5 -24t-2 -40.5t-17.5 -42t-27 -29.5t-31 -4q24 -9 27.5 -22.5t-8.5 -20.5t-36 3q24 -10 28 -22.5t-8 -18.5t-35 4q22 -9 25 -23t-9 -22t-35 1q19 -8 24 -23.5t-1.5 -31t-21 -23
t-33.5 0.5q22 -9 24.5 -24t-10 -24t-34.5 0q4 -13 -11.5 -25.5t-38.5 -20t-43 -6t-24 14.5q0 -15 -6 -21.5t-12 -0.5t-6 27t12 61z" />
    <glyph glyph-name="zero" unicode="0" horiz-adv-x="718" 
d="M338 21q-4 -23 -20 -32t-35 -6t-31.5 16.5t-8.5 36.5q-14 -22 -37.5 -22.5t-45.5 13t-32.5 35t3.5 42.5q-29 -19 -46.5 -13.5t-15.5 23.5t30 37q-19 -4 -33.5 8.5t-22.5 33t-8 42.5t8.5 38.5t28.5 20.5q-29 0 -43.5 12.5t-14.5 29.5t14 30t43 13q-27 2 -39 20.5
t-10.5 41.5t16.5 39.5t42 14.5q-21 10 -26 27t2.5 33.5t24 24.5t37.5 -1q-9 12 -2.5 27t22 29.5t34 24t35 10.5t24.5 -11q-6 25 0.5 39.5t19 17.5t25 -7t18.5 -34q0 26 20 39t46 13t46 -13t20 -40q9 24 31.5 29t46.5 -4t37.5 -27.5t4.5 -42.5q17 16 35.5 13.5t31.5 -16
t14.5 -32t-16.5 -35.5q26 8 43.5 -4t24 -32t-2 -39.5t-34.5 -27.5q20 0 32.5 -15.5t17 -38.5t1 -46t-15.5 -39t-33 -16q17 -4 24 -21.5t5.5 -41.5t-9.5 -46.5t-21 -36.5t-30 -11q19 -19 15 -42.5t-22 -41t-41.5 -21t-42.5 16.5q14 -35 4.5 -52.5t-28.5 -11t-32 41.5
q3 -29 -11.5 -45t-38 -18.5t-45.5 9.5t-33 41zM272 310q16 0 22.5 -7.5t3 -16.5t-16.5 -12q12 -1 22 -14.5t15 -31.5t2 -33q9 8 15 7t6 -10q9 13 26 9.5t41 -18.5q-18 14 -11 30t27 13q-10 6 -10.5 18.5t7 22t22.5 8.5q-13 0 -19 10t-6 23t6.5 22.5t19.5 9.5
q-12 0 -18.5 13.5t-7.5 32.5t3.5 34.5t15.5 19.5q-11 0 -22.5 12.5t-19 30t-8.5 32.5q-7 -10 -14.5 -10t-10.5 9q-7 -13 -21.5 -17t-27.5 5q2 -12 -6.5 -23.5t-21.5 -10.5q11 -5 15.5 -18.5t3 -29t-9.5 -26.5t-22 -11q13 0 20 -11t7 -25.5t-6.5 -25.5t-20.5 -11z" />
    <glyph glyph-name="one" unicode="1" horiz-adv-x="557" 
d="M281 31q-27 0 -41 19t-14 44.5t14 44.5t41 19q-38 0 -51 13t0 26t51 13q-30 0 -44.5 11.5t-14.5 26.5t14.5 26t44.5 11q-19 0 -30 16.5t-14.5 40.5t1.5 46q-11 4 -17 16q-7 -15 -26 -19t-33 15q-5 -20 -18 -27.5t-27.5 -4t-23 16t-4.5 32.5q-18 -2 -29 12t-12.5 32.5
t6.5 34t26 17.5q-15 20 -12 38.5t17.5 29.5t33 9.5t34.5 -21.5q-18 23 -18 42t12 28t30 4.5t36 -27.5q-12 21 -2.5 40t29.5 29.5t40.5 8t32.5 -23.5q0 29 14.5 43.5t34 14.5t34.5 -14.5t15 -43.5q-2 34 12.5 46.5t30 1.5t17.5 -45q24 0 36.5 -20.5t12.5 -47.5t-12.5 -47.5
t-36.5 -20.5q40 0 53 -12.5t0 -25.5t-53 -13q26 0 39 -16t13 -36.5t-13 -36t-39 -15.5q21 0 34 -14.5t17 -36t0 -43t-17 -36t-34 -14.5q32 0 42.5 -14t0 -27.5t-42.5 -13.5q18 0 29 -14.5t15 -36t0 -43t-15 -36t-29 -14.5q2 -23 -11.5 -35.5t-32.5 -14.5t-35 8t-18 33
q0 -25 -14.5 -37.5t-33 -12.5t-32.5 12.5t-13 38.5z" />
    <glyph glyph-name="two" unicode="2" horiz-adv-x="704" 
d="M65 43q-30 0 -40 12t0 24t40 12q-25 6 -34.5 20.5t-6 29t19 22.5t40.5 2q-13 17 -7.5 36.5t21.5 36.5t37.5 27t41.5 9t32 -18q-23 32 -21.5 49.5t19 14.5t41.5 -35q-18 23 -14.5 44.5t20.5 35t38.5 12.5t39.5 -24q-15 17 -12 31t15.5 18t27.5 -8q-12 14 -8.5 29t15.5 23
q-13 7 -19.5 20.5t-5.5 27.5q-10 1 -18 8t-12 19q-3 -15 -19 -29.5t-37 -24t-39.5 -9t-26.5 14.5q0 -28 -15.5 -41.5t-36.5 -13.5t-36.5 13.5t-15.5 41.5q-27 1 -40 11.5t-12.5 23.5t14.5 22t41 8q-23 17 -25.5 37t9 36t31.5 20t43 -12q-12 22 -4 41t27 29t39 6.5t32 -26.5
q-2 25 17 39.5t45.5 17.5t48 -7.5t24.5 -35.5q3 33 16 42.5t24 -2.5t8 -44q7 23 26 30t38.5 1t31 -22.5t3.5 -40.5q21 28 40.5 28.5t24 -18t-16.5 -46.5q23 14 40 12.5t24 -13t1 -27t-29 -30.5q24 1 36.5 -15.5t13 -39t-11 -40t-35.5 -17.5q20 -13 20.5 -35t-12.5 -41.5
t-33 -28t-40 4.5q13 -15 9.5 -32t-17 -31.5t-31 -20.5t-32.5 0q10 -12 8 -31q22 -1 40.5 -13.5t16.5 -36.5q0 30 13 40.5t26 0t13 -40.5q19 8 34.5 -3t23.5 -30t5 -37.5t-22 -26.5q12 -15 8.5 -29.5t-15.5 -24t-27 -10t-27 14.5q0 -19 -14 -30.5t-35 -15.5t-42 0t-35 15.5
t-14 30.5q0 -24 -14.5 -36.5t-33.5 -12.5t-33.5 12.5t-14.5 36.5q0 -30 -20 -44.5t-46 -14.5t-46 14.5t-20 44.5q0 -24 -15.5 -35.5t-36.5 -11.5t-36.5 11.5t-15.5 35.5q0 -36 -10 -47.5t-19 3.5t-8 57z" />
    <glyph glyph-name="three" unicode="3" horiz-adv-x="709" 
d="M229 34q-10 -20 -31.5 -22.5t-43.5 8t-34.5 28.5t-2.5 39q-22 -20 -40.5 -21.5t-27.5 9.5t-5.5 28.5t25.5 37.5q-26 12 -29 28t11.5 24.5t40.5 -3.5q0 24 16 36.5t37.5 12.5t37.5 -12.5t16 -36.5q3 28 19 35.5t30 -3.5t11 -39q3 15 18.5 21.5t37 5t39.5 -8.5q-6 32 14 58
q-19 11 -22 31q-5 -19 -16.5 -23.5t-21.5 7t-10 37.5q-9 -17 -24.5 -19.5t-29.5 5t-20 22t3 31.5q-38 2 -50.5 14.5t0.5 24.5t52 10q-14 24 0 45.5t37 27.5q-6 8 -6 19q-16 3 -27.5 13.5t-11.5 30.5q0 -25 -19.5 -37t-44.5 -12t-44.5 12t-19.5 37q-18 0 -28.5 14.5t-13.5 35
t1 41t15 34t29 13.5q1 27 20 39.5t44 12t43.5 -14t17.5 -40.5q0 26 17.5 38.5t40.5 12.5t40.5 -12.5t17.5 -38.5q0 26 12.5 39.5t29.5 13.5t29.5 -13.5t12.5 -39.5q0 26 11 39.5t25 13.5t25 -13.5t11 -39.5q0 23 14.5 35t33.5 12t33.5 -12t14.5 -35q45 35 51.5 26.5
t-38.5 -43.5q25 -1 36 -20.5t10 -43.5t-14.5 -41.5t-38.5 -16.5q14 -21 7 -42t-26 -37.5t-41 -22.5q14 -8 21.5 -23t-1.5 -34q16 16 35.5 11t35.5 -21.5t19.5 -36.5t-12.5 -35q34 9 48 2t5 -19.5t-43 -21.5q25 -1 36.5 -14t10.5 -28.5t-14 -26.5t-38 -9q14 -13 11.5 -31.5
t-15 -38t-30.5 -34t-36.5 -18.5t-31.5 9q13 -34 3.5 -51t-28 -11t-32.5 39q4 -26 -16.5 -41.5t-57 -17.5t-82.5 11.5t-94 44.5z" />
    <glyph glyph-name="four" unicode="4" horiz-adv-x="735" 
d="M382 83q-26 -13 -43.5 -7.5t-20.5 19.5q-19 -8 -41 -5t-38 16t-16 36q0 -24 -14 -38t-34.5 -19t-41 0t-34.5 19t-14 38q-19 -21 -32 -22t-14 12.5t17 34.5q-24 0 -36 14.5t-12 33t12 33t36 14.5q-26 14 -33 32.5t1 34.5t27.5 21.5t45.5 -8.5q-19 15 -20.5 36t9 42.5
t28 37t38.5 19t40 -10.5q-22 16 -25.5 34t6 30.5t28 13.5t39.5 -15q-23 17 -26 36.5t7.5 33t30 15.5t41.5 -15q-14 18 -7.5 38.5t24.5 34.5t39 15.5t36 -17.5q0 29 19.5 43t44.5 14t44.5 -14t19.5 -43q16 11 31 5t25 -20.5t9.5 -30.5t-16.5 -27q27 0 41 -17t14 -39t-14 -39
t-41 -17q27 0 41 -14.5t14 -33.5t-14 -33.5t-41 -14.5q21 0 32.5 -13.5t12.5 -30.5q19 1 34.5 -14.5t14.5 -45.5q23 12 36.5 4.5t11 -22.5t-26.5 -26q22 -7 28 -25.5t-0.5 -38t-22 -31t-37.5 -4.5q6 -28 -6.5 -44t-30.5 -17q-5 -7 -16.5 -12.5t-29.5 -5.5q22 -22 21 -37.5
t-16.5 -16.5t-37.5 21q0 -24 -15 -37.5t-37 -16t-44.5 8t-37 34.5t-13.5 64zM290 274q0 21 13 28t25.5 0t12.5 -28q0 12 5 19t12 9q-4 15 3.5 31t27.5 16q-11 0 -17 11.5t-7.5 28t1.5 31.5q-16 -5 -31 1q3 -14 -10 -20.5t-32 7.5q10 -7 9 -19t-8.5 -22.5t-18.5 -15t-22 2.5
q12 -8 11.5 -22.5t-5.5 -28.5q10 4 20.5 -3t10.5 -26z" />
    <glyph glyph-name="five" unicode="5" horiz-adv-x="690" 
d="M280 22q-7 -37 -23 -47t-27.5 5t-4.5 52q-9 -16 -28.5 -18t-41 6t-39.5 23t-25.5 32.5t1.5 33.5q-29 -17 -45.5 -10.5t-14 24.5t31.5 34q-33 -7 -46.5 3.5t-5.5 25.5t41 22q5 37 14 50t15.5 2t3.5 -45q4 18 18 26.5t30.5 7t29 -12.5t12.5 -32q0 21 10 31.5t23.5 10.5
t23.5 -10.5t10 -31.5q9 21 31 24t45.5 -6.5t36.5 -26.5q3 12 13 12q-11 23 10 27q-13 18 1 38q-23 4 -25 29q-8 -8 -18 -4.5t-14 18.5q-1 -22 -16 -32t-32.5 -3.5t-25.5 32.5q0 -21 -17 -32t-40 -12.5t-43.5 6t-27.5 24.5q4 -29 -8.5 -28.5t-22.5 35.5q-26 3 -37.5 18
t-9.5 33t16.5 30t40.5 9q-23 3 -33.5 17.5t-8.5 31.5t15.5 29t36.5 9q-37 4 -48.5 15.5t2 19.5t50.5 4q-23 3 -32.5 21t-7 39.5t15.5 37t37 13.5q-12 17 -8.5 32t15.5 22.5t27 4.5t26 -21q0 29 20.5 43.5t47.5 14.5t47.5 -14.5t20.5 -43.5q0 23 14.5 36.5t35.5 18t42.5 0
t36 -18t14.5 -36.5q6 22 26 28.5t43 0.5t38 -21t10 -36q26 -2 38 -18.5t11 -37.5t-14.5 -36.5t-39.5 -14.5q0 -16 -14.5 -25.5t-36 -13t-43 0t-36 13t-14.5 25.5q0 -17 -12.5 -26.5t-31 -12.5t-36 1.5t-27.5 15.5q1 -11 -6 -20.5t-18 -13.5q12 -8 13.5 -18t-5.5 -18
q1 -2 2 -5q6 17 25 24t37.5 2t24.5 -26q1 26 16.5 33.5t29.5 -2t13 -34.5q8 18 26.5 21t37 -5t29 -24t1.5 -34q13 8 29 1t30 -23t23 -35t8.5 -36.5t-13.5 -25.5q22 -3 30 -24t4.5 -46t-17 -43t-34.5 -15q19 -16 21 -34t-8.5 -30.5t-28.5 -14.5t-38 15q13 -23 9.5 -40
t-16.5 -24.5t-29.5 -1.5t-29.5 28q4 -24 -17.5 -39.5t-56.5 -20.5t-73 4t-66 34z" />
    <glyph glyph-name="six" unicode="6" horiz-adv-x="692" 
d="M338 20q-3 -25 -19 -35.5t-35 -8t-32 16.5t-10 39q-10 -29 -25.5 -34.5t-24.5 8t0 42.5q-10 -12 -28 -10t-37.5 14t-34.5 29t-20.5 34t4.5 30q-27 -9 -44.5 -1t-22.5 23.5t5 32t37 25.5q-17 4 -23.5 20t-5 37.5t9.5 41t21.5 30.5t30.5 7q-24 16 -28 35.5t6.5 36t30 21
t43.5 -10.5q-18 14 -21 29t5 25.5t23 11.5t34 -13q-18 13 -19.5 32.5t7.5 39t25.5 34t36 17.5t36.5 -10q-17 16 -16.5 33.5t12.5 29.5t29.5 13t34.5 -15q0 23 10 35t23.5 12t23.5 -12t10 -35q0 33 10 44t19.5 0t9.5 -44q6 23 18.5 32.5t25 6.5t19 -17t1.5 -37
q31 -24 33.5 -42t-15.5 -20.5t-49 20.5q18 -13 20.5 -32.5t-5.5 -39t-23 -33.5q19 5 38 -3t29.5 -26t2.5 -44q16 16 38 10t40.5 -24t24.5 -40t-10 -38q18 2 30 -10.5t18 -32t5.5 -40t-9 -36t-25.5 -17.5q24 -10 32 -26t2 -30t-23 -19t-41 5q9 -11 3 -27.5t-21 -32t-34 -27
t-36.5 -13.5t-26.5 10q4 -19 -8.5 -33t-33.5 -21.5t-44 -7.5t-41.5 8.5t-25.5 26.5zM275 212q13 1 29 -5t30.5 -16.5t19.5 -21.5q2 15 17 24t30 7q-10 13 -5 25.5t20 14.5q-15 11 -23 33.5t-3 38.5q-17 -7 -44 -5t-40 13q3 -11 -2.5 -16.5t-14.5 -1.5q8 -12 2 -21t-21 -6
q11 -11 12.5 -31t-7.5 -32z" />
    <glyph glyph-name="seven" unicode="7" horiz-adv-x="625" 
d="M166 72q-22 11 -27.5 28.5t2 34t25 24t39.5 -2.5q-28 12 -30.5 31t13.5 29t44 -2q-21 9 -25.5 27t3.5 35.5t24.5 25.5t37.5 -2q-26 13 -33 31.5t0.5 35t26.5 23t45 -5.5q-34 16 -36.5 35.5t17.5 23.5q-12 8 -16.5 21t-0.5 26q-7 4 -12 13t-5 22q0 -28 -12 -42.5
t-28 -14.5t-28 14.5t-12 42.5q0 -24 -18 -36t-42 -12t-42 12.5t-18 36.5q-28 0 -42.5 20.5t-14.5 47t14.5 47t42.5 20.5q-3 28 8.5 43.5t28 17.5t30.5 -11t17 -41q0 28 14.5 42t33.5 14t33.5 -14t14.5 -42q0 18 14 29t35 14.5t41.5 0t34.5 -14.5t14 -29q0 20 14 32t35 15.5
t41.5 0t34.5 -15.5t14 -32q15 13 30 11t25.5 -13t11 -26.5t-13.5 -28.5q38 0 50.5 -11t0 -22t-50.5 -11q23 -6 30.5 -24.5t2 -38.5t-21 -32.5t-38.5 -6.5q21 -10 27 -24.5t0 -27.5t-21 -18t-36 5q24 -12 30.5 -31t-1.5 -36t-26.5 -24t-43.5 4q26 -12 33.5 -28t1.5 -30
t-24 -18t-43 8q23 -11 30 -27t0.5 -29.5t-23 -18.5t-39.5 6q25 -12 33 -27.5t2 -28.5t-23 -17t-43 8q24 -11 30.5 -26t0.5 -28t-22 -17.5t-39 6.5q4 -27 -11.5 -43t-39 -19.5t-43 7t-23.5 37.5q0 -26 -14 -38t-30 -8.5t-23.5 25.5t4.5 63z" />
    <glyph glyph-name="eight" unicode="8" horiz-adv-x="712" 
d="M327 21q-4 -23 -20.5 -32t-36 -6.5t-33 16t-9.5 36.5q-11 -31 -23.5 -38t-19 6.5t4.5 44.5q-14 -22 -32.5 -26t-33 5.5t-18.5 27.5t10 40q-15 -6 -28.5 4t-24 28t-15 38t-0.5 36.5t18 22.5q-34 7 -42 22.5t6 25.5t47 3q-11 13 -4 31.5t24 35t35 22.5q-1 14 8 31
q-23 -22 -38 -21t-15 16t23 37q-18 -1 -28 18.5t-12 46.5t6 47.5t26 22.5q-29 19 -30 38.5t17.5 26.5t47.5 -12q-13 25 -4 45.5t29.5 31t42.5 6t35 -30.5q-2 21 12 35t35.5 20t43.5 3.5t38 -14t18 -32.5q3 31 16 40t24 -2.5t8 -42.5q8 23 31 27.5t47 -5t38 -28t6 -41.5
q16 9 33 -3t28.5 -33.5t12.5 -42.5t-16 -30q19 -5 24.5 -23t1 -38.5t-17 -35.5t-30.5 -14q35 -6 43.5 -24.5t-7.5 -31.5q1 -6 -3 -16t-14 -22q18 4 32 -7t22.5 -30.5t9.5 -40.5t-7.5 -37.5t-26.5 -20.5q19 -13 18 -35.5t-15 -43t-34.5 -29.5t-39.5 5q6 -17 -4 -32t-29 -25.5
t-40.5 -14.5t-39 1t-23.5 22q2 -28 -9.5 -42.5t-30 -15.5t-37.5 12t-31 42zM418 423q-13 6 -14 18.5t5 25.5t17 19q-13 4 -17 15.5t3 21.5q-8 -2 -13 3.5t-2 14.5q-13 -9 -36 -9.5t-38 9.5q2 -17 -8.5 -36t-25.5 -27q8 -4 10 -12t-2 -16q14 4 35.5 -0.5t44 -12.5t41.5 -14z
M407 140q-15 16 -7.5 29.5t21.5 13.5q-9 13 -9 34.5t9 35.5q-7 -2 -10 2.5t-1 12.5q-13 -10 -31 -4t-24 21q-6 -15 -25 -24.5t-36 -6.5q7 -11 2.5 -22t-18.5 -13q11 -7 16.5 -21.5t1.5 -25.5q14 6 34.5 2.5t41 -13.5t35.5 -21z" />
    <glyph glyph-name="nine" unicode="9" horiz-adv-x="683" 
d="M164 17q-21 16 -19.5 40.5t17.5 45.5t39 29.5t44 -7.5q-30 23 -32.5 40.5t15.5 20.5t48 -19q-13 9 -16 22t1 25q-29 3 -53 15.5t-22 31.5q-12 -20 -27 -24t-27.5 3t-15.5 23t9 35q-20 -13 -40 -3.5t-33.5 29.5t-14 42t19.5 35q-31 -3 -43 10.5t-3 29.5t40 19
q-25 8 -32 28.5t0 42.5t25 34t43 4q-17 17 -18 33t9 26t26 9.5t33 -16.5q-12 25 -2 45.5t31 30t42.5 4t33.5 -31.5q-2 23 15 36t40.5 15t42.5 -8t21 -33q5 28 25.5 38.5t44 6.5t39 -21t10.5 -44q12 21 32 23.5t37.5 -7.5t25 -28.5t-4.5 -39.5q26 22 41.5 21t14 -17
t-26.5 -38q25 10 42 2t23 -24t-1.5 -33.5t-32.5 -26.5q28 0 42 -10.5t13.5 -23.5t-14.5 -22.5t-42 -9.5q26 -12 31 -35t-5.5 -45.5t-31.5 -34t-47 0.5q20 -14 22.5 -30.5t-6.5 -29t-25.5 -15t-35.5 11.5q31 -23 33.5 -42.5t-17 -23.5t-51.5 19q24 -17 27.5 -36.5t-7 -33.5
t-30 -16t-42.5 16q27 -21 29 -37.5t-14.5 -19t-43.5 17.5q30 -22 31 -42t-18 -24t-49 18q5 -27 -4.5 -42.5t-25 -18.5t-30 8.5t-19.5 38.5q0 -31 -12 -41.5t-23.5 0t-11.5 41.5q0 -32 -10 -42.5t-20 0t-10 42.5q0 -35 -13.5 -47.5t-26 -3.5t-9.5 38zM306 388q11 8 24.5 3
t19.5 -21q-1 17 12.5 25t26.5 0q-4 16 2.5 37.5t19.5 32.5q-19 3 -37.5 22t-19.5 38q-9 -9 -23 -10t-23 6q7 -17 1.5 -23.5t-16.5 0.5q4 -16 -3 -34.5t-22 -25.5q11 -2 15.5 -11.5t-0.5 -18.5q12 5 19.5 -1t3.5 -19z" />
    <glyph glyph-name="colon" unicode=":" horiz-adv-x="322" 
d="M72 429q-22 0 -32.5 17t-10.5 39t10.5 39t32.5 17q-1 20 14.5 27.5t31 1t15.5 -26.5q0 22 11.5 33t26.5 11t26 -11t11 -33q11 8 22.5 3t19.5 -16.5t9 -24t-9 -20.5q19 0 28.5 -15t9.5 -35t-9.5 -35t-28.5 -15q24 -33 17 -38t-31 28q0 -16 -16.5 -23.5t-38.5 -7.5t-39 7.5
t-17 23.5q0 -22 -12.5 -26.5t-26 13.5t-14.5 67zM72 83q-23 0 -30.5 12t0 24t30.5 12q-11 6 -10.5 18.5t8 25t18.5 18.5t22 0q-1 13 13.5 21.5t36 12t43.5 2t37 -9t16 -20.5q15 -1 22 -15.5t6 -32.5t-9.5 -31.5t-24.5 -12.5q13 -4 15 -18.5t-3 -30.5t-15 -26.5t-23 -6.5
q0 -15 -15 -23t-37.5 -8.5t-45 8.5t-38 29t-16.5 52z" />
    <glyph glyph-name="semicolon" unicode=";" horiz-adv-x="325" 
d="M86 433q-17 -1 -26 16t-10.5 40t6 41t24.5 19q1 16 15.5 24t32.5 6.5t31 -10.5t12 -26q0 22 14 33t32 11t31.5 -11t13.5 -33q20 0 30.5 -15.5t11 -36.5t-9.5 -37.5t-30 -16.5q20 2 31 -7.5t12 -23t-8 -24.5t-29 -13q-1 -16 -15 -23.5t-31 -6.5t-29.5 10.5t-11.5 25.5
q0 -14 -14.5 -20.5t-33.5 -1t-33.5 24.5t-15.5 55zM49 -24q-22 4 -30 22t-4.5 40t16.5 37t35 12q-20 3 -24.5 17.5t4.5 27.5t28 10q-13 7 -13.5 20.5t6.5 25.5t19 17.5t25 -2.5q0 14 12 21t28 7t28 -7t12 -21q9 15 25 12.5t26 -15t1 -27.5q14 -6 14.5 -26.5t-9 -44
t-23.5 -38.5t-28 -9q15 -6 18.5 -19t-1.5 -26.5t-16.5 -20.5t-26.5 -1q4 -13 -7 -25t-29 -19t-37 -7.5t-33.5 9t-15.5 30.5z" />
    <glyph glyph-name="less" unicode="&#x3c;" horiz-adv-x="538" 
d="M442 32q-13 -19 -25 -19.5t-16.5 11t8.5 30.5q-8 -13 -26 -11.5t-39 12t-38.5 26t-25.5 31.5t1 28q-15 -22 -31.5 -21.5t-23 15.5t8.5 38q-12 -17 -32 -15.5t-38.5 14t-27.5 30.5t2 35q-11 -16 -28.5 -16.5t-33 10.5t-22 27t4.5 33q-15 2 -20.5 16t-3 30.5t12 28
t25.5 8.5q-10 15 -4 29.5t20 24.5t30 10t26 -15q-11 17 -5 29t19.5 13.5t24.5 -15.5q-8 13 -2 28.5t21.5 30t34.5 23.5t36 9t26 -13q-10 14 -2 29t24 26t33.5 12.5t26.5 -12.5q-13 19 -8 31t18.5 12t25.5 -18q13 12 27.5 5t20.5 -22t-7 -27q18 0 27.5 -11t9.5 -25
t-9.5 -24.5t-27.5 -10.5q14 -16 9 -34.5t-21 -33t-35.5 -17.5t-33.5 12q10 -16 -3 -35.5t-37.5 -35.5t-48.5 -21q-1 -4 -3 -7q14 6 30.5 1.5t29.5 -16t17.5 -27t-5.5 -31.5q9 13 25.5 12.5t32.5 -10.5t24 -24.5t-1 -28.5q16 2 27 -16t15 -43.5t-1 -46t-21 -23.5
q20 2 27 -9.5t-3.5 -22t-41.5 -3.5z" />
    <glyph glyph-name="equal" unicode="=" horiz-adv-x="563" 
d="M77 459q-13 16 -8.5 28t17 13t25.5 -15q0 27 11 36t21.5 0t10.5 -36q0 13 14.5 20.5t35 10.5t41 0t34.5 -10.5t14 -20.5q0 21 10.5 31.5t24 10.5t23.5 -10.5t10 -31.5q0 21 11 31t25 10t24.5 -10t10.5 -31q-2 29 11.5 40t29.5 3t19 -37q17 -1 25 -13t7 -26t-10.5 -24
t-27.5 -9q11 -13 6.5 -28t-17.5 -25.5t-28.5 -12t-26.5 11.5q0 -13 -15 -20.5t-37.5 -10t-45 0t-37.5 10t-15 20.5q0 -22 -16 -29.5t-32 0t-16 29.5q0 -14 -12 -21t-27.5 -7t-27.5 7t-12 21q0 -13 -7.5 -18.5t-17 3t-17 34.5t-8.5 75zM77 141q-21 0 -32 14.5t-11.5 34.5
t10 35t31.5 16q2 19 15 23.5t24 -2.5t9 -25q1 16 14.5 24t30 8t29.5 -8.5t13 -25.5q0 14 17 20.5t39 6.5t38.5 -6.5t16.5 -20.5q0 15 20.5 22t47 7t47 -7t20.5 -22q13 5 24.5 -4t17 -24.5t3.5 -30t-15 -19.5q5 -11 -5 -22.5t-27 -20t-32.5 -9.5t-20.5 10q0 -19 -16.5 -29
t-37.5 -10t-37.5 10t-16.5 29q0 -22 -10.5 -32.5t-24.5 -10.5t-25 10.5t-11 32.5q0 -28 -13 -37.5t-26 0t-13 37.5q0 -21 -13.5 -31.5t-32 -8t-32.5 18.5t-15 47z" />
    <glyph glyph-name="greater" unicode="&#x3e;" horiz-adv-x="538" 
d="M78 126q-12 4 -14.5 16.5t2 27t14 23t21.5 4.5q-8 13 -1.5 26.5t20.5 22.5t29 9t23 -14q-14 24 0 44t35 24q-12 20 1 40q-20 -1 -39.5 11t-29 31t2.5 38q-14 -10 -30.5 -0.5t-29 28t-15.5 37.5t11 28q-16 0 -23.5 18t-7.5 41.5t7.5 41.5t23.5 18q18 21 35 18.5t22 -18.5
t-13 -37q10 14 27 13.5t32.5 -11t22.5 -26t-3 -30.5q8 12 25.5 10t38.5 -12.5t38.5 -26t25.5 -31t1 -26.5q16 24 33 24t23 -16t-10 -40q12 18 27 21t26.5 -4.5t14.5 -23t-9 -33.5q11 9 24.5 2t24 -21.5t13.5 -29.5t-8 -23q19 -14 15.5 -31t-19 -25t-34.5 7q12 -17 4 -35
t-26.5 -30.5t-38 -13.5t-31.5 16q12 -17 5.5 -34t-23 -28t-34.5 -11t-30 18q10 -15 0 -33t-30.5 -32t-41 -16.5t-30.5 12.5q7 -11 1.5 -23.5t-19 -20t-29.5 -4t-30 24.5t-20 65z" />
    <glyph glyph-name="question" unicode="?" horiz-adv-x="653" 
d="M242 295q-15 13 -10.5 33t19.5 37.5t34 24.5t34 -6q-12 12 -5 28t21 21q-16 10 -24 32.5t-3 42.5q-13 -2 -22 4q4 -12 -3 -23t-19 -15.5t-24 4.5q0 -29 -15 -39t-30 0t-15 39q0 -19 -15 -29t-34.5 -10t-34.5 10t-15 29q-16 2 -22 19t-4 39t11.5 38t24.5 15
q-16 18 -10 34.5t22.5 20t33.5 -15.5q-12 22 -2.5 36t26.5 14t29 -22q-7 22 -1 35t18.5 17t25 -4t18.5 -29q-3 24 10.5 34t29.5 4t20 -29q1 16 16 24.5t37 10t43 -3t34.5 -15.5t12.5 -27q7 12 28 8t44 -17t37.5 -29t7.5 -27q11 1 19.5 -11.5t14 -33t7 -41.5t-3 -35.5
t-14.5 -16.5q14 -9 13.5 -25.5t-10.5 -32t-24.5 -22.5t-29.5 2q13 -12 10 -28t-15 -29t-28 -16.5t-29 8.5q3 -9 -8.5 -19.5t-31 -19.5t-40.5 -14.5t-37 -5t-19 9.5q0 -18 -17.5 -26.5t-40 -7t-37 14t-8.5 36.5zM234 51q-13 0 -21 14t-11 35.5t-0.5 43t10 36t20.5 14.5
q0 17 20.5 24.5t46.5 6t45.5 -10.5t18.5 -26q12 8 26 0.5t25.5 -22.5t14.5 -31t-8 -25q21 0 31 -11t10 -26t-10 -26.5t-31 -11.5q6 -23 -1.5 -33t-19 -5t-17.5 28q0 -16 -15 -25t-37 -11t-44 3.5t-37 20t-16 38.5z" />
    <glyph glyph-name="at" unicode="@" horiz-adv-x="856" 
d="M363 -106q-6 -18 -23 -24.5t-38.5 -4t-41 12.5t-30 25t-4.5 33q-15 -21 -32.5 -24.5t-30.5 6t-15 27t13 38.5q-26 -23 -42 -22.5t-14.5 16.5t27.5 39q-26 -13 -46.5 -5.5t-29.5 25.5t-3 38.5t33 33.5q-23 -2 -38.5 12.5t-23 37t-5 46.5t14.5 41t35 20q-28 1 -41 17.5
t-12 37t15 36t42 14.5q-19 7 -25.5 25t-3 40t15 41.5t28 29t35.5 2.5q-20 20 -16 44t22 41.5t41.5 20.5t43.5 -17q-11 24 -4 42.5t23.5 26t34.5 1t30 -30.5q-5 26 5.5 41.5t27.5 18.5t32.5 -7.5t20.5 -36.5q0 24 9.5 35.5t22.5 12t23 -11t11 -34.5q2 25 12.5 37.5t23 11.5
t21.5 -14.5t7 -39.5q5 25 22 34t36 5t30.5 -19.5t5.5 -40.5q15 35 29 42.5t18.5 -8t-10.5 -50.5q17 21 38 21t37.5 -13.5t21 -34t-12.5 -41.5q18 8 34.5 0t28.5 -25.5t16.5 -38t0 -38t-22.5 -25.5q19 1 31.5 -12t18 -34t3.5 -42t-12.5 -36t-29.5 -17q23 -4 32.5 -19.5t7 -34
t-17 -30.5t-37.5 -8q11 -14 2.5 -32t-26.5 -32t-37.5 -18t-30.5 11q1 -25 -13 -34t-28.5 -1t-15.5 32q-5 -17 -21 -23.5t-36 -4t-37.5 12t-24.5 23.5q-5 -18 -23.5 -29t-38.5 -9.5t-29 20.5q-8 -22 -29.5 -27t-45 3t-37.5 25t-7 39q-21 -8 -36.5 2t-22.5 28.5t-2 36.5t25 26
q-27 -2 -36.5 9.5t-1 23.5t35.5 14q-26 2 -33.5 16t2.5 26t36 10q-18 6 -23 19t-0.5 25.5t17 19t29.5 0.5q-5 14 5.5 27t29 23t39 14.5t37 1t21.5 -17.5q4 19 17 26.5t28 4.5t24 -15.5t5 -31.5q4 18 19 24.5t32 2t27 -16.5t6 -30q19 0 28.5 -15t9.5 -34.5t-9.5 -34.5
t-28.5 -15q23 0 34.5 -12.5t10 -29t-14.5 -26.5q23 -1 27 -22q8 5 16 1q2 10 10 13.5t19 -1.5q-5 17 -1.5 36.5t13.5 34t26 15.5q-18 2 -28.5 16t-13.5 33t3 36t20 25q-17 -1 -34.5 17t-27 41t-2.5 40q-13 -9 -34 -7.5t-43 10t-37 22t-16 28.5q-5 -17 -21.5 -25t-36 -7
t-35 11t-17.5 27q-2 -19 -20 -28.5t-38 -7.5t-29 17q5 -21 -7 -35.5t-31 -17.5t-33 10q8 -15 3 -28t-18 -17.5t-28 4.5q12 -15 7.5 -38t-19.5 -41t-34 -16q14 -6 19 -20.5t2.5 -30.5t-12 -26.5t-25.5 -9.5q21 -1 32 -18t12.5 -40t-7.5 -42t-29 -24q27 3 31.5 -11.5
t-16.5 -24.5q15 1 30 -10.5t27 -29.5t16.5 -37t-1.5 -33q15 12 31 9t25 -16.5t3 -32.5q10 14 29.5 17t40 -2t34.5 -17.5t13 -30.5q3 15 20.5 23t39.5 8.5t40.5 -6t23.5 -20.5q-1 16 18 31t45 24t49 8t29 -17q0 27 13.5 36.5t27.5 1.5t13 -32q-1 21 6.5 28.5t16 0t10.5 -31.5
q18 -22 16.5 -42t-15.5 -31.5t-34 -9.5t-38 24q7 -19 -2.5 -35.5t-29 -28t-41.5 -15.5t-40 1.5t-25 24.5q4 -31 -5 -43t-21.5 -3t-17.5 39q3 -51 -39.5 -52t-105.5 54zM367 217q20 4 46.5 -9t42.5 -29q-5 12 0.5 26.5t17.5 25t25 11.5q-11 7 -14 22t1.5 29t16.5 20
q-10 -1 -15 4t-4 11q-15 -7 -33 0t-27 22q-8 -16 -27.5 -26t-36.5 -6q6 -12 6.5 -29.5t-4.5 -33t-15 -21.5q13 2 19 -4t1 -13z" />
    <glyph glyph-name="A" unicode="A" horiz-adv-x="755" 
d="M55 94q-34 12 -42.5 25.5t6.5 19t49 -6.5q-25 9 -33 26.5t-2 34.5t23 25.5t43 -0.5q-26 9 -32.5 32t1.5 46.5t27.5 37.5t45.5 5q-23 8 -28.5 27.5t1.5 40.5t24 33t40 4q-22 8 -26.5 30.5t4 47t26 39.5t39.5 7q-16 10 -15.5 30t12.5 40.5t29 31t34 0.5q0 36 12 47.5
t23.5 0t11.5 -47.5q0 21 15 33.5t37.5 16.5t45 0t37.5 -16.5t15 -33.5q21 13 38.5 9t26.5 -18t5.5 -31.5t-25.5 -31.5q25 9 43.5 -5.5t27.5 -39t3 -47.5t-30 -32q32 12 48 0.5t10.5 -30.5t-37.5 -30q28 10 41 3t7.5 -20.5t-34.5 -23.5q30 10 44 1.5t8.5 -24t-35.5 -26.5
q18 6 33.5 -4.5t26.5 -30.5t15 -42.5t-1.5 -40.5t-23.5 -25q20 7 36 -2t27 -27.5t14 -39.5t-4 -38t-27 -24q9 -24 -2.5 -37t-28.5 -10t-26 27q0 -27 -12 -40.5t-27.5 -13.5t-27.5 13.5t-12 40.5q-15 -14 -33 -8.5t-31.5 21.5t-15.5 34q-11 -16 -25.5 -17.5t-24.5 10.5t-8 36
q-7 -24 -30.5 -33t-48.5 -3t-36 26q2 -25 -15.5 -38t-40 -8.5t-34.5 34.5q9 -19 -2.5 -36.5t-33 -28t-42 -9.5t-30.5 20q0 -35 -12.5 -47t-25.5 0t-13 47q0 -24 -7.5 -35t-15.5 -5t-9.5 31t10.5 73zM344 256q0 15 13.5 23t31.5 9t32 -4q-1 9 4.5 18.5t15.5 13.5
q-16 3 -23.5 18t-4 30.5t21.5 21.5q-17 -6 -31 12t-18 40q-9 -7 -20 -11.5t-20 -2.5q11 -11 8.5 -29.5t-14.5 -31.5t-29 -8q13 -4 16 -21t3 -36.5t2 -32.5t12 -9z" />
    <glyph glyph-name="B" unicode="B" horiz-adv-x="734" 
d="M85 159q-27 0 -41 16.5t-14 39t14 39t41 16.5q-25 0 -38 16t-13 36.5t13 36t38 15.5q-19 0 -30.5 14.5t-15 36t0 42.5t15 35.5t30.5 14.5q-35 0 -47 16t0 32t47 16q-22 2 -32.5 16t-9.5 31.5t13 30t34 11.5q0 29 17 44t39 15t39 -15t17 -44q0 20 15.5 31.5t38 15.5t45 0
t38 -15.5t15.5 -31.5q0 29 14 43.5t32.5 14.5t32 -14.5t13.5 -44.5q3 26 14.5 37.5t25 10t22.5 -15.5t6 -39q9 32 24 40t23.5 -6.5t-0.5 -46.5q14 17 33 17t34 -12.5t19.5 -30.5t-9.5 -36q27 6 43.5 -5.5t21 -30.5t-5 -37t-36.5 -24q23 -8 31 -22t3 -27t-20 -19t-38 3
q23 -30 20 -48.5t-22 -17.5t-42 31q11 -14 12 -29q26 -10 45 -32t7 -43q24 6 39 -0.5t18.5 -19.5t-5.5 -26t-33 -20q28 -6 39.5 -22t8 -33.5t-20 -28.5t-45.5 -5q20 -19 20 -39t-13 -33.5t-33 -14t-40 18.5q13 -31 8.5 -45.5t-18.5 -8t-27 37.5q3 -22 -11.5 -37t-37 -22
t-46 -5t-40.5 13.5t-20 33.5q0 -27 -16 -41t-37.5 -14t-37.5 14t-16 41q0 -23 -12.5 -34.5t-29.5 -11.5t-29.5 11.5t-12.5 34.5q0 -19 -12.5 -28.5t-31.5 -7.5t-37.5 19t-31 52.5t-11.5 93.5zM275 475q16 0 23.5 -13.5t9.5 -29.5t2 -23q2 16 14 22t25 1.5t16 -18.5
q-2 18 17 26.5t34 1.5q-2 11 4.5 22.5t18.5 15.5q-10 6 -15.5 19.5t-3.5 24.5q-8 -6 -13.5 -2t-3.5 15q-12 -15 -35.5 -13.5t-33.5 17.5q0 -12 -9 -20.5t-21 -8.5q5 -12 -2.5 -24.5t-26.5 -12.5zM366 142q-1 17 13.5 23.5t28.5 2.5q-5 17 2.5 36.5t22.5 29.5q-16 7 -29 21.5
t-15 29.5q-8 -13 -26 -16t-34 2q3 -16 -8.5 -30t-29.5 -12q15 -9 20 -29t2 -36q15 7 34 1.5t19 -23.5z" />
    <glyph glyph-name="C" unicode="C" horiz-adv-x="733" 
d="M300 24q-7 -24 -26 -32t-39.5 -2.5t-33 22t-5.5 41.5q-18 -30 -36 -32.5t-24 15t12 46.5q-18 -13 -37.5 -4.5t-32.5 28t-14 40.5t17 34q-32 -9 -45.5 -2t-5 19.5t41.5 20.5q-27 -1 -41 12t-15.5 31.5t11 33.5t39.5 17q-23 0 -34.5 19.5t-11.5 44t12 43.5t35 19
q-16 6 -20.5 24t-0.5 40.5t15 43t25.5 32t30.5 5.5q-14 19 -8 38t23 32t37 13.5t34 -18.5q-4 21 7.5 36.5t31.5 24t42 9t38.5 -8.5t21.5 -30q1 25 18 37t38.5 11t37.5 -14.5t15 -38.5q8 22 28 29.5t43.5 3.5t43 -16.5t29 -31.5t1.5 -41q16 15 32 14t26.5 -12t10 -27
t-17.5 -31q22 6 37.5 -6t21.5 -31.5t-0.5 -37.5t-28.5 -25q0 -33 -9 -44t-18 0t-9 44q0 -18 -14.5 -29t-36 -14.5t-43 0t-36 14.5t-14.5 29q-20 -21 -36 -18.5t-18.5 18.5t17.5 36q-23 -26 -42.5 -24.5t-22.5 19.5q-9 -10 -17 -2q-9 -19 -27.5 -33.5t-39.5 -17.5
q17 -16 4.5 -36t-51.5 -18q34 -1 45 -11t0 -20t-45 -10q32 1 46 -10.5t9 -25.5t-29 -21q24 -3 39.5 -28t13.5 -49q6 1 10 -5q11 20 33.5 30.5t45 6.5t35.5 -28q-5 21 6.5 35t30 18.5t35.5 -2.5t22 -28q0 29 15 44t35 15t35 -15t15 -44q28 3 39 -11t3 -29.5t-37 -17.5
q20 -13 21.5 -31.5t-9.5 -35t-28.5 -23t-36.5 6.5q10 -20 -2 -39.5t-35 -31.5t-46 -11t-33 21q6 -30 -2.5 -42t-21.5 -4.5t-19 36.5q2 -35 -21 -48t-59.5 -2t-75.5 48z" />
    <glyph glyph-name="D" unicode="D" horiz-adv-x="740" 
d="M85 47q-26 0 -39 13t-13 30.5t13 31t39 13.5q-35 0 -46.5 12t0 24t46.5 12q-31 0 -41.5 11.5t0 23.5t41.5 12q-25 0 -38 17t-13 39t13 39t38 17q-30 0 -44.5 11t-14.5 25t14.5 25t44.5 11q-35 0 -47 16t0 32t47 16q-24 0 -36 18.5t-12 43t12 43t36 18.5q-15 12 -13.5 29
t12.5 30.5t27 17.5t31 -8q0 23 12.5 35t29.5 12t29.5 -12t12.5 -35q0 21 14 33.5t35 17t42 0t35 -17t14 -33.5q3 29 18.5 42.5t34.5 11.5t32.5 -18t10.5 -45q9 32 24.5 39t25 -7t0.5 -46q15 24 35 28t37 -6t22.5 -29.5t-8.5 -43.5q20 12 40 2.5t33 -30t12.5 -42.5t-20.5 -35
q35 7 48.5 -1.5t4 -21.5t-43.5 -20q21 0 34.5 -13.5t18 -34t0.5 -41.5t-16.5 -35t-33.5 -15q30 -1 40 -14.5t-1 -26t-41 -11.5q21 -7 24.5 -30t-5.5 -48.5t-26 -41t-39 -7.5q25 -23 25 -40t-16.5 -18t-41.5 23q7 -15 -3.5 -29.5t-30 -26t-41.5 -17.5t-40 -3t-24 17
q2 -23 -8 -35.5t-24 -14t-26 9.5t-14 34q0 -20 -15 -32.5t-37.5 -16.5t-45 0t-38 16.5t-15.5 32.5q0 -19 -15 -30t-37 -13.5t-44.5 3t-37 19.5t-13.5 38zM275 209q18 0 25 -15q7 14 16.5 6.5t9.5 -35.5q0 23 8 32t16.5 3.5t10.5 -24.5q2 18 18 25t30 1q-4 15 3 31t20 27.5
t28 10.5q-12 9 -17 25t-2 33t13 29t28 12q-23 -1 -33 12.5t-7 30t20 24.5q-22 -2 -29 12t6 28q-11 -3 -17 4.5t-2 19.5q-15 -11 -34.5 -3.5t-21.5 27.5q-4 -21 -19.5 -25t-25.5 8q0 -10 -6 -15t-15 -1q-8 -5 -23 -5q18 0 27 -16t9 -37.5t-9 -37.5t-27 -16q18 0 26.5 -16.5
t8.5 -37.5t-8.5 -37.5t-26.5 -16.5q26 0 35 -15.5t0 -31.5t-35 -16z" />
    <glyph glyph-name="E" unicode="E" horiz-adv-x="667" 
d="M85 127q-24 0 -36.5 16.5t-12.5 39t12.5 39t36.5 16.5q-24 0 -35.5 13t-11.5 29.5t11.5 29t35.5 12.5q-37 0 -49.5 15t0 30t49.5 15q-25 0 -38 12t-13 28t13 28t38 12q-28 0 -41.5 18t-13.5 41.5t13.5 41.5t41.5 18q-19 6 -23.5 22.5t1 34t19 28t32.5 4.5q0 31 11 41
t22 0t11 -41q0 18 15 29t37.5 14.5t45 0t38 -14.5t15.5 -29q0 32 15.5 42.5t31.5 0t16 -42.5q0 27 13 40t29.5 13t29 -13t12.5 -40q0 18 14 29t34.5 14.5t41.5 0t35 -14.5t14 -29q30 -3 39.5 -12.5t-1.5 -18t-41 -5.5q26 -3 38 -19t10 -35.5t-16.5 -33t-40.5 -11.5
q0 -32 -11 -42.5t-22 0t-11 42.5q0 -30 -15.5 -40.5t-31.5 0t-16 40.5q0 -15 -15 -24t-36.5 -11t-42.5 1.5t-32 14.5q2 -12 -2 -23t-13 -19q12 -8 19.5 -19.5t8.5 -24.5q8 12 24 16.5t33 2.5t29 -11.5t12 -25.5q0 22 11.5 33t26.5 11t26.5 -11t11.5 -33q12 31 24 38
t16.5 -6.5t-7.5 -44.5q28 -2 40.5 -20t10.5 -40t-17 -37.5t-43 -13.5q0 -15 -14.5 -24t-36 -12t-43 0t-36 12t-14.5 24q0 -20 -15 -29t-32.5 -7t-26.5 16q-1 -12 -7.5 -21t-15.5 -14q11 -10 10 -24q12 -3 21 -14t9 -30q0 18 19.5 27.5t44.5 9.5t44.5 -9.5t19.5 -27.5
q0 31 15 41t29.5 0t14.5 -41q14 20 32 18t26.5 -18t-5.5 -36q21 -8 26 -27t-2 -38.5t-23.5 -30.5t-37.5 -3q0 -27 -11.5 -40.5t-26.5 -13.5t-26 13.5t-11 40.5q0 -28 -16.5 -41.5t-37.5 -13.5t-37.5 13.5t-16.5 41.5q0 -25 -13 -37.5t-30.5 -12.5t-30.5 12.5t-13 37.5
q0 -29 -16.5 -43.5t-37.5 -14.5t-37.5 14.5t-16.5 43.5q0 -25 -15.5 -35.5t-35.5 -2t-35 41t-14 93.5z" />
    <glyph glyph-name="F" unicode="F" horiz-adv-x="646" 
d="M85 67q-22 0 -33.5 13t-11.5 30.5t11.5 31t33.5 13.5q-36 0 -48.5 13t0 25.5t48.5 12.5q-28 0 -42.5 20t-14.5 46t14.5 46t42.5 20q-30 0 -40 11t0 22t40 11q-25 0 -37.5 17t-12.5 39t12.5 39t37.5 17q-38 0 -51 9.5t0 19.5t51 10q-23 0 -34.5 17t-11.5 39t11.5 39
t34.5 17q-13 29 -3 45t28.5 12.5t31.5 -32.5q0 23 16.5 35t37.5 12t37.5 -12t16.5 -35q0 23 13.5 34t30.5 11t30.5 -11t13.5 -34q0 26 15.5 39.5t36.5 13.5t36.5 -13.5t15.5 -39.5q0 19 14.5 30t35.5 15t42 0t35 -15.5t14 -30.5q40 0 53 -12t0 -24t-53 -12q26 0 39 -13.5
t13 -30.5t-13 -30.5t-39 -13.5q5 -30 -8 -42t-28.5 -4.5t-20.5 37.5q0 -27 -14 -36t-28 0t-14 36q0 -18 -15.5 -27t-36.5 -9t-36.5 9t-15.5 27q0 -28 -9 -39t-18 -4q-3 -12 -12 -19q13 -14 9 -34q9 -3 15.5 -12.5t6.5 -25.5q0 25 12 33.5t24 0t12 -33.5q0 21 17.5 31.5
t40.5 10.5t40.5 -10.5t17.5 -31.5q20 10 36 2t24.5 -25t4.5 -34.5t-24 -26.5q14 -15 12 -31.5t-14 -28.5t-28.5 -13.5t-30.5 12.5q0 -28 -17 -42.5t-39 -14.5t-39 14.5t-17 42.5q0 -30 -19 -44.5t-40 -12.5q-5 -12 -18 -20t-33 -7q23 -4 34 -23t10 -42t-14.5 -40t-39.5 -17
q2 -23 -15 -36t-40 -15t-41.5 8.5t-19.5 33.5q0 -26 -11 -38t-25 -9t-24 23.5t-9 60.5z" />
    <glyph glyph-name="G" unicode="G" horiz-adv-x="753" 
d="M243 36q-13 -30 -31.5 -34.5t-29.5 12t2 46.5q-15 -18 -32 -20t-29.5 8t-14 27t13.5 35q-22 -10 -39.5 0t-27 30t-6 40t24.5 30q-28 -2 -43.5 11t-17 31.5t11.5 33.5t41 17q-24 0 -36.5 16.5t-12.5 38t12.5 38t36.5 16.5q-16 3 -22 20.5t-4 40.5t10 44.5t21 34.5t29 10
q-17 18 -12.5 39.5t22 37.5t39 18.5t38.5 -15.5q-12 31 -5.5 46t22 9t28.5 -37q-8 31 4.5 45t29.5 7t24 -38q-1 26 14.5 40t37 15t38.5 -11t18 -38q3 26 14.5 38.5t25 11t22.5 -16t6 -41.5q6 22 24 29t37 1t30 -21t5 -37q14 19 36 17t41.5 -17t27 -35.5t-7.5 -39.5
q20 -2 28.5 -14t7 -26.5t-12 -25t-29.5 -8.5q0 -14 -15.5 -23t-37.5 -11.5t-44.5 0t-37.5 11.5t-15 23q-8 -19 -25.5 -25.5t-38 -2.5t-38 15t-25.5 27q-7 -16 -23.5 -25t-33.5 -7q8 -18 -3 -37t-37 -18q20 -5 24.5 -18.5t-5 -25.5t-32.5 -11q27 0 36.5 -15.5t1.5 -30.5
t-33 -15q22 0 33 -12.5t11 -29.5t-12 -28q14 0 24.5 -9t13.5 -22q15 16 37 17t38 -12q-1 11 5.5 15t17.5 0l-1 1q-18 8 -26.5 28t7.5 42q-28 0 -37.5 13t0 25.5t37.5 12.5q-29 0 -38.5 11t0 22t38.5 11q0 16 14 26t35 13.5t42 0.5t35 -13t14 -26q2 19 22.5 26.5t46 5t44 -14
t16.5 -30.5q29 0 44 -12t15 -27.5t-15 -27.5t-44 -12q28 -1 41 -16.5t12 -34.5t-16 -32t-43 -11q19 -11 19.5 -33t-11 -43t-30.5 -31.5t-39 0.5q14 -25 7.5 -45t-25 -31t-39.5 -7.5t-36 28.5q10 -35 -0.5 -50t-27.5 -7t-26 42q3 -31 -26.5 -43t-83 -0.5t-121.5 50.5z" />
    <glyph glyph-name="H" unicode="H" horiz-adv-x="772" 
d="M85 139q-25 0 -37.5 11.5t-12.5 26.5t12.5 26t37.5 11q-34 0 -45.5 11t0 22t45.5 11q-25 0 -37 11.5t-12 26.5t12 26.5t37 11.5q-29 0 -43.5 17.5t-14.5 40.5t14.5 40.5t43.5 17.5q-26 0 -39 18.5t-13 43t13 43t39 18.5q-24 1 -35.5 15.5t-11.5 33.5t12 33.5t36 14.5
q0 30 14 44.5t32 14.5t32 -14.5t14 -44.5q0 28 13.5 42t30.5 14t30.5 -14t13.5 -42q31 5 43 -6.5t4.5 -26.5t-38.5 -20q34 0 48.5 -18.5t9.5 -40t-29 -31.5q18 -3 29.5 -17.5t13.5 -31.5q20 12 46.5 10t42.5 -19q1 17 14 22q-10 18 1.5 38t45.5 20q-30 0 -44.5 18t-14.5 42
t14.5 42t44.5 18q0 25 14 38t32 13.5t32.5 -12.5t14.5 -38q0 29 11 44t25 15t25 -15t11 -44q18 4 31 -8.5t18 -32.5t-0.5 -37.5t-23.5 -22.5q29 0 43 -19.5t14 -46t-14 -46t-43 -19.5q30 0 44.5 -18t14.5 -42t-14.5 -42t-44.5 -18q30 0 44.5 -19t14.5 -44.5t-14.5 -45
t-44.5 -19.5q32 0 42.5 -9.5t0 -19.5t-42.5 -10q23 0 34.5 -13t11.5 -29.5t-11.5 -29t-34.5 -12.5q9 -20 1 -35.5t-24 -22.5t-32.5 -3t-25.5 24q1 -26 -15.5 -39.5t-38 -14t-38 12t-17.5 38.5q-20 0 -31 18t-13.5 42.5t4.5 47t24 31.5q-31 -5 -48.5 16.5t-13.5 46.5
q-37 -12 -72 1q2 -12 -5.5 -21t-21.5 -11q18 -13 7 -30.5t-52 -17.5q39 0 51.5 -11t0 -22t-51.5 -11q24 0 36.5 -11t12.5 -26t-12.5 -26.5t-36.5 -11.5q1 -38 -8 -50.5t-18.5 0t-10.5 49.5q0 -24 -11 -35.5t-25 -11.5t-25 11.5t-11 35.5q0 -39 -11 -52t-22 0t-11 52
q0 -26 -6 -37.5t-13.5 -1.5t-13 45.5t-4.5 102.5z" />
    <glyph glyph-name="I" unicode="I" horiz-adv-x="368" 
d="M85 35q-20 0 -32.5 15.5t-16.5 39t0 46.5t16.5 38.5t32.5 15.5q-19 0 -30.5 15t-15 37t0 44t15 37t30.5 15q-30 0 -44.5 10.5t-14.5 23.5t14.5 23.5t44.5 10.5q-19 0 -30 15t-14.5 37t0 44t14.5 36.5t30 14.5q-39 0 -52.5 13t0 26t52.5 13q-14 15 -11.5 32t15.5 29.5
t30 15t31 -11.5q0 27 12.5 40.5t29.5 13.5t29.5 -13.5t12.5 -40.5q19 14 36 10.5t27 -17t7.5 -31t-21.5 -31.5q24 0 36.5 -14.5t12.5 -33.5t-12.5 -33t-36.5 -14q38 0 50.5 -10t0 -20t-50.5 -10q23 0 34 -11.5t11 -26.5t-11 -26.5t-34 -11.5q29 0 43.5 -17.5t14.5 -40.5
t-14.5 -40.5t-43.5 -17.5q35 0 46.5 -13t0 -26t-46.5 -13q19 0 30.5 -14.5t15 -36.5t0 -44t-15 -37t-30.5 -15q11 -16 6.5 -30.5t-17.5 -23.5t-28 -8t-26 17q0 -20 -13.5 -31.5t-34 -15.5t-40.5 0.5t-33 17.5t-12 34z" />
    <glyph glyph-name="J" unicode="J" horiz-adv-x="702" 
d="M231 31q-7 -15 -25.5 -16.5t-40 6t-39.5 21t-27 29.5t-1 30q-17 -8 -34 5t-28 35.5t-11 44t16 29.5q-31 37 -23.5 43t38.5 -31q0 31 11 41t22 0t11 -41q0 30 14.5 44.5t33.5 14.5t33.5 -14.5t14.5 -44.5q9 14 25.5 16t34 -5t32 -20t18.5 -29q6 18 18 24.5t24 1.5
q2 21 16.5 39t34.5 20q-26 9 -31.5 31t8.5 41t48 19q-26 0 -39 14.5t-13 33t13 33t39 14.5q-20 0 -33 4t-18 10q-4 2 -3 8v1q-20 -7 -41 4t-21 40q0 -34 -16 -45.5t-31.5 0t-15.5 45.5q0 -24 -17.5 -36t-40.5 -12t-40.5 12t-17.5 36q-19 -6 -33.5 3.5t-20 27t0 34t24.5 22.5
q-18 16 -19.5 32t8.5 27t26 11.5t34 -14.5q0 26 18 38.5t41.5 12.5t41.5 -12.5t18 -38.5q0 20 15.5 31.5t39 15.5t46.5 0t38.5 -15.5t15.5 -31.5q0 24 11.5 36t26.5 12t26.5 -12t11.5 -36q0 27 11.5 41t26 14t26 -13t11.5 -40q-1 31 10.5 42t24 1t14.5 -42q23 0 34.5 -18
t11.5 -42t-11.5 -42t-34.5 -18q37 0 49.5 -11t0 -22t-49.5 -11q26 0 39.5 -18t13.5 -41.5t-13.5 -41.5t-39.5 -18q27 0 40 -20t13 -46t-13 -46t-40 -20q25 -4 35.5 -19t7.5 -32.5t-17.5 -28.5t-39.5 -6q13 -12 12.5 -29.5t-11 -35.5t-26.5 -31.5t-33 -17.5t-30 7
q8 -23 -4.5 -40.5t-34 -25t-42.5 -2t-29 29.5q3 -31 -21.5 -42.5t-66 -1t-92.5 47.5z" />
    <glyph glyph-name="K" unicode="K" horiz-adv-x="715" 
d="M85 175q-30 0 -44.5 12.5t-14.5 29t14.5 29t44.5 12.5q-25 0 -37.5 20.5t-12.5 47.5t12.5 47.5t37.5 20.5q-23 0 -37 14t-19 35t0 41.5t19 34.5t37 14q-28 0 -42.5 12.5t-14.5 28t14.5 27.5t42.5 12q-14 13 -12.5 28t12 26t25 13.5t28.5 -10.5q2 29 23 42.5t47 11.5
t45 -18t17 -45q22 0 33 -15t11 -34.5t-11 -34.5t-33 -15q30 0 41 -9.5t3 -18.5q20 8 36 -1q-9 13 -4.5 33t16.5 38.5t28 27.5t32 1q-9 17 -2.5 31t20.5 21t29 4.5t23 -19.5q0 25 19 39t44.5 15.5t47.5 -8t29 -31.5q-5 45 8 43.5t23 -53.5q20 -12 24 -27t-3 -27t-22.5 -15.5
t-35.5 8.5q20 -12 22 -31t-8.5 -36.5t-28.5 -25.5t-37 4q22 -13 25.5 -33t-7 -38t-30 -24.5t-41.5 7.5q24 -14 27 -34.5t-9 -34.5q13 -9 9 -28.5t-33 -36.5q20 12 39.5 6t35 -23t23 -39t3.5 -42t-24 -32q33 20 49 17.5t10 -17.5t-38 -34q20 12 38.5 5t29 -25t8 -37.5
t-22.5 -31.5q51 3 51.5 -7t-50.5 -13q0 -22 -15 -35t-37 -17.5t-44 0t-37 17.5t-15 35q-9 -19 -28 -21t-37 7t-27.5 25.5t0.5 34.5q-15 -8 -32 2.5t-30 30.5t-18.5 41.5t1.5 35.5q-18 -13 -39 -5q5 -20 2 -42t-13 -37.5t-28 -15.5q13 -14 11 -30t-14 -27t-28 -12t-30 13
q0 -20 -12.5 -30.5t-31.5 -8t-37.5 21.5t-31 58.5t-11.5 103.5zM295 525h2t2 1z" />
    <glyph glyph-name="L" unicode="L" horiz-adv-x="626" 
d="M85 151q-36 0 -48 10t0 19.5t48 9.5q-28 0 -42 13t-14 29.5t14 29t42 12.5q-27 0 -40 11t-13 25t13 25t40 11q-24 0 -36.5 15t-12.5 35t12.5 35t36.5 15q-35 0 -47 14t0 28t47 14q-30 0 -44.5 12.5t-14.5 29t14.5 29t44.5 12.5q-17 8 -20 24.5t4.5 33t21.5 25.5t31 2
q0 24 15 35.5t35 11.5t35 -11.5t15 -35.5q11 15 25 16.5t25 -6.5t14.5 -22t-7.5 -29q26 0 39.5 -17.5t13.5 -40t-13.5 -40t-39.5 -17.5q25 0 37.5 -17t12.5 -39t-12.5 -39t-37.5 -17q34 0 45 -10t0 -20t-45 -10q34 0 47 -13t4.5 -27.5t-37.5 -18.5q27 -1 41.5 -25t12.5 -49
q20 5 41 1t35.5 -18t14.5 -37q0 22 14.5 35t35 17t41.5 0t35 -17t14 -35q26 2 40 -8t15 -24.5t-11.5 -26.5t-38.5 -13q16 -15 14.5 -33t-14.5 -32.5t-31 -18t-34 10.5q0 -24 -17 -35.5t-39 -11.5t-39 11.5t-17 35.5q0 -25 -18.5 -38t-43.5 -13t-43.5 13t-18.5 38
q0 -25 -18 -38t-42 -13t-42 13t-18 38q0 -30 -12 -42.5t-27.5 -1.5t-27 50.5t-10.5 114.5z" />
    <glyph glyph-name="M" unicode="M" horiz-adv-x="856" 
d="M85 159q-30 0 -44.5 19t-14.5 44.5t14.5 44.5t44.5 19q-18 0 -29 15t-15 37t0 44t15 37t29 15q-29 0 -43.5 19.5t-14.5 46t14.5 46t43.5 19.5q-38 0 -50.5 15t0 30t50.5 15q-31 0 -41.5 12t0 24t41.5 12q1 24 17 35.5t36.5 11t35.5 -13t15 -36.5q7 17 22.5 20.5t31.5 -3
t24.5 -20t1.5 -30.5q23 13 41.5 7.5t28.5 -21.5t6 -35t-26 -33q29 18 44.5 14.5t11.5 -18.5t-34 -33q27 16 46.5 7t24.5 -29t-13 -39q15 9 31 3q9 15 25.5 21.5t34.5 -4.5q-23 14 -28 31t3.5 30.5t26 16.5t39.5 -10q-23 14 -28.5 30t1.5 28t24 14.5t40 -11.5q-23 15 -29 32
t2 29t25.5 14t41.5 -13q-1 24 14 36.5t34.5 13t34.5 -11.5t16 -36q9 17 23 20.5t26.5 -3t18 -20t-3.5 -30.5q37 0 49 -15t0 -30t-49 -15q35 0 46.5 -14t0 -28t-46.5 -14q30 0 40 -15.5t0 -31.5t-40 -16q22 0 35.5 -15t18 -37t0 -44t-18 -37t-35.5 -15q24 0 36 -11t12 -25
t-12 -25t-36 -11q22 0 35 -15.5t17.5 -38.5t0 -46.5t-17.5 -39t-35 -15.5q39 0 52 -10t0 -20t-52 -10q3 -26 -11 -41t-34.5 -17.5t-37.5 8.5t-20 37q-8 -21 -23 -27t-29.5 0t-21 20.5t1.5 35.5q-38 0 -50.5 12t0 23.5t50.5 11.5q-28 0 -42.5 19.5t-16 45.5t10.5 47.5
t38 25.5q-22 0 -30 17q-10 -4 -16 6q-12 2 -25 10q17 -12 16.5 -30t-11.5 -33.5t-27.5 -21.5t-33.5 6q-10 -17 -31 -16.5t-42.5 13t-33 30t-1.5 35.5q-8 -5 -16 -8q-6 -14 -18 -24t-26 -11q15 -10 16.5 -27t-10.5 -30.5t-37 -13.5q33 0 44 -14t0 -27.5t-44 -13.5
q32 -9 38.5 -27.5t-8 -30.5t-47.5 -3q0 -26 -16 -39t-37 -13t-37 13t-16 39q0 -29 -8 -41.5t-19 -1t-18.5 52.5t-6.5 119z" />
    <glyph glyph-name="N" unicode="N" horiz-adv-x="740" 
d="M85 63q-38 0 -51 14t0 28t51 14q-27 0 -41 18t-14 41.5t14 41.5t41 18q-29 0 -43.5 16t-14.5 36.5t14.5 36t43.5 15.5q-26 0 -39 14t-13 32t13 32t39 14q-29 0 -43.5 15t-14.5 34.5t14.5 34.5t43.5 15q-24 0 -36.5 17t-12.5 39t12.5 39t36.5 17q-6 22 5 36t29 19t35 -2
t23 -28q0 37 11 49.5t21.5 0t10.5 -49.5q15 18 31.5 19.5t28 -8.5t13.5 -26.5t-13 -34.5q22 14 38 11.5t23.5 -14.5t2.5 -28t-27 -29q19 11 37 2.5t29.5 -27t10.5 -38.5t-19 -32q12 8 24.5 5t21.5 -12q12 8 26 5q-8 17 0.5 36.5t32.5 19.5q-32 0 -42.5 13.5t0 27.5t42.5 14
q-28 0 -37 13t0 26t37 13q-11 20 -3.5 37t24 25.5t34.5 5t29 -23.5q4 25 20.5 35.5t34.5 7t29.5 -18.5t6.5 -41q20 0 32.5 -14.5t16.5 -36t0 -42.5t-16.5 -35.5t-32.5 -14.5q26 0 39.5 -18.5t13.5 -42t-13.5 -41.5t-39.5 -18q24 0 36.5 -11t12.5 -25t-12.5 -25t-36.5 -11
q23 0 36.5 -14t18 -35t0 -41.5t-18 -34.5t-36.5 -14q36 0 48 -10t0 -20t-48 -10q29 0 43 -13.5t14 -31t-14 -30.5t-43 -13q10 -28 -0.5 -42.5t-28 -10.5t-27.5 32q-5 -21 -27 -26.5t-47 0t-42 20.5t-12 36q-28 -18 -43.5 -14.5t-13 19.5t29.5 35q-24 -16 -43 -13t-28.5 17.5
t-5 33.5t28.5 34q-19 -12 -41 1t-35 36q-14 -9 -31 -5q10 -15 13 -37t-0.5 -44t-14 -37t-27.5 -15q20 -14 20 -29t-14 -20.5t-34 8.5q0 -24 -12 -36.5t-27.5 -12.5t-27.5 12.5t-12 36.5q0 -25 -10.5 -37.5t-24.5 -9.5t-24 22.5t-9 57.5z" />
    <glyph glyph-name="O" unicode="O" horiz-adv-x="742" 
d="M275 29q-9 -19 -27.5 -24.5t-40 0t-39.5 18t-26.5 30.5t0.5 37q-20 -14 -38 -9.5t-29 20t-9.5 34t21.5 32.5q-19 -2 -32.5 11.5t-20.5 35.5t-6.5 45t10 40t28.5 19q-23 1 -36 17.5t-16.5 40t2 46.5t19.5 38t36 15q-14 7 -15.5 24t5.5 37t19.5 37.5t27.5 26t28 1.5
q-19 25 -15 41t21 16t36 -25q-11 28 -4 47t24 25.5t35.5 -2t29.5 -35.5q-3 24 7 38t26 16t29.5 -8.5t17.5 -34.5q2 23 20.5 34.5t43 13.5t48.5 -5.5t39 -23t12 -38.5q15 34 34 39t27.5 -12.5t-6.5 -51.5q22 30 40 32t21 -15.5t-19 -47.5q22 17 40.5 15.5t28 -14t5.5 -30.5
t-27 -35q22 7 36 -0.5t18 -21t-3.5 -27t-29.5 -20.5q19 1 30.5 -13.5t16 -36t1.5 -43.5t-13.5 -37t-29.5 -16q37 0 49 -13.5t-0.5 -26.5t-49.5 -12q24 -4 33 -22.5t5 -39.5t-19 -34.5t-39 -8.5q12 -11 9 -29t-16 -36.5t-30.5 -32.5t-34.5 -18.5t-29 6.5q6 -23 -10.5 -40
t-42.5 -24t-49 -1t-29 29q3 -55 -35 -55t-113 62zM440 178q-23 10 -24.5 30.5t11 37t33.5 15.5q-13 7 -18.5 24t-3.5 36t11.5 32.5t26.5 13.5q-20 -1 -30 16.5t-7.5 39t16.5 32.5q-19 -2 -33 15t-10 35q-12 -7 -24.5 -3.5t-19.5 15.5q-4 -17 -20 -25.5t-32 -3.5q5 -14 1 -30
t-15 -27t-27 -11q14 -4 20.5 -17t5 -28.5t-10 -26.5t-24.5 -11q21 1 28 -6t0 -14.5t-28 -7.5q24 1 34.5 -11.5t8 -28.5t-18.5 -25q17 -2 32 -20t16 -37q14 15 40.5 10.5t61.5 -19.5z" />
    <glyph glyph-name="P" unicode="P" horiz-adv-x="705" 
d="M85 95q-24 0 -36 20t-12 46t12 45.5t36 19.5q-34 0 -45.5 14t0 28t45.5 14q-29 0 -43.5 14.5t-14.5 33.5t14.5 33.5t43.5 14.5q-26 0 -39 15.5t-13 36t13 36.5t39 16q-25 0 -37 20.5t-12 47t12 47t37 20.5q-32 0 -42.5 11t0 22t42.5 11q-7 39 3 54t24.5 4.5t21.5 -49.5
q0 23 15 37t38 19t45.5 0t37.5 -19t15 -37q0 32 13 42.5t26 0t13 -42.5q2 27 23 39.5t48 11t46.5 -16.5t18.5 -41q9 37 22 47t19.5 -5t-2.5 -52q13 25 32 30.5t35 -3t21.5 -27.5t-7.5 -43q18 13 35 8.5t27 -19t8 -31.5t-21 -30q18 0 29.5 -14t16 -35.5t2 -43.5t-13 -37
t-28.5 -16q20 -13 19.5 -33.5t-13 -39.5t-31.5 -26.5t-38 5.5q10 -23 6 -38.5t-17 -22t-28 0t-26 28.5q3 -23 -12 -37t-38 -19t-44 1t-29 25q6 -31 -16.5 -50t-48.5 -17q5 -17 2 -35t-15.5 -31t-33.5 -13q37 0 49.5 -14.5t0 -29.5t-49.5 -15q0 -23 -14.5 -35t-33.5 -12
t-33.5 11.5t-14.5 34.5q0 -30 -13 -40t-26 0t-13 40q0 -24 -8 -35t-19 -5.5t-18.5 31t-6.5 74.5zM280 468q18 0 27 -16t12 -36t3 -32q5 12 19 18.5t30.5 6.5t29.5 -6q-8 16 0.5 23.5t25.5 -2.5q-5 12 -2 28t14 23q-14 0 -20.5 11t-2.5 23q-10 -5 -18 1.5t-6 19.5
q-8 -10 -24 -13t-31.5 2t-19.5 18q3 -24 -11 -29q2 -14 -4.5 -27t-21.5 -13z" />
    <glyph glyph-name="Q" unicode="Q" horiz-adv-x="742" 
d="M432 24q0 -25 -20.5 -37t-47 -12t-46.5 12.5t-20 37.5q-8 -22 -27 -30.5t-41 -5t-41 15t-28 30t-1 40.5q-20 -16 -40.5 -9.5t-35.5 25t-16.5 40t18.5 36.5q-18 -2 -31 10t-19.5 31.5t-6 40t9 36t26.5 17.5q-24 0 -36.5 11.5t-12.5 27t12 27t37 11.5q-21 3 -30.5 20.5
t-10 42t7 47t22.5 36.5t35 11q-21 16 -23 35.5t9.5 35t31 18.5t40.5 -13q-12 25 -0.5 45.5t34.5 31.5t46 7.5t35 -28.5q-4 27 7.5 42.5t29 18t32.5 -9.5t19 -39q2 26 23.5 37.5t47.5 9t44.5 -18t16.5 -41.5q11 27 29.5 35.5t35.5 1.5t24 -26t-4 -47q20 17 42.5 11
t39.5 -25.5t20 -43t-16 -40.5q25 5 40.5 -9t20 -35t-5 -39.5t-34.5 -23.5q34 0 45.5 -10t0.5 -20.5t-45 -10.5q24 0 36 -10.5t12 -24.5t-12 -24.5t-36 -10.5q27 -1 39 -15.5t11 -32.5t-15 -31t-40 -12q20 -10 20 -35t-13.5 -51t-32.5 -40q17 -4 26 -18t7.5 -31t-16.5 -30
q23 11 37 3t12.5 -26t-25.5 -38q-6 -31 -16 -42t-17 -2.5t-4 35.5q-8 -23 -33.5 -32t-59 -1t-67 34t-56.5 74zM447 187q-22 14 -22.5 25t15.5 8q-12 10 -12.5 25t9.5 26.5t29 11.5q-21 3 -27 14t3 20.5t33 9.5q-15 -1 -23 13t-8.5 32.5t7.5 32.5t24 14q-30 -2 -34.5 10
t17.5 17q-16 1 -22 11t0 21q-17 -4 -32 6t-18 27q-9 -12 -22.5 -11.5t-22.5 12.5q1 -10 -5 -12t-15 7q3 -9 -2 -14t-15 -1q10 -14 8.5 -36.5t-12.5 -40.5t-29 -18q18 -2 26.5 -14.5t7.5 -27.5t-11 -26.5t-29 -11.5q19 1 27 -9t4.5 -21.5t-19.5 -15.5q14 -1 25 -14.5
t16.5 -31.5t2.5 -32q19 10 53.5 4.5t72.5 -10.5z" />
    <glyph glyph-name="R" unicode="R" horiz-adv-x="722" 
d="M85 123q-36 0 -48 13t0 26t48 13q-18 0 -29 15.5t-14.5 38.5t0 46.5t14.5 39t29 15.5q-25 0 -38 16.5t-13 37.5t13 37.5t38 16.5q-34 0 -45.5 13t0 26t45.5 13q-35 0 -46.5 10t0 19.5t46.5 9.5q-35 0 -46.5 12t0 24t46.5 12q-32 0 -42.5 15t0 30t42.5 15q-16 23 -9 39
t24.5 16.5t33.5 -22.5q0 39 15 51.5t30 0t15 -51.5q0 29 14 43t32 14t32 -14t14 -43q0 24 13.5 35.5t30.5 11.5t30.5 -11.5t13.5 -35.5q3 23 24.5 32t47.5 5.5t44 -17.5t15 -37q15 36 31 43t22 -9.5t-8 -52.5q13 13 32.5 5.5t37 -25.5t24 -38t-6.5 -33q26 6 41.5 -2.5
t19 -23t-7 -28.5t-36.5 -20q18 -5 22 -26.5t-3 -47t-21.5 -42t-32.5 -11.5q19 -22 12.5 -43t-23.5 -31q6 -15 -24 -27q19 -1 34 -15t22 -33.5t2 -38.5t-25 -31q30 17 46.5 14.5t13.5 -16t-29 -30.5q23 12 38 2.5t14.5 -28t-24.5 -35.5q0 -20 -14.5 -32t-35.5 -16t-42 0
t-35.5 16t-14.5 32q-9 -20 -27 -23.5t-36 4.5t-27 24.5t0 35.5q-19 -8 -34.5 -1.5t-23.5 21.5t-5.5 31.5t18.5 27.5q-20 -9 -40.5 5t-29.5 36q-7 -4 -16 -4q5 -18 -4.5 -35.5t-33.5 -17.5q20 0 30 -11t10 -25t-10 -24.5t-30 -10.5q15 -20 10 -34.5t-20.5 -16t-30.5 17.5
q0 -24 -15.5 -37t-38 -13.5t-44.5 14t-37 46t-14 83.5zM275 441q20 0 28.5 -14.5t7.5 -27.5q16 12 43 12.5t42 -10.5q-1 17 11 37.5t27 26.5q-13 5 -7 15q-19 -5 -30.5 9t-3.5 32q-12 -6 -29.5 -6t-32.5 5.5t-19 16.5q2 -20 -12 -24q1 -10 -5 -19t-20 -9q19 0 25.5 -11
t0 -22t-25.5 -11z" />
    <glyph glyph-name="S" unicode="S" horiz-adv-x="697" 
d="M270 25q-5 -22 -22 -29.5t-35.5 -3t-30 19t-5.5 36.5q-13 -19 -33 -19.5t-37.5 11.5t-25 30.5t5.5 37.5q-20 -11 -35 -6.5t-22 17t-2 27t25 25.5q-6 21 3.5 34.5t25.5 18.5t31.5 -2t21.5 -27q4 21 26 28t49 3t47.5 -17t22.5 -34q3 17 19 27t38 13t42 -1q-1 12 8 24
q-9 10 -4 28q-9 -19 -33.5 -24t-51.5 1t-45.5 21t-14.5 37q-8 -20 -28.5 -23.5t-41.5 5.5t-33 26t-3 36q-18 -13 -36 -8.5t-29 19.5t-11 33t18 32q-25 -3 -38.5 6t-15.5 22.5t9 26t36 15.5q-27 7 -38.5 20.5t-8 26.5t20 19.5t43.5 -1.5q-22 17 -26 34.5t4.5 28.5t26 11
t39.5 -17q-12 20 -9 36t15 23.5t27.5 3t27.5 -24.5q-5 22 6.5 36.5t30.5 19.5t36.5 -2t23.5 -28q1 21 16 33.5t36.5 16t43 -2t35 -19t12.5 -35.5q10 20 29 25t41.5 -0.5t41 -19t27 -32t-0.5 -37.5q16 9 33 0t28 -28t11 -38t-16 -29q0 -20 -19.5 -30t-44.5 -10t-44.5 10
t-19.5 30q-4 -19 -21 -25t-37 -2.5t-34.5 15.5t-13.5 30q-3 -16 -17.5 -23t-30.5 -5q4 -26 -16 -43q1 -7 -2 -16q11 15 36.5 18.5t53 -3t45.5 -21t15 -34.5q7 18 27.5 20.5t43.5 -6t37.5 -24.5t7.5 -33q17 10 34.5 0t29.5 -30t12.5 -40.5t-16.5 -30.5q22 -3 30.5 -22t5 -41
t-17 -37t-36.5 -12q12 -14 7.5 -32.5t-19.5 -36t-35 -29t-39 -13t-31 13.5q5 -23 -10 -38t-38.5 -20.5t-43.5 2t-25 29.5q2 -48 -31.5 -48.5t-93.5 51.5z" />
    <glyph glyph-name="T" unicode="T" horiz-adv-x="674" 
d="M240 67q-27 0 -41 14t-14 32t14 32t41 14q-28 0 -42 13.5t-14 30.5t14 30.5t42 13.5q-23 0 -34.5 15.5t-11.5 36.5t11.5 36.5t34.5 15.5q-37 0 -50 12t-1 24t48 12q-23 -1 -36.5 13t-17 34t3.5 37q-3 14 -3 32q0 -22 -14 -35t-34.5 -17t-41 0.5t-34 17.5t-13.5 35
q-26 0 -39 10.5t-13 24.5t13 25t39 11q-31 0 -41.5 15.5t0 31t41.5 15.5q-52 23 -47.5 33.5t56.5 -12.5q0 33 11 43.5t22 0t11 -43.5q0 28 11.5 42t26.5 14t26.5 -14t11.5 -42q0 23 10.5 34.5t25 11.5t25 -11.5t10.5 -34.5q0 36 16 47.5t32 0t16 -47.5q0 25 15.5 37.5
t36 12.5t36.5 -12.5t16 -37.5q0 29 18 43.5t41.5 14.5t41.5 -14.5t18 -43.5q0 26 13.5 39.5t31 13.5t30.5 -13.5t13 -39.5q28 2 42.5 -7t15.5 -22.5t-12 -25t-41 -13.5q30 0 40 -13.5t0 -27.5t-40 -14q10 -19 6 -34t-16 -21t-26.5 -1.5t-24.5 24.5q0 -30 -16.5 -42t-34.5 -7
q-1 -17 -11.5 -31t-26.5 -18q24 -10 13 -24t-56 -14q26 0 38.5 -17t12.5 -39t-12.5 -39t-38.5 -17q38 0 50.5 -12t0 -24t-50.5 -12q24 0 35.5 -10.5t11.5 -23.5t-11.5 -23.5t-35.5 -10.5q36 0 48 -14t0 -28t-48 -14q36 0 47.5 -10t0 -20t-47.5 -10q5 -22 -7.5 -37t-32.5 -20
t-38 2.5t-23 29.5q0 -28 -14.5 -42t-33 -10.5t-32.5 25.5t-13 64z" />
    <glyph glyph-name="U" unicode="U" horiz-adv-x="746" 
d="M333 21q-4 -24 -22.5 -32.5t-40 -4.5t-35 19t-8.5 39q-12 -19 -31 -20.5t-35.5 8.5t-23.5 27.5t4 36.5q-25 -20 -40.5 -18t-14 17.5t27.5 35.5q-15 -3 -27 9t-20 33t-10 42.5t3 38.5t19 20q-23 0 -34.5 18t-11.5 41.5t11.5 41.5t34.5 18q-27 0 -40.5 14.5t-13.5 33.5
t13.5 33t40.5 14q-27 0 -41 17.5t-14 40.5t14 40.5t41 17.5q-26 0 -39 10t-13 23.5t13 23.5t39 10q0 26 18.5 39.5t43.5 13.5t44 -13t19 -39q0 26 10.5 39.5t23.5 13.5t23.5 -13.5t10.5 -39.5q29 -1 43 -21.5t13.5 -47.5t-15.5 -47.5t-44 -19.5q24 0 35.5 -14t11.5 -32
t-11.5 -31.5t-35.5 -13.5q39 0 51.5 -11t0 -22t-51.5 -11q22 0 33 -14t12 -32.5t-8.5 -34t-29.5 -18.5q26 2 40 -9t15.5 -27t-9.5 -29q17 0 15 -14q32 14 64 -2q1 20 15.5 32.5t36.5 9.5q-14 12 -19 34t-2 45t14.5 39t30.5 16q-28 0 -41.5 20.5t-13.5 47t13.5 47t41.5 20.5
q-24 0 -36 15t-12 34.5t12 34.5t36 15q-20 14 -19.5 29t14.5 20.5t34 -8.5q0 28 11 42t25 14t25 -14t11 -42q0 26 10.5 39.5t23.5 13.5t23.5 -13.5t10.5 -39.5q23 5 37.5 -8.5t19 -34t-4 -39t-31.5 -22.5q23 0 35 -20t12 -46t-12 -45.5t-35 -19.5q21 0 34 -14.5t17 -36
t0 -42.5t-17 -35.5t-34 -14.5q34 0 45.5 -11t0 -22t-45.5 -11q38 -5 49 -19.5t-3.5 -26t-52.5 -6.5q23 -12 27 -33t-6 -40.5t-29.5 -28.5t-43.5 4q20 -24 19.5 -38.5t-15 -13t-34.5 25.5q12 -25 7.5 -42.5t-18 -24t-30 1t-28.5 32.5q4 -26 -15.5 -41.5t-50 -19t-61 6.5
t-49.5 36z" />
    <glyph glyph-name="V" unicode="V" horiz-adv-x="726" 
d="M196 167q-28 -8 -45 -1.5t-21 20t7 28t39 22.5q-25 -7 -41 2.5t-21 27t3 34t33 24.5q-27 -8 -44 -0.5t-21.5 22.5t5.5 30.5t37 23.5q-25 -7 -40.5 -1t-19.5 19t6 26.5t35 20.5q-18 -5 -33 6.5t-25 32t-12.5 43t3.5 40.5t24 23q-28 9 -32 27t10 30t41 3q0 24 14 36t32 12
t32 -12t14 -36q8 17 23 19.5t29 -4.5t20.5 -21t-2.5 -31q23 6 39.5 -10t23 -40.5t-0.5 -46t-30 -27.5q14 4 26.5 -8.5t21 -33t11 -42.5t-2 -38.5t-18.5 -20.5q13 5 24.5 3t19.5 -9q14 11 28 10q-24 14 -14 29t48 5q-20 5 -26.5 20.5t-2.5 32t17.5 27t32.5 5.5
q-28 7 -36.5 30.5t-2 49.5t25.5 42.5t47 8.5q-11 17 -5.5 32.5t20 25t31.5 9t27 -16.5q0 23 13 35t31 13.5t33.5 -7t20.5 -28.5q-3 35 11 34t21 -42q36 -10 45 -23.5t-5.5 -19.5t-50.5 5q35 -10 42.5 -28t-8.5 -29t-51 0q19 -6 26.5 -23t5.5 -38t-11.5 -40t-25 -29t-35.5 -4
q25 -7 31.5 -30.5t-1 -49t-25.5 -41.5t-43 -9q22 -7 29.5 -23.5t2.5 -33.5t-20.5 -27t-37.5 -4q21 -6 30 -23.5t7 -39.5t-12 -41t-27 -29.5t-38 -3.5q25 -15 33 -31.5t1 -28.5t-25 -14t-44 13q0 -26 -14 -39t-32 -13t-32 13t-14 39q0 -30 -12 -40t-24 0t-12 40
q0 -28 -13.5 -40t-35 0t-45 54.5t-43.5 122.5z" />
    <glyph glyph-name="W" unicode="W" horiz-adv-x="856" 
d="M140 85q-35 -5 -49 9t-5 31.5t45 22.5q-38 -5 -52.5 8t-4.5 29.5t48 22.5q-28 -4 -44.5 8.5t-19 32t9.5 36.5t40 21q-29 -4 -45.5 11.5t-20 38t8.5 41.5t40 24q-35 -6 -49 6.5t-4 28t45 20.5q-24 -4 -37.5 8t-16.5 30t7 33.5t34 19.5q-25 -5 -40.5 8.5t-19.5 34t5.5 38.5
t34.5 23q0 30 16 44.5t36 14.5t35.5 -15t15.5 -45q9 20 27 24t35.5 -4t27 -24t0.5 -36q31 4 42.5 -5.5t2.5 -21.5t-40 -16q33 4 46 -10.5t4 -31.5t-43 -21q26 3 37.5 -17t4.5 -39q8 1 15 0q7 9 20 13.5t31 -1.5q-19 17 -18 31t15 17.5t33 -13.5q4 19 21 25.5t36.5 1.5
t32 -18t7.5 -32q18 6 31 -1.5t18.5 -21.5t1.5 -27q6 1 13 1q-2 23 3.5 47.5t17 41t28.5 14.5q-25 3 -36 15.5t-9.5 26.5t15.5 23.5t39 6.5q-17 14 -19 29t7 25t24 11t32 -13q0 33 13.5 43.5t27.5 0t14 -43.5q-1 28 12 42.5t31 15t32 -13t15 -41.5q31 -4 39 -19.5t-4 -28
t-43 -7.5q27 -4 38.5 -16t9.5 -25.5t-16.5 -21.5t-40.5 -4q23 -4 33.5 -15.5t8.5 -25t-15.5 -22t-36.5 -4.5q23 -4 31.5 -25t4.5 -47t-18 -44t-37 -14q23 -4 32.5 -19t7 -33t-16 -30t-36.5 -9q27 -4 38.5 -21.5t8.5 -38t-19 -34t-43 -9.5q23 -4 31.5 -25t4.5 -46t-19 -42
t-38 -13q1 -26 -11 -39t-28.5 -14t-29.5 11.5t-14 37.5q0 -39 -12 -52.5t-24 0t-12 52.5q-15 -11 -34 -1t-34 30.5t-18.5 41.5t11.5 32q-24 -9 -36.5 -1.5t-9 22t27.5 23.5q-17 -6 -32.5 6.5t-25.5 33.5q-2 -22 -13 -45.5t-26.5 -37.5t-31.5 -8q25 -11 31.5 -30.5t-1.5 -38
t-26.5 -27.5t-43.5 2q0 -22 -15 -34.5t-38.5 -14.5t-48.5 8t-44.5 33t-26.5 61zM406 258q3 -1 6 -3v0z" />
    <glyph glyph-name="X" unicode="X" horiz-adv-x="739" 
d="M60 67q-19 13 -23 27.5t3.5 26t22.5 13.5t34 -10q-24 15 -25 39.5t13 46.5t36.5 31t46.5 -7q-18 12 -17 35t14.5 46t33.5 34q-22 9 -34.5 32.5t-10 48t26.5 37.5q-19 -12 -35 -7.5t-24.5 18t-5 29.5t23.5 28q-21 -13 -38 -9t-25.5 17.5t-4 30.5t25.5 30
q-32 -20 -50 -15.5t-14 22t37 37.5q-7 22 -0.5 36t19.5 18.5t26.5 -3t21.5 -29.5q0 29 17 43t40 14t40 -14t17 -43q18 14 39 5t36.5 -29t18 -42.5t-16.5 -36.5q17 10 32 8q12 15 30.5 21.5t35.5 -5.5q-30 19 -34 34.5t12.5 18t47.5 -17.5q-7 17 5.5 32t33 23.5t40 7
t26.5 -18.5q0 21 14 33.5t34.5 16.5t41.5 0t35 -16.5t14 -33.5q19 -16 22 -33t-5.5 -29t-24 -15t-34.5 8q18 -15 20.5 -31t-6.5 -27.5t-27 -13t-40 12.5q23 -14 28 -31t-3 -29.5t-25.5 -15t-40.5 11.5q19 -10 19.5 -32t-10.5 -45.5t-29 -37.5q15 -5 21 -19t1 -30t-26 -30
q20 13 36 11.5t23.5 -13t2.5 -26.5t-25 -29q19 13 36.5 6.5t28.5 -23.5t9.5 -35.5t-20.5 -30.5q26 17 43.5 9t18.5 -26.5t-24 -34.5q21 15 38 13.5t25.5 -13.5t4.5 -29t-25 -33q0 -27 -13 -40t-30.5 -13t-30.5 13t-13 40q0 -30 -10.5 -44.5t-24.5 -14.5t-25 14.5t-11 44.5
q-9 -17 -30 -16t-42.5 12.5t-33 29t-2.5 34.5q-29 -19 -44.5 -16.5t-12 18.5t32.5 35q-15 -10 -26.5 -11.5t-17.5 3.5q-12 -8 -23 -1q-5 -24 -21 -46.5t-37 -33.5t-39 0q2 -26 -10.5 -40t-30 -15.5t-32.5 10t-17 37.5q0 -23 -15.5 -34.5t-36 -11.5t-36 11.5t-15.5 34.5
q0 -33 -8.5 -42.5t-10.5 9.5t17 70z" />
    <glyph glyph-name="Y" unicode="Y" horiz-adv-x="710" 
d="M260 83q-28 0 -42.5 10.5t-14.5 23.5t14.5 23.5t42.5 10.5q-29 0 -41.5 9t-9.5 19.5t22 15.5q-21 2 -31 13.5t-5.5 27t25.5 26.5q-24 -7 -35 2t-4.5 25t34.5 31q-23 -12 -39 -8.5t-22 15.5t1 26.5t30 26.5q-33 -16 -50.5 -7.5t-14 28.5t35.5 36q-21 -11 -37.5 -5t-24 21
t-2.5 31.5t26 27.5q-24 -13 -42.5 -6.5t-27 22.5t-2.5 34.5t31 30.5q-27 -13 -47 -6.5t-28.5 24t-2 38t32.5 33.5q26 45 37 40q12 12 26 -1t14 -51q0 26 16.5 39t38 13t38 -13t16.5 -39q31 20 49 15t15 -23.5t-35 -38.5q25 12 42 9.5t23 -14.5t-2 -27.5t-33 -27.5
q17 8 32.5 -1.5t24.5 -28t7.5 -36.5t-18.5 -26q19 9 34 5q-3 15 3 34t18 34.5t26.5 22.5t29.5 -1q-35 18 -40.5 36.5t12.5 25t53 -11.5q-11 19 -1.5 37t29 28.5t39.5 9t31 -20.5q0 39 11 52t22 2t11 -46q1 29 18.5 39t35 0t19.5 -41q26 -13 29.5 -37.5t-8.5 -48.5t-34 -36
t-48 1q20 -10 25 -29t-1 -41t-20 -39.5t-32.5 -25t-37.5 2.5q27 -14 31 -29t-10.5 -21t-42.5 7q25 -12 31.5 -28.5t-0.5 -31t-24.5 -19t-42.5 7.5q30 -13 36 -35t-6.5 -40t-37.5 -18q17 -9 24 -25.5t3 -34t-18.5 -29.5t-39.5 -12q20 -10 24 -27.5t-4 -34.5t-24.5 -25
t-36.5 2q0 -19 -15.5 -30.5t-38 -13t-44.5 8t-37 31.5t-14 57z" />
    <glyph glyph-name="Z" unicode="Z" horiz-adv-x="693" 
d="M65 115q-33 0 -44.5 11t0 22t44.5 11q-24 18 -26 40t11 39t34.5 21t45.5 -14q-21 21 -21 42t14.5 36t35.5 16t43 -19q-21 20 -20 41t15 35.5t35 16t41 -17.5q-15 14 -5 38t29 42q-2 9 2 20q-15 -8 -33 0t-18 32q0 -27 -20.5 -41t-47.5 -14t-47.5 14t-20.5 41
q-18 -8 -33 -0.5t-22 23t-3.5 32t21.5 24.5q-16 12 -17.5 27t7.5 28t24 16.5t31 -7.5q0 23 9.5 34.5t22.5 11.5t22.5 -11.5t9.5 -34.5q0 40 13 53t26 0t13 -53q0 39 14 51.5t28 0t14 -51.5q0 27 15 40.5t35 13.5t35 -13.5t15 -40.5q0 18 15 29t37 14.5t44 0t37 -14.5t15 -29
q13 17 31 16t33.5 -12.5t20.5 -29t-8 -34.5q27 -1 40 -14.5t13 -31t-14 -31t-41 -12.5q16 -15 16 -35.5t-12 -40t-30.5 -33t-39 -16t-36.5 12.5q20 -18 22 -35.5t-8 -28.5t-27.5 -10.5t-37.5 17.5q14 -12 9 -32t-20.5 -38t-35 -27.5t-34.5 -0.5q11 -8 14 -19.5t1 -23.5
q16 12 38 11.5t38.5 -12.5t16.5 -35q0 21 14 33.5t34.5 17t42 1t36 -15.5t14.5 -33q26 0 39 -17t13 -39t-13 -38.5t-39 -16.5q7 -18 -5 -32.5t-32 -22t-38.5 -4t-25.5 21.5q0 -30 -18 -44.5t-41.5 -14.5t-42 14.5t-18.5 44.5q0 -22 -15.5 -35.5t-38.5 -18t-46.5 0t-39 18
t-15.5 35.5q0 -33 -16 -44.5t-32 0t-16 44.5q0 -31 -15 -41.5t-30 0t-15 41.5q0 -28 -10.5 -41t-23.5 -5.5t-22.5 39.5t-8.5 92zM377 175v5v0v-5z" />
    <glyph glyph-name="bracketleft" unicode="[" horiz-adv-x="432" 
d="M70 -140q-21 2 -26.5 17.5t3 30t29.5 12.5q-22 0 -32.5 15.5t-10.5 36t10.5 36t32.5 15.5q-26 0 -34.5 13t0 26t34.5 13q-16 0 -24.5 12t-8.5 28t8.5 28t24.5 12q-20 0 -30 18t-10 41.5t10 42t30 18.5q-21 0 -32 15t-11 34.5t11 34.5t32 15q-21 0 -32 20t-11 46t11 46
t32 20q-15 0 -23 20.5t-8 47t8 47t23 20.5q-20 2 -28.5 19.5t-6.5 39.5t13.5 37.5t31.5 13.5q0 18 13 27t30.5 9t31 -9t13.5 -27q0 22 12 29t24 0t12 -29q0 26 13.5 34.5t27.5 0t14 -34.5q4 13 21.5 15t38.5 -4t35.5 -17t10.5 -23q17 0 25 -16t8 -37t-8 -37t-25 -16
q0 -19 -13.5 -26t-27.5 -1.5t-17 21.5q-1 -20 -21.5 -30t-39.5 -5q7 -20 6 -46.5t-9 -46t-24 -19.5q27 0 36 -13t0 -26t-36 -13q21 0 31.5 -10t10.5 -23.5t-10.5 -24t-31.5 -10.5q25 0 33 -10t0 -19.5t-33 -9.5q15 0 23 -11.5t8 -26.5t-8 -26.5t-23 -11.5q17 0 26.5 -18.5
t12 -45t-3 -50.5t-18.5 -35q19 4 30 -7t8 -26q15 6 33 4.5t31 -9.5t13 -24q17 40 24 37t-10 -43q20 0 26.5 -13t0 -26t-26.5 -13q15 -3 20 -18.5t1.5 -34t-14 -31t-25.5 -9.5q0 -17 -14.5 -25.5t-33.5 -8.5t-33.5 8.5t-14.5 25.5q0 -19 -12 -29t-27.5 -10t-27.5 10t-12 29
q0 -21 -11 -32t-25 -11t-25 11t-11 32q0 -22 -10.5 -30t-22 -1.5t-15.5 25.5z" />
    <glyph glyph-name="backslash" unicode="\" horiz-adv-x="578" 
d="M383 -44q-14 -6 -25.5 3t-18 24t-4.5 30t16 20q-15 -5 -29.5 9.5t-24 38t-10 44.5t13.5 27q-18 -8 -31 -1.5t-18.5 19.5t-1 26.5t22.5 21.5q-20 -8 -35.5 1t-23 26.5t-3 35t24.5 26.5q-20 -9 -30.5 -2.5t-7.5 18.5t23 20q-27 -11 -42 -1t-11.5 27.5t30.5 29.5
q-21 -9 -35 -3t-19.5 19t0.5 27.5t26 22.5q-17 -7 -30.5 2.5t-20.5 26t-4 33t20 23.5q-15 -6 -28.5 7t-22.5 34.5t-8.5 40.5t14.5 25q-17 -7 -32 5.5t-22.5 33t-5 39.5t19.5 26q0 15 10.5 23t24.5 8t25 -8t11 -23q0 22 12.5 29t25.5 0t13 -29q17 10 34.5 -1.5t30 -32.5
t14 -42.5t-15.5 -30.5q23 9 35.5 1.5t9.5 -22t-26 -24.5q22 10 34 3t8.5 -20.5t-26.5 -22.5q23 9 36 -1.5t11.5 -27.5t-24.5 -26q19 7 32.5 0.5t19 -20.5t1 -28.5t-23.5 -22.5q13 6 27 -5.5t25.5 -31.5t18 -42.5t4.5 -40.5t-15 -23q15 6 30.5 -10t26 -40.5t10.5 -47
t-15 -28.5q12 5 24.5 -5t22.5 -28.5t15.5 -38.5t4 -36t-12.5 -21q19 9 36 -2.5t26.5 -32t6.5 -40.5t-22 -29q0 -22 -12 -29.5t-24 0t-12 29.5q0 -21 -13 -31t-31 -8.5t-35 15t-25 39.5z" />
    <glyph glyph-name="bracketright" unicode="]" horiz-adv-x="432" 
d="M49 -49q-21 0 -28 16t0 32t28 16q0 17 12.5 25t28.5 8t27 -9q-1 13 7.5 27.5t22 24.5t27.5 10q-10 8 -10.5 22.5t7 25.5t24.5 11q-21 0 -31 10.5t-10 24t10 23.5t31 10q-16 0 -24.5 12t-8.5 28t8.5 28t24.5 12q-15 0 -23 18t-8 41.5t8 41.5t23 18q-16 0 -25 16t-10 38
t5 41t19 26q-14 -1 -24.5 12t-12.5 28q-10 -5 -21 2.5t-11 27.5q-11 -13 -26.5 -11t-28.5 13.5t-17.5 26.5t6.5 28q-23 0 -30.5 14.5t0 29t30.5 14.5q-4 18 8 30t30 15.5t33 -3t19 -24.5q0 24 14 32t28 0t14 -32q0 19 13.5 28.5t32 9.5t32 -9.5t13.5 -28.5q6 13 19 14.5
t27 -4.5t21.5 -16.5t2.5 -23.5q18 0 26.5 -10t8.5 -23.5t-8.5 -24t-26.5 -10.5q23 0 30.5 -13t0 -25.5t-30.5 -12.5q22 0 33 -16t11 -36.5t-11 -36t-33 -15.5q22 0 33 -17t11 -39t-11 -39t-33 -17q17 0 27 -15t13.5 -38t0 -45.5t-13.5 -37.5t-27 -15q20 0 29.5 -14.5
t9.5 -33.5t-9.5 -33.5t-29.5 -14.5q20 0 30.5 -18.5t10.5 -43t-10.5 -43.5t-30.5 -19q14 0 23 -14.5t11.5 -36.5t0 -44t-11.5 -37t-23 -15q0 -18 -15.5 -27.5t-36.5 -10t-37 8.5t-17 27q0 -19 -10.5 -29t-25 -10t-25 10t-10.5 29q0 -15 -19.5 -21t-45 1.5t-45 32.5t-20.5 72
z" />
    <glyph glyph-name="asciicircum" unicode="^" horiz-adv-x="492" 
d="M97 653q-10 12 -5 27.5t18.5 31t31 26t34 12.5t26.5 -10q0 21 11.5 32t26.5 11t26.5 -11t11.5 -32q10 14 29 12t38 -15t28.5 -29.5t-0.5 -31.5q10 13 25.5 10.5t29.5 -13.5t20 -26t-4 -27q0 -18 -12 -26.5t-27.5 -8.5t-27.5 9t-12 26q-6 -15 -21.5 -19t-33 1t-31.5 16
t-17 26q-6 -13 -22.5 -19t-32 -1.5t-19.5 21.5q1 -10 -11.5 -18t-30.5 -12.5t-34 -2.5t-22 11.5t7 29.5z" />
    <glyph glyph-name="underscore" unicode="_" horiz-adv-x="725" 
d="M58 -67q-17 0 -25.5 18.5t-8.5 42.5t8.5 42.5t25.5 18.5q-19 19 -10 28t28 -10q0 19 15 28.5t34.5 9.5t34.5 -9.5t15 -28.5q0 17 20 26t46 9t46 -9t20 -26q0 22 19 33t44.5 11t44.5 -11t19 -33q0 21 19.5 31t44.5 10t44.5 -10t19.5 -31q-1 21 15.5 32t38 11t37.5 -10.5
t16 -32.5q17 0 24.5 -18t7 -41t-9 -40.5t-24.5 -16.5q13 -20 5.5 -34t-23 -14.5t-28.5 18.5q0 -22 -16.5 -33t-39 -11t-39 11t-16.5 33q0 -22 -17.5 -33t-40.5 -11t-40.5 11t-17.5 33q0 -24 -13 -32t-25.5 0t-12.5 32q0 -17 -16.5 -25.5t-37.5 -8.5t-37.5 8.5t-16.5 25.5
q0 -19 -20 -28t-46 -9t-45.5 9t-19.5 28q0 -25 -11 -33.5t-22.5 1t-12.5 38.5z" />
    <glyph glyph-name="grave" unicode="`" horiz-adv-x="450" 
d="M187 634q-9 -11 -23 -8.5t-27 13t-18 24t4 24.5q-13 -15 -25.5 -13.5t-16.5 13.5t8 27q-14 -7 -24 2.5t-11 23t13 19.5q0 18 12 24.5t24 0.5t13 -24q0 13 16.5 19.5t38.5 6.5t38.5 -6.5t16.5 -19.5q4 17 20.5 19t31 -7t10.5 -26q11 9 26 2t27.5 -22.5t16.5 -31.5t-7 -25
q9 2 15.5 -7.5t9.5 -23.5t0.5 -25t-12.5 -13q0 -19 -12.5 -25.5t-25 0t-12.5 25.5q0 -17 -19.5 -21.5t-48.5 8.5t-59 47z" />
    <glyph glyph-name="a" unicode="a" horiz-adv-x="622" 
d="M68 74q-11 0 -18.5 13.5t-10.5 34.5t-1.5 42t7.5 35.5t18 14.5q-5 9 5 22t28.5 25.5t39 21.5t36.5 11t21 -7q-2 13 9.5 23t29.5 15t35.5 4t27.5 -10q-4 16 10 35q-25 1 -46 8.5t-20 20.5q0 -15 -12 -22t-27.5 -7t-27.5 7t-12 22q-9 -15 -23 -17t-27.5 5.5t-19.5 21
t3 28.5q-17 19 -12.5 34.5t20.5 18.5t33 -16q-12 23 -6 36t19.5 10.5t25.5 -26.5q-4 16 4.5 27.5t23 15.5t28 -1t17.5 -21q-1 20 13 30.5t33 11.5t34 -8t16 -29q2 27 14 35t22 -2t8 -37q5 18 19 23.5t29.5 1t24.5 -17t4 -29.5q11 14 26 13.5t27.5 -10t16 -24.5t-7.5 -29
q24 11 39 0t13 -29t-26 -29q20 1 30.5 -17.5t12 -42.5t-7.5 -43.5t-29 -20.5q16 0 24 -12.5t8 -29t-8 -29t-24 -12.5q18 0 29 -13.5t15.5 -34t1.5 -41.5t-13 -35.5t-27 -15.5q-1 -16 -15.5 -26t-35.5 -13t-42.5 0.5t-35.5 14t-14 26.5q0 -25 -11 -34t-22 -0.5t-11 34.5
q-13 -16 -27 -17t-23.5 8t-8.5 22q-16 -13 -51.5 -18t-86.5 6.5t-111 47.5zM324 123q-9 5 -7 18t9.5 28t17.5 25q-9 2 -16.5 9t-9.5 16q-7 -10 -21 -16.5t-28.5 -7.5t-23.5 5q3 -9 -4 -16q14 -5 30.5 -18t30.5 -26t22 -17z" />
    <glyph glyph-name="b" unicode="b" horiz-adv-x="661" 
d="M387 17q-8 -18 -26 -21t-37.5 4.5t-31.5 21.5q-7 -9 -19.5 -11.5t-26.5 8.5q-4 -28 -16 -36t-22 2t-6 36q-3 -16 -21.5 -24t-42 -7.5t-41 9.5t-17.5 26q-21 -4 -30 6t-5 23t25 17q-29 0 -39 10t0 20t39 10q-14 0 -22 14.5t-11 36t0 43t11 36t22 14.5q-19 0 -29 19.5
t-10 44.5t10 44.5t29 19.5q-21 0 -31 13.5t-10 30.5t10 30.5t31 13.5q-16 0 -23.5 20t-7.5 46t7.5 46t23.5 20q-16 0 -24.5 12t-8.5 28t8.5 28t24.5 12q0 16 16 25t37.5 9t38 -8t16.5 -24q0 19 12.5 28.5t29 10t29 -9t12.5 -29.5q26 -1 34 -14t-1.5 -25t-34.5 -11
q19 0 28.5 -12t9.5 -28t-9.5 -28t-28.5 -12q17 0 25.5 -6.5t9.5 -14.5q17 0 32 -10.5t13 -26.5q5 13 25.5 20.5t45 8.5t43 -6t19.5 -22q9 12 29.5 5.5t41 -23t31.5 -34.5t2 -30q20 4 34.5 -12t20 -40t-0.5 -44.5t-26 -25.5q17 0 25 -14.5t8 -33.5t-9 -33t-26 -14
q16 -5 18.5 -24t-4 -41t-19.5 -36t-28 -9q11 -13 7.5 -27t-15 -24.5t-25.5 -12.5t-26 10q5 -21 -7.5 -34t-33.5 -17t-43.5 4t-38.5 29zM258 278q15 0 20 -7t0 -14t-20 -7q10 1 15.5 -9t6 -22.5t-5.5 -19.5q11 2 25.5 -4.5t28 -17.5t20.5 -21q0 14 17 31t30 17
q-10 7 -11.5 23.5t5 30.5t19.5 13q-9 1 -15 14t-8 28.5t3 24.5q-10 -5 -21 1.5t-13 17.5q-8 -12 -23.5 -12.5t-23.5 10.5q-1 -8 -6 -11t-12 1q5 -11 -1.5 -23t-18.5 -13q17 -5 14 -18.5t-25 -12.5z" />
    <glyph glyph-name="c" unicode="c" horiz-adv-x="622" 
d="M174 42q-8 -7 -23 0t-32.5 22t-31.5 33t-20 33.5t2 22.5q-20 -3 -32.5 9.5t-15 30.5t5 33.5t27.5 18.5q-21 1 -30.5 14.5t-9 30t12 29t31.5 11.5q-25 7 -30.5 20.5t6 21.5t37.5 0q-16 11 -19 24t3.5 24t20 14t29.5 -7q-6 10 3 23.5t26.5 26t37.5 20.5t36 9t22 -10
q-1 15 13.5 24t34.5 10.5t35.5 -5t17.5 -20.5q4 21 24 28t43 2t38.5 -19.5t11.5 -35.5q11 15 32 11t41 -19t29.5 -34.5t-2.5 -34.5q15 -1 22 -12t6 -24.5t-9 -23.5t-23 -9q0 -13 -13 -19.5t-30.5 -6.5t-30.5 6.5t-13 19.5q-5 -12 -21.5 -13.5t-37.5 4.5t-39.5 16t-27.5 22
q-3 -16 -20 -27.5t-34 -9.5q7 -11 6 -27t-8 -29t-20 -15q22 0 31.5 -17t4.5 -34q17 2 33 -6.5t23 -23.5q9 16 29.5 22.5t32.5 -10.5q0 14 11.5 21.5t26.5 7.5t26 -7.5t11 -21.5q0 12 12.5 18.5t28 6.5t27.5 -6.5t12 -18.5q12 -3 14.5 -15.5t-1.5 -27.5t-12.5 -24.5
t-20.5 -5.5q9 -13 -2 -30.5t-31.5 -32.5t-40.5 -20t-29 7q2 -15 -18.5 -25.5t-58.5 -12.5t-87.5 8t-102.5 35z" />
    <glyph glyph-name="d" unicode="d" horiz-adv-x="661" 
d="M116 60q-18 -14 -30 -11t-12.5 15.5t17.5 26.5q-21 -7 -35 0.5t-19.5 22.5t0.5 30t26 22q-22 -1 -34 13t-13.5 34t8.5 36t32 18q-21 2 -29.5 20t-6 40t15 37.5t33.5 12.5q-18 10 -21.5 26t4 30t22 19.5t33.5 -4.5q-10 16 -2.5 31.5t23.5 25.5t33 9.5t27 -16.5q1 13 16 19
t36.5 6.5t42.5 -4t35 -13t13 -21.5q2 17 9.5 26.5t17.5 11.5q1 17 12 30t28 10q-19 2 -28.5 18.5t-9 37.5t11 36.5t30.5 15.5q-13 25 -11.5 36.5t12.5 7t25 -29.5q0 17 15.5 25t35.5 8t35.5 -8t15.5 -25q10 9 24.5 3t26.5 -20t16 -29t-6 -24q17 0 25 -19.5t8 -44.5t-8 -44.5
t-25 -19.5q15 0 23.5 -15.5t11.5 -38t0 -45t-11.5 -38t-23.5 -15.5q23 0 30.5 -10t0 -20t-30.5 -10q29 0 38.5 -15t0 -30t-38.5 -15q12 0 19.5 -14t10 -35t0 -42t-10 -35t-19.5 -14q22 -3 31.5 -15t7.5 -26t-14.5 -23t-34.5 -6q0 -16 -11.5 -23.5t-26 -7.5t-26 7.5
t-11.5 23.5q-2 -18 -16.5 -25t-32 -5t-30 12t-10.5 27q0 -20 -11.5 -30t-26.5 -11t-27.5 7t-16.5 25q-1 -22 -28.5 -30t-76.5 6t-114 59zM403 262q-14 0 -17 12t7 18q-10 0 -22 10.5t-20.5 24.5t-10.5 27q-9 -9 -25 -12t-27 3q3 -13 -1.5 -31t-13.5 -31t-18 -10q8 -2 12 -15
t3 -27t-8 -21q13 1 33.5 -11.5t39.5 -26.5t27 -19q-10 8 -6.5 25t14.5 32.5t23 16.5q-16 5 -13 20.5t23 14.5z" />
    <glyph glyph-name="e" unicode="e" horiz-adv-x="623" 
d="M258 18q-6 -21 -22 -27.5t-33.5 -2t-28.5 18.5t-5 35q-11 -15 -26 -16.5t-27.5 7.5t-16 23.5t8.5 30.5q-15 -7 -30 6.5t-25 36t-10 42.5t15 27q-18 0 -27 17t-9 40t9 40t26 17q-27 8 -32 24t7.5 27t39.5 3q-9 8 -5.5 23.5t15.5 32.5t27 30.5t29.5 19.5t23.5 -2
q-5 17 9.5 30t36.5 19.5t41 3t24 -20.5q1 19 22.5 26.5t48 5.5t46.5 -13t18 -30q8 19 22.5 20.5t24 -9.5t2.5 -30q11 11 29.5 3.5t36 -24.5t25 -36t-3.5 -30q15 3 27.5 -10t20 -34t8.5 -43.5t-5 -39.5t-22 -20q29 -13 26 -19.5t-32 6.5q0 -13 -16.5 -19.5t-37.5 -6.5
t-37.5 6.5t-16.5 19.5q0 -17 -15 -25.5t-34.5 -9t-34.5 8t-15 24.5q1 -17 -16.5 -27.5t-39.5 -12.5q10 -12 16.5 -25.5t8.5 -24.5q10 11 30 19t41 10t37.5 -2.5t19.5 -18.5q0 17 13.5 26t31.5 9t31.5 -9t13.5 -26q20 -4 24 -16.5t-5 -22t-28 -5.5q9 -13 3 -26.5t-19.5 -23
t-28 -10.5t-23.5 11q6 -19 -5.5 -33t-30.5 -20t-36.5 -0.5t-23.5 24.5q2 -27 -14.5 -37t-44 -1.5t-57.5 36.5zM299 301q0 20 11 22.5t15 -12.5q3 9 12 17t19 11q-12 9 -20 26t-5 30q-9 -5 -21.5 -6t-21.5 3q3 -11 -1 -26t-12.5 -27t-19.5 -13q13 -3 19.5 -14t24.5 -11z" />
    <glyph glyph-name="f" unicode="f" horiz-adv-x="492" 
d="M136 39q-21 0 -32 11.5t-11 26.5t11 26.5t32 11.5q-19 0 -28.5 17.5t-9.5 40t9.5 40t28.5 17.5q-16 0 -23.5 13.5t-8 30.5t7.5 29q-18 -1 -38.5 9t-32.5 26t-3 32q-22 0 -32.5 16.5t-10 38t11.5 37.5t33 15q-34 19 -29 28t39 -10q-9 14 -1.5 28.5t22.5 25t31 12.5
q-11 11 -1 22.5t40 8.5q-10 9 -2.5 29t25 40t36 31t29.5 2q-4 18 6 30.5t26.5 16t31 -3t18.5 -25.5q-1 21 16 32t40 11.5t40.5 -9.5t17.5 -31q13 7 26 0t21 -21.5t7.5 -29t-13.5 -21.5q23 -1 30 -14.5t-1 -26.5t-31 -12q0 -15 -17.5 -22t-39.5 -6.5t-35 9.5q1 -9 -3 -20.5
t-12 -21.5q7 -7 8 -19q4 16 15 19.5t20.5 -5t9.5 -29.5q9 18 23.5 19t23 -10.5t-0.5 -30.5q19 1 29 -14t11 -36t-7.5 -37.5t-26.5 -17.5q-1 -18 -17.5 -27.5t-38.5 -10t-38 8.5q1 -17 -11 -33t-31 -15q15 -7 21.5 -30t5 -49.5t-11 -45.5t-26.5 -19q22 0 29 -16t0 -32
t-29 -16q27 -7 32.5 -23.5t-7 -28.5t-39.5 -6q0 -19 -14 -29t-32 -10t-31.5 10t-13.5 29q0 -19 -11 -28.5t-25.5 -8.5t-25.5 13.5t-12 37.5z" />
    <glyph glyph-name="g" unicode="g" horiz-adv-x="666" 
d="M289 -193q-4 -20 -17.5 -28t-28 -5t-24 15.5t-5.5 32.5q-7 -14 -23.5 -14.5t-33.5 8t-26.5 22t-2.5 27.5q-13 -11 -27 -8t-24 14.5t-10.5 26t12.5 25.5q-13 16 -5 31t24.5 19t29.5 -12q0 18 11.5 26.5t26 8.5t26 -8.5t11.5 -26.5q6 13 26.5 11.5t41.5 -12t28 -23.5
q4 12 18 27t31 27t32 16q-10 5 -15 16.5t-4 21.5q-14 -5 -29 -2.5t-18 16.5q1 -13 -16 -20.5t-39.5 -9t-40 3.5t-18.5 18q-6 -14 -21 -16t-31 4.5t-25.5 18.5t-4.5 26q-11 -5 -23.5 6t-24 30.5t-18 41t-6 38.5t11.5 22q-13 1 -20.5 16.5t-8.5 38t2.5 45t12.5 37.5t23 14
q-14 9 -11 29t16 40t30 31t31 2q-3 14 11 24.5t36.5 16.5t45.5 7.5t39.5 -4t18.5 -19.5q8 18 21 21t24.5 -4t12.5 -22q9 13 27.5 19t35.5 1.5t21 -20.5q0 26 11 34.5t22 0t11 -34.5q1 16 20.5 22t44.5 4t43 -11t17 -25q17 0 25.5 -20.5t8.5 -47t-8.5 -47t-25.5 -20.5
q15 0 22.5 -12.5t7.5 -29t-7.5 -29t-22.5 -12.5q18 0 27.5 -20t9.5 -45.5t-9 -45.5t-27 -20q17 0 25.5 -15.5t8.5 -36t-8.5 -36t-25.5 -15.5q16 -4 19.5 -25.5t-2 -47t-18 -43.5t-28.5 -14q17 -14 15 -28t-15.5 -18.5t-30.5 9.5q13 -19 4.5 -33.5t-25 -16.5t-29.5 17
q4 -18 -17.5 -31.5t-55.5 -19t-68 0t-56 24.5zM402 262q-15 0 -17.5 14.5t8.5 20.5q-14 0 -28 18.5t-15 36.5q-13 -11 -36.5 -17.5t-38.5 -2.5q7 -13 1.5 -33.5t-18.5 -24.5q10 -1 18.5 -13t13 -28t2.5 -29q13 9 30.5 2.5t28.5 -24.5q-4 12 7.5 24.5t23.5 12.5q-9 6 -9 17.5
t7.5 19.5t21.5 6z" />
    <glyph glyph-name="h" unicode="h" horiz-adv-x="685" 
d="M68 19q-25 1 -33 16.5t1 30t34 13.5q-25 0 -33.5 12t0 24t33.5 12q-18 0 -27.5 14t-9.5 32t9.5 32t27.5 14q-18 0 -27.5 9.5t-9.5 22.5t9.5 22.5t27.5 9.5q-13 0 -20.5 15t-10 37t0 44t10 37t20.5 15q-19 0 -29 12t-10 28t10 28t29 12q-21 0 -31.5 14t-10.5 32t10.5 32
t31.5 14q-28 0 -37.5 14t0 28t37.5 14q-4 15 7.5 26t29 16.5t33 2t20.5 -18.5q0 18 13.5 27.5t31.5 9.5t32 -9.5t14 -27.5q15 2 25 -14.5t13.5 -39.5t-1 -42t-19.5 -21q24 4 37.5 -15.5t14.5 -43.5q15 4 29.5 0.5t19.5 -19.5q-2 16 12 26t33.5 12.5t35 -3.5t18.5 -21
q6 24 20.5 28.5t25 -6.5t4.5 -35q12 12 28.5 9t30.5 -15.5t18.5 -28.5t-6.5 -29q20 6 33.5 -3t19 -26t0 -32.5t-25.5 -22.5q19 1 29 -18.5t10.5 -45t-8.5 -45t-28 -19.5q17 0 25 -17.5t8 -40.5t-8 -40.5t-25 -17.5q25 0 33.5 -14t0 -28t-33.5 -14q4 -21 -10.5 -34.5
t-35.5 -17t-38.5 4.5t-21.5 29q-5 -17 -22 -20.5t-35.5 2.5t-30 18.5t-6.5 29.5q-17 0 -25.5 13.5t-8.5 31.5t8.5 32t25.5 14q-13 0 -21 18t-9.5 43.5t3 48.5t14.5 34q-18 -3 -37 13.5t-25 36.5q-15 -14 -35 -11q5 -11 -4 -21t-27 -6q13 -7 19 -28.5t4.5 -46.5t-10 -43.5
t-23.5 -18.5q14 0 21 -13.5t7 -31.5t-7 -32t-21 -14q18 1 24 -12.5t1 -27.5t-23 -15q-1 -19 -21 -27.5t-46 -7t-45.5 11.5t-18.5 29q0 -21 -10.5 -31.5t-24 -11t-24.5 8.5t-13 28z" />
    <glyph glyph-name="i" unicode="i" horiz-adv-x="323" 
d="M75 661q-21 5 -29 18t-4.5 25.5t16.5 19.5t35 1q0 15 14 23.5t35 11.5t42.5 0t35.5 -11.5t14 -23.5q21 3 33 -8.5t15 -29t-5.5 -32.5t-28.5 -18q5 -12 -6.5 -23.5t-30 -19t-35 -7t-20.5 12.5q0 -16 -12 -23t-28 -1.5t-28 26t-13 59.5zM70 27q-16 0 -25 15t-12.5 37t0 44
t12.5 36.5t25 14.5q-20 0 -30 16.5t-10 37.5t10 37.5t30 16.5q-17 0 -27 15t-13.5 37t0 44t13.5 36.5t27 14.5q-18 0 -26.5 10.5t-9 24t8.5 23.5t27 10q0 18 12.5 26.5t29 8t28.5 -9.5t12 -27q0 15 11 22t26 7t26.5 -7t11.5 -22q15 12 26.5 7t13 -17t-13.5 -24
q18 0 26.5 -17t8.5 -39t-8.5 -38.5t-26.5 -16.5q16 0 24 -17t8 -39t-8 -39t-24 -17q12 0 19.5 -15.5t10 -39t0 -46.5t-10 -38.5t-19.5 -15.5q22 -4 27 -19.5t-5 -29t-32 -9.5q0 -25 -10 -33.5t-20 0t-10 33.5q0 -21 -19.5 -32t-46 -10.5t-46.5 11.5t-21 33z" />
    <glyph glyph-name="j" unicode="j" horiz-adv-x="345" 
d="M88 606q-15 0 -23 14t-8 32.5t8 33t23 14.5q-5 13 3 23.5t21.5 15.5t26.5 2.5t18 -16.5q3 15 21.5 19.5t41 0.5t38 -15t12.5 -27q28 0 37.5 -10.5t0 -21t-37.5 -10.5q24 0 31.5 -14t0 -27.5t-31.5 -13.5q1 -17 -18 -26t-44.5 -10t-45.5 6.5t-21 23.5q0 -22 -12.5 -29
t-26 1.5t-14.5 33.5zM-51 -171q-16 1 -24 15.5t-6.5 33.5t10.5 32.5t26 12.5q-11 13 -3.5 26.5t22.5 18.5t26 -8q-7 13 -0.5 25t20 20.5t27.5 8.5q-11 15 -10.5 36.5t12.5 37.5t34 15q-21 0 -32 12t-11 27.5t11 27.5t32 12q-29 0 -38.5 15t0 30t38.5 15q-24 0 -32 12t0 24
t32 12q-22 0 -29.5 10t0 20t29.5 10q-29 0 -38.5 16t0 31.5t38.5 15.5q-19 0 -29 13.5t-10 31t10 30.5t29 13q-5 17 7 26.5t27 7t20 -19.5q0 12 10.5 18t23.5 6t23.5 -6t10.5 -18q3 18 14.5 25t25.5 5t23.5 -12t6.5 -28q16 0 24 -14.5t8 -33.5t-8 -33.5t-24 -14.5
q19 0 28.5 -11t9.5 -25t-9.5 -25t-28.5 -11q21 0 28 -11t0 -22t-28 -11q17 0 25.5 -19.5t8.5 -44.5t-8.5 -44.5t-25.5 -19.5q16 0 24 -17t8 -39t-8 -39t-24 -17q21 -4 29 -21t4 -36t-18 -31.5t-35 -8.5q11 -10 6.5 -25.5t-17.5 -29t-28.5 -19t-26.5 5.5q4 -17 -8 -30.5
t-32 -21.5t-41.5 -9.5t-38 5t-20.5 23.5q0 -17 -14 -26t-33 -9.5t-34.5 7t-18.5 22.5z" />
    <glyph glyph-name="k" unicode="k" horiz-adv-x="643" 
d="M70 95q-29 0 -39 12t0 24t39 12q-20 0 -30 13.5t-10 30.5t10 30.5t30 13.5q-17 0 -27.5 16t-14 39t0 46t14 39t27.5 16q-13 0 -21.5 14.5t-11 36t0 43t11 36t21.5 14.5q-20 0 -30 14.5t-10 33.5t10 33.5t30 14.5q-24 -2 -33.5 12t-3 30t30.5 18q1 17 11.5 25.5t23.5 8
t23 -9.5t10 -26q-1 19 16.5 30t41 12t42 -8t19.5 -28q18 -1 26.5 -21.5t8.5 -47.5t-9.5 -47t-27.5 -20q16 0 24 -15.5t8 -36.5t-8 -36.5t-24 -15.5q18 1 27 -16.5t8 -35.5q3 -1 5 -3q3 18 19.5 30t35.5 0q-14 9 -11.5 23.5t14 23.5t26.5 0q-3 16 12.5 27.5t38 16t41 -0.5
t21.5 -21q0 23 12 30.5t24 0t12 -30.5q-1 25 13.5 33.5t29.5 0.5t15 -33q13 -9 11 -26t-13.5 -33.5t-26.5 -24t-28 1.5q15 -11 10 -34.5t-21.5 -46t-35.5 -32.5q17 -7 26 -25.5t6 -37t-22 -26.5q14 6 31.5 -6.5t31 -34t16.5 -42t-11 -29.5q15 9 30 2.5t24 -21t8.5 -30.5
t-15.5 -26q0 -20 -17.5 -30t-40 -10t-40 10t-17.5 30q-2 -19 -19 -26.5t-37.5 -5t-35.5 13.5t-13 30q-22 -13 -35 -8t-11 18.5t23 26.5q-11 -7 -26.5 4t-29.5 31t-22 41q-14 -11 -29 -7q9 -12 10.5 -34t-4.5 -40t-20 -18q10 -22 -1.5 -35.5t-29 -13t-27.5 22.5
q0 -15 -11.5 -23t-26 -8t-26 8t-11.5 23q0 -27 -11 -33.5t-22.5 17.5t-12.5 86z" />
    <glyph glyph-name="l" unicode="l" horiz-adv-x="323" 
d="M70 31q-13 0 -20.5 14t-10.5 35t0 42t10.5 35t20.5 14q-19 0 -28.5 17t-9.5 39t9.5 39t28.5 17q-20 0 -30 9.5t-10 22.5t10 22.5t30 9.5q-20 0 -30 18.5t-10 43.5t10 43.5t30 18.5q-21 0 -31.5 10.5t-10.5 23.5t10.5 23.5t31.5 10.5q-15 0 -24.5 14t-12.5 35t0 42
t12.5 35t24.5 14q-4 23 4.5 32t19 3t14.5 -29q0 17 14.5 27t35.5 13.5t42.5 0t36 -13.5t14.5 -27q19 0 28.5 -19.5t10 -45t-8.5 -45.5t-28 -20q16 0 26 -15t13 -37t0 -44t-13 -37t-26 -15q19 0 28.5 -11t9.5 -25t-9.5 -25t-28.5 -11q15 0 23 -10.5t8 -23.5t-8 -23.5
t-23 -10.5q19 0 28.5 -20.5t9.5 -47.5t-9.5 -47.5t-28.5 -20.5q20 0 29.5 -12t9.5 -28t-9.5 -28t-29.5 -12q13 -18 7.5 -31t-19 -13t-26.5 18q0 -29 -16 -38.5t-31.5 0t-15.5 38.5q0 -16 -12.5 -24t-28 -7.5t-28 10t-13.5 27.5z" />
    <glyph glyph-name="m" unicode="m" horiz-adv-x="938" 
d="M70 154q-16 0 -23.5 20.5t-7.5 47.5t7.5 47.5t23.5 20.5q-18 0 -27.5 18t-9.5 41.5t9.5 41.5t27.5 18q-12 7 -10.5 23.5t11 33.5t23 26.5t25.5 2.5q0 19 11.5 28.5t26 9.5t26 -9.5t11.5 -28.5q0 25 9.5 33t19.5 0t10 -33q15 10 26.5 5.5t15.5 -14.5q16 14 40.5 23t45.5 9
t27 -15q4 13 20.5 16t37.5 -1t41 -13t31.5 -21t7.5 -25q20 10 33 7q14 3 25 -9q-7 13 -2 23t17 10t25 -14q-5 14 4.5 26t26 18t31.5 3t20 -18q5 13 24 14.5t41.5 -6.5t37.5 -20.5t10 -25.5q17 7 33 -5t26 -33.5t9 -41.5t-18 -28q17 1 28 -13.5t15 -36t1 -43t-13 -36.5
t-27 -15q29 0 38.5 -14t0 -28t-38.5 -14q16 0 24 -11.5t8 -26.5t-8 -26.5t-24 -11.5q22 -7 25 -24t-9 -29t-34 -5q0 -20 -15 -30t-35 -10t-35 10t-15 30q-1 -20 -16.5 -26.5t-31 1t-14.5 27.5q-16 0 -23.5 16.5t-7.5 37.5t7.5 37.5t23.5 16.5q-15 0 -23 20.5t-9 49t5 53
t19 30.5q-12 -1 -22.5 10.5t-15.5 26.5q-12 -14 -29 -25t-31 -13q13 -10 7 -25.5t-30 -15.5q15 0 22 -16t7 -37.5t-7 -37.5t-22 -16q16 0 23.5 -15.5t7.5 -35t-7.5 -34.5t-23.5 -15q3 -19 -7 -30t-25.5 -14t-29 4.5t-16.5 25.5q0 -21 -14.5 -32t-33.5 -11t-33.5 11t-14.5 32
q-33 -11 -36 -2t30 20q-21 0 -28 11t0 22t28 11q-11 0 -17.5 15t-8.5 38t0 45.5t8.5 37.5t17.5 15q-16 0 -22.5 9.5t-3 20t16.5 13.5q-11 1 -22 15.5t-16 31.5q-12 -14 -31 -23.5t-35 -5.5q8 -13 11 -35.5t1 -45.5t-9.5 -39.5t-19.5 -15.5q18 0 23.5 -15t0 -30t-23.5 -15
q15 -5 19 -18.5t0 -29t-15 -25t-26 -5.5q0 -21 -12 -31t-28 -10t-28 10t-12 31q0 -17 -12 -23.5t-28 5t-28.5 47t-13.5 100.5z" />
    <glyph glyph-name="n" unicode="n" horiz-adv-x="674" 
d="M68 19q-16 1 -24 13t-7.5 28t9 27.5t24.5 11.5q-19 0 -29 18.5t-10 43t10 43t29 18.5q-18 0 -26.5 19.5t-8.5 44.5t8.5 44.5t26.5 19.5q-21 0 -31.5 12t-10.5 27.5t10.5 27.5t31.5 12q-15 3 -21 14t-4 24t11 21.5t24 6.5q0 17 15 27t38 13.5t45.5 0t37.5 -13.5t15 -27
q12 13 27.5 8.5t25.5 -16.5q10 16 31 18.5t34 -20.5q-3 17 10.5 28.5t33.5 15.5t37 -1.5t20 -22.5q7 12 23.5 12.5t36 -7.5t36.5 -20t25.5 -26t1.5 -26q22 10 35 2t11.5 -23.5t-23.5 -25.5q18 2 29 -12t13.5 -33.5t-4.5 -36t-25 -18.5q19 0 28.5 -20.5t9.5 -47.5t-9.5 -47.5
t-28.5 -20.5q21 0 27.5 -14t0 -28t-27.5 -14q18 -2 25.5 -14.5t5.5 -27t-12.5 -24.5t-28.5 -8q0 -16 -15.5 -24.5t-36 -8.5t-36 8.5t-15.5 24.5q0 -18 -13 -27.5t-30.5 -10t-30.5 8t-14 27.5q-12 0 -17.5 20t-4 46t8.5 45.5t19 19.5q-16 0 -25 12.5t-10 29.5t5.5 32t20.5 19
q-13 1 -25 14.5t-21.5 33t-11.5 38.5q-12 -10 -28.5 -14t-29.5 0q5 -12 3 -27t-9 -26t-19 -10q18 0 23.5 -9.5t0 -19.5t-23.5 -10q15 0 23 -19t8 -44t-8 -44.5t-23 -19.5q15 -9 16 -23.5t-7 -27.5t-22 -18.5t-29 4.5q0 -15 -15 -23.5t-37.5 -12t-45.5 -1t-39 10t-17 20.5z
" />
    <glyph glyph-name="o" unicode="o" horiz-adv-x="642" 
d="M229 23q-5 -15 -18.5 -19.5t-28 0.5t-23 16.5t-3.5 26.5q-9 -8 -24 -1t-30.5 22t-27 33.5t-15 34.5t5.5 23q-27 -4 -38.5 8.5t-4.5 28t34 19.5q-15 0 -22.5 11t-8 25.5t7 26t22.5 11.5q-16 3 -21.5 18t-2 32.5t14 29.5t26.5 9q-17 11 -19 26t5.5 26.5t22 15t31.5 -7.5
q-9 13 -5 25.5t15 20t24 6.5t22 -14q-7 21 1 31.5t20.5 7.5t20.5 -24q-3 16 5 25t20.5 11.5t23.5 -3.5t14 -21q0 15 14.5 22.5t33.5 7.5t33.5 -7.5t14.5 -22.5q4 21 19.5 29t32.5 4.5t27.5 -17t6.5 -35.5q7 14 20.5 15t26 -5.5t18 -18.5t-2.5 -26q16 11 32 4.5t26.5 -21.5
t11.5 -32.5t-15 -27.5q17 1 28.5 -12t17 -33.5t4.5 -42t-9.5 -36.5t-25.5 -17q21 -4 28 -20.5t3.5 -36t-17 -32.5t-33.5 -9q15 -10 16.5 -23.5t-6.5 -24.5t-21 -14.5t-28 6.5q9 -14 5 -26.5t-15.5 -19.5t-25 -6t-21.5 15q6 -19 -6 -30t-27.5 -8.5t-21.5 22.5q4 -24 -9 -33.5
t-28.5 -3.5t-18.5 29q2 -43 -30 -43t-102 50zM387 180q-11 1 -15.5 16t-4 35.5t5.5 36.5t15 19q-10 0 -19.5 14t-15 32.5t-4.5 32.5q-9 -8 -22 -6t-20 13q-1 -8 -6 -10t-11 2q3 -14 -1.5 -32.5t-13.5 -32.5t-20 -14q12 -3 15.5 -17t-1.5 -27.5t-18 -13.5q11 2 19.5 -11.5
t12 -31.5t0.5 -31q14 8 42 9t62 17z" />
    <glyph glyph-name="p" unicode="p" horiz-adv-x="661" 
d="M70 -59q-18 0 -26.5 20t-8.5 46t8.5 46t26.5 20q-19 0 -28.5 15t-9.5 35t9.5 35t28.5 15q-21 0 -31.5 10.5t-10.5 23.5t10.5 23.5t31.5 10.5q-22 0 -29.5 10t0 20t29.5 10q-16 0 -24.5 14.5t-8.5 33.5t8.5 33.5t24.5 14.5q-21 0 -31.5 15t-10.5 35t10.5 35t31.5 15
q-12 17 -9.5 27t13 9t22.5 -18q0 22 12.5 29t25.5 0t13 -29q2 15 17 21t34.5 4t33 -11t12.5 -23q5 18 19.5 23t28.5 -1.5t17 -20.5q7 15 26.5 24.5t39.5 9.5t26 -17q2 22 15.5 32t30 8.5t27.5 -14t9 -34.5q9 10 28 2t38 -24.5t29 -34.5t2 -28q18 4 30.5 -11t17.5 -37.5
t-0.5 -41.5t-23.5 -23q15 0 22.5 -14t7 -32.5t-8 -32t-22.5 -13.5q20 -6 25.5 -24t0 -39t-19.5 -34t-34 -7q16 -14 17 -29.5t-8.5 -26t-25 -12t-31.5 12.5q4 -15 -14 -27.5t-44 -18.5t-48 -3t-26 18q-7 -15 -23.5 -16.5t-33 6.5t-25.5 21q-5 -9 -14 -14t-20 -4
q10 -16 11 -42t-6.5 -46.5t-24.5 -20.5q22 2 34 -8t13 -24t-9 -25.5t-32 -13.5q-2 -22 -17.5 -28t-29.5 2.5t-12 30.5q-1 -17 -14.5 -25.5t-33.5 -7t-40 16.5t-33.5 45t-14.5 78zM401 189q-9 1 -13 14.5t-3.5 31.5t5 33.5t12.5 21.5q-9 0 -21 10.5t-22 25.5t-13 28
q-7 -11 -19 -11.5t-20 9.5q-2 -12 -12.5 -22.5t-21.5 -9.5q9 -7 5 -17t-19 -8q11 0 17 -12.5t7.5 -30t-3 -32.5t-13.5 -19q10 2 15.5 -7t2.5 -17q10 5 28.5 4.5t41.5 -0.5t46 8z" />
    <glyph glyph-name="q" unicode="q" horiz-adv-x="661" 
d="M402 -151q-16 0 -24 13.5t-8 31.5t8 32t24 14q-23 0 -33 11.5t-7 23.5q-16 2 -29 14.5t-11 30.5q-9 -12 -29 -19t-42.5 -7.5t-39 6t-18.5 21.5q-8 -18 -21.5 -22.5t-25.5 1t-17.5 18.5t2.5 31q-14 -11 -28 -8t-23.5 14.5t-10 26t13.5 26.5q-15 -4 -26 8.5t-16 32t-1.5 36
t18.5 20.5q-25 -1 -33.5 11t-0.5 24.5t32 13.5q-12 2 -17 19t-4 40.5t7.5 46.5t16 37.5t22.5 12.5q-24 15 -27 28.5t10.5 17t37.5 -10.5q-13 15 -11 29t12 22.5t24.5 7t26.5 -16.5q-3 21 13 34.5t38.5 17t41.5 -5t22 -29.5q6 21 19.5 25.5t23 -6t4.5 -31.5q5 14 19.5 17
t31 -2t26.5 -16q5 12 18.5 15t27.5 -11q0 18 15 27.5t34.5 9.5t34.5 -9.5t15 -27.5q7 16 23 15t27 -13t3 -28q21 0 28 -14t0 -28t-28 -14q15 0 23 -11.5t8 -26.5t-8 -26.5t-23 -11.5q17 0 26 -12t9 -28t-9 -28t-26 -12q19 0 28.5 -15.5t9.5 -36.5t-9.5 -36.5t-28.5 -15.5
q16 0 24 -13.5t8 -30.5t-8 -30.5t-24 -13.5q16 0 24 -17t8 -39t-8 -39t-24 -17q20 0 29.5 -14t9.5 -32t-9.5 -32t-29.5 -14q34 -8 31 -21t-37 -5q0 -13 -14.5 -20.5t-35.5 -10.5t-42 0t-35.5 10.5t-14.5 20.5q0 -20 -9.5 -26.5t-20 3t-11.5 37.5zM388 171q-9 2 -11 17.5
t1.5 35t10 33.5t14.5 13q-10 -1 -15 8t-4.5 20.5t7.5 17.5q-13 -1 -29 13t-21 29q-6 -13 -19.5 -15.5t-23.5 7.5q-1 -12 -9.5 -20.5t-19.5 -6.5q12 -8 7 -20t-21 -8q10 -2 16 -15.5t7.5 -31t-1.5 -33t-11 -21.5q10 2 16.5 -6t4.5 -16q14 9 41.5 5t59.5 -6z" />
    <glyph glyph-name="r" unicode="r" horiz-adv-x="518" 
d="M70 95q-16 0 -26 14t-13 34.5t0 41.5t13 35t26 14q-21 0 -31 15t-10 35t10 35t31 15q-20 0 -30 18t-10 41.5t10 41.5t30 18q-21 0 -28.5 10t0 20t28.5 10q0 15 15.5 23t36.5 8t37 -7t16 -22q5 18 17.5 25.5t26.5 5t23.5 -13t7.5 -27.5q4 12 20.5 18t36 5.5t34 -7.5
t15.5 -21q-3 22 15.5 35t44 16.5t46.5 -5t24 -29.5q19 -1 27.5 -20t7 -43.5t-11.5 -43t-29 -17.5q16 -14 13 -28t-16.5 -19t-29.5 9q0 -15 -14 -24t-34.5 -11.5t-39.5 1.5t-29 15q3 -15 -8.5 -25.5t-25.5 -7.5q9 -16 8 -41.5t-11.5 -45t-28.5 -18.5q17 0 26 -12t9 -27.5
t-9 -27.5t-26 -12q15 -5 19.5 -18.5t0 -28t-15.5 -23.5t-26 -4q0 -19 -17 -28.5t-40 -9.5t-40.5 9.5t-17.5 28.5q0 -19 -8 -27.5t-19.5 -2.5t-20 30t-9.5 70z" />
    <glyph glyph-name="s" unicode="s" horiz-adv-x="590" 
d="M205 23q-6 -27 -18 -33t-19.5 5t-1.5 37q-7 -15 -23 -16.5t-31.5 6t-24 21t-1.5 29.5q-16 5 -20.5 17.5t0 25t16 19.5t27.5 1q0 15 12 22.5t27.5 7.5t27.5 -7.5t12 -22.5q3 15 21 21t42 4t43 -11q1 7 6 11q-5 9 0 22q-11 -9 -32 -9t-42.5 7t-34.5 19t-10 26
q-7 -20 -20 -23t-21 7.5t-1 31.5q-11 -8 -25.5 0.5t-29 25.5t-24.5 37t-12 37t9 24q-11 6 -9.5 22t11 33t22 27t23.5 4q-10 17 -1.5 30t23.5 14.5t26 -15.5q-3 16 9.5 28t32.5 19t41.5 7.5t37.5 -6.5t19 -23q2 19 15.5 26.5t29 5.5t26.5 -13t8 -29q6 19 17.5 22.5t19.5 -5.5
t2 -28q8 15 25 15t33.5 -9t25 -24t-0.5 -30q23 -7 26.5 -22t-8 -25.5t-33.5 -3.5q0 -18 -14 -26.5t-32 -8.5t-31.5 8.5t-13.5 26.5q-3 -12 -17.5 -16t-33.5 -1.5t-36 9.5q1 -13 -9 -24q22 -5 41 -18t14 -26q3 14 17 19t30 1.5t27 -13.5t8 -24q7 8 22.5 3.5t33 -17t32.5 -28
t22 -30t0 -22.5q21 1 31 -9t10.5 -23t-9 -23t-29.5 -11q12 -9 9.5 -25t-14 -31t-26 -21.5t-27.5 2.5q8 -18 1 -31t-21 -19t-28.5 -1t-21.5 22q2 -18 -17.5 -29t-51.5 -13t-68.5 7t-70.5 30z" />
    <glyph glyph-name="t" unicode="t" horiz-adv-x="532" 
d="M259 38q-11 -16 -30 -15.5t-36.5 12.5t-25 29.5t3.5 34.5q-11 -2 -20.5 12t-16 36t-8.5 45.5t1.5 40t14.5 18.5q-17 -5 -30.5 4.5t-22 27.5t-10 37t6.5 33q-18 -3 -37 8.5t-13 30.5q-20 0 -30 13.5t-10.5 31t10 31t30.5 13.5q-5 30 14.5 43t39.5 5q-2 8 4.5 13.5
t17.5 4.5q-10 11 -10 26t10 26.5t30 11.5q-13 11 -10.5 28t14.5 31.5t28 20t30 -5.5q0 16 17.5 24t40 8t40 -8t17.5 -24q34 3 35 -10t-33 -16q21 0 30.5 -16t9 -37t-11.5 -34q21 0 39 -19t14 -40q11 12 29.5 11t32 -12t10.5 -31q22 0 33 -15t11 -35.5t-11 -35.5t-33 -15
q1 -17 -15.5 -27.5t-40.5 -13t-42 3.5q5 -16 1 -35.5t-14.5 -34.5t-26.5 -19q15 -2 21 -10.5t4 -18.5q19 2 39 -7t31.5 -24.5t4.5 -33.5q13 10 26 6t22 -15.5t9.5 -25t-11.5 -23.5q16 1 24 -11.5t8 -28t-8 -27.5t-24 -12q0 -30 -33.5 -38.5t-84.5 4.5t-105 49z" />
    <glyph glyph-name="u" unicode="u" horiz-adv-x="674" 
d="M165 29q-11 -13 -27 -10t-29.5 15t-18.5 27.5t6 27.5q-18 -7 -30.5 -1.5t-17.5 17t0.5 24.5t23.5 20q-21 -2 -32.5 9t-13 27t8 29t30.5 15q-20 0 -30 15t-10 35t10 35t30 15q-23 0 -30.5 10t0 20t30.5 10q-25 0 -33.5 13t0 26t33.5 13q-22 5 -30 19t-4.5 28.5t17 23
t35.5 3.5q0 18 14.5 28.5t36 14t42.5 0t35.5 -14t14.5 -28.5q20 12 35 3t17 -26.5t-18 -29.5q13 0 19.5 -12t6.5 -28t-6.5 -28t-19.5 -12q15 0 23 -13t8 -30t-8 -30.5t-23 -13.5q15 1 23.5 -10t9 -26.5t-6.5 -26.5q18 2 40.5 -7t35.5 -23q4 11 12.5 19.5t18.5 10.5
q-15 8 -10.5 24t27.5 16q-14 0 -21.5 18t-7.5 41.5t7.5 41t21.5 17.5q-20 0 -26.5 11t0 22t26.5 11q-15 2 -21.5 15t-4.5 29t11 27.5t25 9.5q0 22 11.5 33t26 11t26 -11t11.5 -33q0 23 13 30.5t26 0t13 -30.5q8 15 21 17t24.5 -4.5t16 -19t-4.5 -27.5q20 0 30 -10t10 -23.5
t-10 -24t-30 -10.5q25 0 33 -13.5t0 -27.5t-33 -14q16 0 24 -17.5t8 -40.5t-8 -40.5t-24 -17.5q20 0 29.5 -14.5t9.5 -33.5t-9.5 -33t-29.5 -14q12 -3 15 -19.5t-1.5 -37t-14 -34.5t-21.5 -11q0 -26 -14 -34.5t-28 0t-14 34.5q0 -25 -14.5 -33.5t-29.5 -0.5t-15 34
q-7 -21 -18 -27t-19.5 1t-7.5 24q-8 -16 -29.5 -21t-40.5 2.5t-19 27.5q1 -14 -14 -23.5t-40.5 -11.5t-55.5 5t-58 27z" />
    <glyph glyph-name="v" unicode="v" horiz-adv-x="630" 
d="M217 53q-20 -8 -31.5 0.5t-9 22t22.5 22.5q-14 -6 -28.5 5t-26.5 31t-18 43t-3.5 41t16.5 24q-25 -11 -37.5 -3.5t-9 22t28.5 25.5q-23 -10 -35 -3t-8.5 20.5t26.5 22.5q-16 -6 -30.5 5.5t-22.5 31t-6 38t18 25.5q-27 -11 -42 -1t-11.5 27.5t30.5 28.5q-10 25 -5.5 36.5
t16 6.5t21.5 -29q0 19 11 28.5t25 9.5t24.5 -9.5t10.5 -28.5q4 19 16.5 26.5t26.5 4.5t23 -14.5t5 -31.5q20 7 34.5 -3t21 -28t1 -35t-25.5 -24q15 5 27 -4t17.5 -25t2 -30.5t-19.5 -19.5q18 6 29.5 -2t13.5 -21q5 0 10 -3q1 14 10.5 23.5t23.5 5.5q-12 4 -12.5 20.5t6 36
t17.5 32.5t22 9q-27 9 -32 23.5t8 22.5t40 -1q-5 13 8 25t33.5 19.5t38.5 7t23 -13.5q0 22 11.5 29t23.5 0t12 -29q12 1 19 -10t8.5 -26t-4 -27t-17.5 -13q18 -8 22 -24t-2.5 -32t-20.5 -24.5t-33 -1.5q14 -5 14.5 -23.5t-8 -39t-22 -33.5t-26.5 -7q24 -10 28 -24.5t-9 -22
t-38 2.5q21 -9 24 -29.5t-6 -42.5t-26 -34.5t-38 -4.5q7 -12 -5.5 -26.5t-33 -25.5t-39.5 -13t-26 11q0 -15 -13 -22.5t-31 -5t-34.5 16t-23.5 39.5z" />
    <glyph glyph-name="w" unicode="w" horiz-adv-x="869" 
d="M171 82q-17 -5 -28.5 2t-15.5 19.5t1.5 25t22.5 18.5q-20 -7 -36.5 9.5t-24.5 42t-4 48t24 28.5q-23 -7 -34.5 1t-7 20.5t28.5 20.5q-20 -7 -35 3.5t-20.5 28.5t0.5 35t27 24q-18 -6 -31.5 4.5t-19 27.5t-1 33t22.5 22q0 21 16.5 31t38.5 10t39 -10t17 -31q12 12 29 7
t32 -19.5t19.5 -32t-7.5 -29.5q12 4 24.5 -8.5t21.5 -34t13 -42.5q9 8 20 11.5t21 -0.5q-8 10 -7 29.5t8.5 40t19 33.5t24.5 9q-5 13 10 25.5t37 19.5t41.5 5.5t23.5 -14.5q22 10 35 0.5t12 -25.5t-23 -26q17 5 29.5 -5t17.5 -26.5t0.5 -31.5t-21.5 -21q12 5 22.5 -4.5
t15.5 -23.5q8 6 18 7.5t19 -3.5q-7 13 -3 34t15.5 36t25.5 11q-13 11 -9.5 28.5t16.5 33t30 21.5t30 -5q-1 18 17 27t41 9.5t41 -8.5t18 -27q19 -6 23 -28t-4 -47t-23.5 -41t-34.5 -10q23 -8 28 -19.5t-6 -18.5t-34 0q27 -9 32 -25t-8.5 -26.5t-40.5 -1.5q18 -6 23 -21
t-0.5 -31.5t-18.5 -26.5t-31 -4q25 -8 29 -24t-8.5 -26.5t-36.5 -2.5q18 -6 22 -23t-1.5 -36t-19 -30.5t-31.5 -5.5q8 -17 -0.5 -28t-22.5 -11.5t-23 16.5q-3 -16 -22.5 -19.5t-43 2t-39.5 17t-13 27.5q-11 -4 -22 8.5t-18 31.5t-6.5 36t12.5 21q-16 -6 -32.5 17.5
t-24.5 52.5q-14 -10 -28 -3q11 -4 13 -20.5t-3.5 -37.5t-15 -41t-21 -31.5t-22.5 -7.5q24 -9 28 -22t-7.5 -20.5t-35.5 1.5q8 -22 2 -32.5t-17 -6t-19 26.5q0 -21 -17 -30.5t-41 -4.5t-45.5 27.5t-31.5 64.5z" />
    <glyph glyph-name="x" unicode="x" horiz-adv-x="630" 
d="M65 75q-14 10 -12.5 26.5t12 32t26 22.5t29.5 -2q-17 11 -19.5 25.5t4.5 27t20.5 17t30.5 -3.5q-19 13 -17.5 31t15.5 27q-5 7 -2 17t17 19q-17 -11 -34.5 -3.5t-29 24.5t-11.5 35.5t17 30.5q-20 -14 -35.5 -5t-18 26.5t18.5 31.5q-23 -16 -38 -10t-14.5 21.5t23.5 31.5
q0 17 19.5 25.5t44.5 8t44 -9.5t18 -26q8 16 25.5 17.5t35.5 -7.5t27.5 -23.5t1.5 -30.5q16 23 40.5 19t36.5 -22q9 16 22 29.5t27 19.5t24 -2q0 15 12.5 23t29 8t29.5 -8t13 -23q0 21 11.5 27.5t23.5 0t12 -27.5q12 13 21.5 12t11.5 -10.5t-10 -22.5q14 -9 11 -28
t-15.5 -38t-29.5 -28.5t-31 0.5q22 -15 21.5 -30.5t-14.5 -21.5t-35 9q17 -10 19.5 -26t-5 -30.5t-21.5 -20.5q17 -10 31 -30.5t17.5 -40.5t-10.5 -30q13 10 27 4.5t24 -19t10.5 -28.5t-13.5 -25q19 13 30.5 9.5t11.5 -16t-18 -25.5q8 -14 4 -26t-15 -18.5t-23.5 -5
t-20.5 15.5q0 -28 -13 -37.5t-26 0t-13 37.5q-8 -14 -28.5 -12t-41.5 14t-33 28.5t-4 30.5q-19 -12 -33.5 -8t-18.5 16q-3 1 -6 3q2 -12 -6 -23t-21 -14t-28 7q8 -14 1.5 -27t-21 -21t-29 -7.5t-22.5 13.5q0 -13 -15 -21t-35.5 -8.5t-39.5 7.5t-27 26t3 46z" />
    <glyph glyph-name="y" unicode="y" horiz-adv-x="636" 
d="M189 -74q-16 7 -20.5 21t0.5 28t17 22.5t27 4.5q-21 8 -23.5 20t9.5 18q-12 7 -10 21t23 23q-19 -8 -33.5 -0.5t-21 23t-1.5 31t24 23.5q-17 -7 -31 2t-21 26t-4 33t20 24q-15 -7 -30 8t-25 38t-10 44t15 27q-15 -6 -29.5 7t-24 35t-9 42t15.5 26q-30 14 -24.5 25
t35.5 -3q0 20 17.5 29.5t41 9.5t41.5 -9.5t18 -29.5q10 19 25.5 19t23.5 -13t-3 -32q24 9 35.5 2.5t6.5 -19t-29 -20.5q11 4 23 -8t21.5 -31.5t15 -41t4 -38t-12.5 -20.5q10 3 19 -2t16 -15q12 13 32 5q-20 7 -22.5 20t8 20.5t29.5 0.5q-12 5 -14 22.5t3.5 40t16 43.5
t23.5 33t25 7q-5 17 7.5 29.5t32 17.5t36.5 1t22 -21q0 20 15.5 26.5t31.5 0t16 -26.5q14 -3 17.5 -20.5t-1 -38.5t-15.5 -35t-25 -11q21 -9 24 -29.5t-6 -41.5t-26 -32.5t-38 -2.5q20 -9 21.5 -23.5t-10 -24t-31.5 -0.5q14 -6 14.5 -25t-8 -39t-22.5 -32.5t-28 -6.5
q12 -5 13 -22t-5.5 -39t-17.5 -41.5t-24.5 -30.5t-25.5 -6q16 -7 17.5 -25t-7 -37.5t-23 -31.5t-30.5 -5q18 -11 21.5 -26t-4 -27t-22.5 -15.5t-33 8.5q0 -16 -18 -24t-42 -8t-42 8t-18 24q0 -22 -5.5 -31t-9.5 -1t-1.5 37.5t17.5 85.5z" />
    <glyph glyph-name="z" unicode="z" horiz-adv-x="590" 
d="M61 83q-28 0 -37.5 13.5t0 27.5t37.5 14q-12 10 -11 22.5t9.5 23t20.5 13t24 -7.5q-11 13 -2.5 32.5t27.5 36t39.5 22t32.5 -7.5q-10 11 -6.5 25t15.5 25.5t26 16.5q-7 5 -6 11q-21 -4 -46.5 -2.5t-43.5 7.5t-18 18q2 -22 -12 -30.5t-29.5 -3t-18.5 27.5
q-23 2 -29.5 17.5t3 29.5t32.5 12q-10 10 -5.5 25.5t17.5 29t28 19t26 -4.5q0 18 12 26.5t27.5 8.5t27.5 -8.5t12 -26.5q0 22 16 29.5t32 0t16 -29.5q0 22 13.5 33t30.5 11t30.5 -11t13.5 -33q0 21 11 28t21.5 0t10.5 -28q3 17 20.5 23t38.5 2.5t35.5 -14.5t11.5 -29
q18 -2 25 -22t4.5 -45.5t-14 -44t-29.5 -16.5q14 -16 7.5 -35.5t-23.5 -34.5t-37.5 -18.5t-33.5 12.5q10 -12 4 -27.5t-20 -28t-30 -16.5t-25 8q9 -9 5 -23t-14 -26q2 -6 2 -13q0 17 17 25.5t39 8.5t38.5 -8.5t16.5 -25.5q0 22 10 29.5t20 0t10 -29.5q0 24 9.5 32t19.5 0
t10 -32q25 5 35.5 -4.5t4.5 -22.5t-30 -18q11 -8 7.5 -23.5t-15 -31t-25.5 -23t-25 0.5q0 -21 -10 -28.5t-20 0t-10 28.5q0 -15 -14 -23t-33 -8t-33.5 8t-14.5 23q0 -13 -14 -20.5t-35 -10t-41.5 0t-35 10t-14.5 20.5q0 -16 -14 -25.5t-35 -10.5t-41.5 8.5t-35 30.5
t-15.5 55z" />
    <glyph glyph-name="braceleft" unicode="{" horiz-adv-x="474" 
d="M384 -131q-5 -18 -24.5 -22.5t-42 1t-37 19t-9.5 32.5q-13 -24 -27 -26.5t-19.5 10.5t7.5 37q-10 -12 -23 -11t-23 9.5t-13 21.5t7 24q-12 -5 -25 5.5t-24 29.5t-17.5 40t-5.5 38t13 22q-26 -2 -37.5 11t-7.5 28.5t23 22.5q-19 0 -28 17t2 32q-18 -7 -36 3t-25 28.5
t7 37.5q-15 7 -15.5 24.5t8.5 35.5t23 27.5t29 2.5q-17 9 -19 28t7.5 39.5t25.5 33t33 8.5q-14 7 -17 27t2 42.5t17 37t29 11.5q-17 10 -16.5 25t13.5 22.5t30 -3.5q-12 13 -11 26.5t10.5 23t23 10.5t26.5 -12q-14 23 -7.5 37.5t22.5 13.5t30 -24q-6 20 8 34.5t36 21
t41.5 1.5t25.5 -25q13 20 31 17t26.5 -18.5t-5.5 -34.5q21 0 28 -10t0 -19.5t-28 -9.5q12 -11 8.5 -27t-16.5 -29.5t-28.5 -18.5t-27.5 6q12 -18 8 -32t-16.5 -19.5t-26.5 2.5q7 -15 1 -37t-19 -37.5t-30 -9.5q12 -4 14.5 -19.5t-2 -35.5t-13 -38.5t-20 -29.5t-23.5 -7
q26 -13 23.5 -34t-20.5 -27q16 -11 29 -30.5t17 -38.5t-8 -28q18 3 31 -7.5t19 -28t4.5 -35.5t-13.5 -30q16 2 26.5 -9t6.5 -26q13 14 29 12t24.5 -17t-0.5 -39q14 5 24 -4t14.5 -23t1.5 -27t-17 -17q16 -1 23.5 -11t3.5 -22t-21 -21t-48 -8z" />
    <glyph glyph-name="bar" unicode="|" horiz-adv-x="292" 
d="M82 -117q-28 0 -42.5 14.5t-14.5 33.5t14.5 33.5t42.5 14.5q-24 0 -36.5 16.5t-12.5 39t12.5 39t36.5 16.5q-27 0 -40 11t-13 25.5t13 25t40 10.5q-27 0 -41 16.5t-14 38t14 37.5t41 16q-24 0 -36.5 12t-12.5 28t12.5 28t36.5 12q-28 0 -41.5 20t-13.5 46t13.5 46
t41.5 20q-23 0 -34.5 13.5t-11.5 32t11.5 32.5t34.5 14q-24 0 -36.5 19t-12.5 44.5t12.5 44.5t36.5 19q-27 0 -41 19t-14 43.5t14 43t41 18.5q-32 4 -41.5 15.5t2.5 20.5t44 5q1 27 20 40t43.5 12t42.5 -15.5t17 -41.5q20 0 32 -14t15.5 -35t0 -41.5t-15.5 -35t-32 -14.5
q29 0 44 -12t15 -27.5t-15 -28t-44 -12.5q22 0 36 -15.5t18.5 -38.5t0 -46.5t-18 -39t-36.5 -15.5q32 0 42.5 -11t0 -22t-42.5 -11q29 0 43 -14.5t14 -33.5t-14 -33.5t-43 -14.5q24 0 35.5 -16.5t11.5 -37.5t-11.5 -37.5t-35.5 -16.5q23 0 37 -14.5t19 -36t0 -42.5t-19 -36
t-37 -15q39 0 51.5 -12.5t0 -25.5t-51.5 -13q29 0 44 -20t15 -46t-15 -46t-44 -20q17 -9 18.5 -26.5t-7 -35t-23.5 -26.5t-32 -1q0 -25 -13 -37t-30 -6.5t-29.5 31t-11.5 73.5z" />
    <glyph glyph-name="braceright" unicode="}" horiz-adv-x="474" 
d="M126 744q6 16 24 19t37.5 -4t31.5 -20.5t6 -29.5q14 21 29 21t20 -13.5t-9 -34.5q13 9 30.5 -2t32 -31.5t19.5 -41t-8 -29.5q27 6 39 -5.5t6.5 -27t-31.5 -22.5q18 2 26.5 -12t6 -31t-15.5 -24q13 1 24.5 -10t18 -26.5t3.5 -28.5q12 12 23.5 9.5t15.5 -16t-6 -34.5
q14 -7 13 -27t-11 -41.5t-25 -35t-29 -6.5q18 -10 17 -29t-14 -34.5t-31 -13.5q12 -6 16 -21t1 -30.5t-12.5 -26.5t-24.5 -9q22 -7 24.5 -23t-9 -27t-32.5 -4q16 -13 13 -33t-17.5 -37.5t-33.5 -24.5t-35 6q9 -15 4.5 -27.5t-16.5 -19.5t-25 -5t-21 17q8 -23 -3 -35.5
t-27 -9.5t-24 27q6 -28 -3 -39t-22 -4t-18 34q-9 -19 -26.5 -18t-28.5 14t-1 32q-17 0 -25.5 12.5t-8.5 29t8.5 28.5t25.5 12q-12 21 -5 34.5t22.5 13t27.5 -20.5q-9 21 -4.5 33.5t16 14t23.5 -12.5q-6 14 2.5 22t22.5 1q-10 12 -4.5 23t20.5 11q-17 8 -19 23.5t9.5 27.5
t36.5 9q-16 5 -18.5 23.5t3.5 39.5t19 34.5t28 8.5q-18 19 -8.5 38.5t28.5 21.5l4 7q-16 -13 -30 -11t-22 12.5t-6 24.5t18 27q-15 -3 -26.5 12t-18 38t-5.5 45.5t10 34.5q-16 -6 -33.5 2t-30.5 23.5t-16 33.5t10 32q-13 -11 -28.5 -6t-26 18.5t-12 29.5t12.5 27
q-19 0 -26.5 11.5t-0.5 26t32.5 24t72.5 6.5z" />
    <glyph glyph-name="asciitilde" unicode="~" horiz-adv-x="549" 
d="M85 363q-4 14 8 25t30 16t34 2.5t20 -15.5q4 17 26.5 22t50.5 -0.5t49.5 -18t23.5 -30.5q4 17 23.5 27t43.5 11.5t43 -7t21 -26.5q19 3 31.5 -13t15.5 -38.5t-4 -41t-27 -21.5q6 -13 -8 -27t-35.5 -23t-41 -9t-24.5 14q-4 -15 -24.5 -18.5t-44.5 2.5t-40.5 18.5
t-12.5 27.5q-5 -23 -16.5 -30t-21.5 -0.5t-11 26.5q-6 -12 -23 -16.5t-37 6.5t-34.5 43.5t-14.5 93.5z" />
    <glyph glyph-name="uni00A0" unicode="&#xa0;" horiz-adv-x="186" 
 />
    <glyph glyph-name="exclamdown" unicode="&#xa1;" horiz-adv-x="324" 
d="M252 462q21 0 31.5 -12.5t10.5 -29t-10.5 -29t-31.5 -12.5q27 0 36 -10t0 -19.5t-36 -9.5q13 -16 10 -27.5t-14.5 -12.5t-25.5 14q0 -15 -16.5 -22.5t-38.5 -7.5t-38.5 7.5t-16.5 22.5q-16 -8 -29.5 -1t-21 21.5t-5.5 29.5t18 23q-16 0 -24 14t-8 32t8 31.5t24 13.5
q-3 22 8.5 34.5t29 15.5t33 -6t18.5 -30q0 20 13 29t30.5 6.5t31 -18.5t14.5 -47zM252 130q14 0 22 -15.5t11 -38.5t0 -46t-11 -39t-22 -16q20 0 30.5 -19.5t10.5 -45.5t-10.5 -46t-30.5 -20q0 -17 -11 -26t-26.5 -9.5t-27.5 8t-12 25.5q0 -22 -12 -32.5t-27.5 -10.5
t-27.5 10.5t-12 32.5q-11 -40 -22 -37.5t0 43.5q-20 0 -26.5 16t0 32t26.5 16q-16 0 -26 14.5t-13.5 36.5t0 44t13.5 37t26 15q-21 0 -31.5 10t-10.5 23.5t10.5 24t31.5 10.5q-16 0 -23.5 12.5t-7.5 29t7.5 29t23.5 12.5q-4 17 4 27.5t21 13.5t25 -3.5t15 -23.5q0 16 17 22
t39 -2.5t39 -35.5t18 -78z" />
    <glyph glyph-name="cent" unicode="&#xa2;" horiz-adv-x="628" 
d="M237 -53q-20 -14 -39.5 -9.5t-33.5 19t-18.5 34.5t4.5 37q-14 -9 -24.5 -4.5t-12 19t12.5 35.5q-25 -17 -45.5 -12.5t-31.5 20.5t-7.5 37t28.5 38q-29 -4 -45.5 6.5t-19 27.5t10.5 31.5t42 18.5q-25 1 -37.5 12.5t-12 25.5t13.5 24.5t38 9.5q-21 10 -24.5 31.5t6.5 43
t28 33t40 1.5q-14 25 -3.5 47.5t33.5 34.5t46 7q-14 17 0 20t51 -19q-15 16 -12 33.5t16.5 30t31 14.5t32.5 -14q0 38 10.5 50.5t21.5 0t11 -50.5q19 12 34 7.5t20 -17.5t-3 -27q22 13 42 4.5t26.5 -30.5t-12.5 -48q14 18 34.5 16.5t37.5 -15.5t23.5 -33.5t-7.5 -37.5
q20 10 35 5.5t20.5 -16.5t-0.5 -26t-26 -24q-1 -19 -16.5 -28t-36 -9t-36.5 9.5t-15 28.5q-7 -17 -26.5 -21t-43 2.5t-41.5 20t-20 30.5q-6 -41 -23 -40q-9 -15 -29 -11q11 -17 14 -42t-2.5 -48.5t-19.5 -36.5q6 1 11 0q12 12 29 13.5t32 -9.5t21 -36q-4 23 14 37.5
t43.5 18.5t47 -4.5t24.5 -31.5q18 12 33.5 9.5t24 -15t6 -27.5t-19.5 -28q10 -15 0.5 -33.5t-29.5 -34t-42 -23t-36 0.5q23 -23 19.5 -43.5t-25 -25.5t-50.5 17q13 -14 11 -29t-13 -24.5t-26 -9.5t-28 15q0 -27 -13.5 -40t-31 -11.5t-30.5 18.5t-12 50z" />
    <glyph glyph-name="sterling" unicode="&#xa3;" horiz-adv-x="758" 
d="M432 32q-9 -33 -28.5 -40.5t-33.5 6.5t-7 45q-7 -21 -22 -28t-31 -2t-23 21q-4 -18 -20.5 -27t-35 -4t-27.5 28q0 -39 -15 -52t-30.5 0t-15.5 51q-2 -24 -14 -35.5t-27 -10t-25 14.5t-8 37q-26 10 -33.5 29t-0.5 37t25 27.5t44 -0.5q-20 15 -24 34.5t4 37t24 27.5
q-6 10 -4 24.5t16 27.5q-17 -14 -33.5 -11t-27 16t-9.5 29.5t18 30.5q-37 8 -47.5 21t4 20.5t52.5 -0.5q-18 25 -12.5 43t21.5 20q-8 18 4 36t43 17q-23 9 -28 28t2.5 38t24.5 29t40 1q-15 22 -7 43t27.5 34t42 12t36.5 -23q-4 24 10 39t34.5 18t38 -6.5t21.5 -34.5
q2 20 19.5 30.5t41.5 12t47 -5.5t38 -20.5t12 -33.5q12 20 32.5 22.5t39.5 -8.5t28 -29.5t-3 -39.5q26 14 47 4.5t32.5 -31t7.5 -44.5t-29 -36q17 -26 12.5 -41t-20.5 -13.5t-33 26.5q0 -39 -13 -52t-26 0t-13 52q0 -27 -10.5 -41t-23.5 -14t-23.5 14t-10.5 41
q-15 -20 -34 -19.5t-32.5 14.5t-11.5 34q-9 -10 -26 -13.5t-33 -1.5q5 -19 -4 -36q13 -4 22.5 -14t10.5 -25q10 22 28 15.5t18 -41.5q30 4 41 -2.5t2.5 -16.5t-38.5 -14q29 -5 41.5 -18.5t10 -28t-19 -23t-45.5 -3.5q0 -20 -21.5 -29t-45.5 -6q3 -14 -3 -26q23 -3 43 -15.5
t26 -29.5q5 19 23.5 28t38.5 6t30 -20q-7 23 1.5 34.5t24 6.5t28.5 -31q0 34 11 45.5t21.5 0t10.5 -45.5q12 23 27.5 25t22.5 -11.5t-5 -36.5q25 -9 33.5 -23t4.5 -26.5t-20 -18t-40 3.5q16 -17 11.5 -36.5t-20 -35t-35.5 -18.5t-36 13q6 -29 -12 -42t-55.5 -4t-88.5 44z
" />
    <glyph glyph-name="currency" unicode="&#xa4;" horiz-adv-x="634" 
d="M82 110q-23 13 -28.5 28.5t2.5 27t25 11.5q-13 11 -19.5 30.5t-5.5 39.5t11 35t30 18q-27 7 -36.5 26.5t-3.5 40t24 30.5q-18 6 -27 23t-3.5 36t28.5 31q-25 26 -26 42t15.5 15.5t41.5 -26.5q-5 24 6 34t25 5t19 -29q4 26 20 38t35.5 11t34.5 -14.5t16 -37.5
q3 20 16.5 29.5t30 9t28.5 -11.5t13 -32q-2 22 15.5 36t42 17t45 -6.5t23.5 -32.5q9 27 23.5 32.5t22.5 -7.5t-2 -41q24 24 42 22.5t19.5 -19.5t-22.5 -42q25 -21 28 -34.5t-10.5 -12.5t-38.5 23q11 -11 15 -21t3 -18q16 -11 10.5 -32.5t-39.5 -35.5q25 0 38 -14t13.5 -33
t-10 -35t-33.5 -18q23 0 36 -14.5t14.5 -34.5t-9 -36.5t-35.5 -19.5q31 -9 37 -25.5t-8 -27.5t-44 -2q11 -29 2.5 -43.5t-24.5 -10.5t-28 32q-24 -23 -42 -23.5t-21 13.5q-17 -11 -40.5 -13.5t-42 6.5t-22.5 31q-5 -23 -21 -31.5t-33 -3.5t-26 21q-1 -20 -12 -27t-23 1
q-5 -8 -34 6t-81 64zM274 214q15 13 37 4t30 -31q-11 27 2 39.5t29 1.5q-5 17 6 31.5t30 13.5q-11 11 -10 29t15 27q-16 1 -27.5 17t-8.5 31q-16 -13 -40.5 -6.5t-32.5 26.5q-5 -15 -23 -23t-32 -1q7 -16 -2 -36.5t-26 -25.5q17 -8 22.5 -28t-4.5 -35q16 5 27.5 -6t7.5 -28z
" />
    <glyph glyph-name="yen" unicode="&#xa5;" horiz-adv-x="750" 
d="M653 593q35 -17 42 -32t-9 -18t-51 15q20 -11 22 -32t-8.5 -42t-28.5 -32t-38 -1q23 -12 29 -32.5t-1 -41.5t-24 -34q13 -11 11.5 -31.5t-26.5 -38.5q18 8 33.5 -3.5t24 -31.5t6.5 -39t-20 -27q4 -29 -5.5 -44.5t-24 -17.5t-27 11t-16.5 42q0 -29 -12 -41
q1 -19 -15.5 -34t-44.5 -5q17 -13 19 -27.5t-6 -25t-22.5 -12t-31.5 11.5q0 -23 -16.5 -34.5t-37.5 -11.5t-37.5 11.5t-16.5 34.5q-19 -8 -35 3.5t-24.5 31t-6.5 38.5q-17 -11 -33 -3t-19 30q-8 -19 -23.5 -22t-29 10t-14.5 42q-25 0 -38 10.5t-13 23.5t13 23.5t38 10.5
q-30 3 -39 15.5t2.5 22.5t41.5 7q0 22 10.5 33.5t23.5 13.5q-16 19 -15 46.5t29 41.5q-22 -11 -39 -3.5t-25.5 24.5t-4 35.5t25.5 29.5q-23 -12 -39 -8t-22.5 16.5t0 28t29.5 27.5q-19 -10 -36.5 -3t-30.5 23.5t-18.5 37t-0.5 38.5t24 28q3 23 17.5 33t31.5 7.5t28 -16
t8 -36.5q2 25 19.5 36t39.5 9.5t38 -15t14 -38.5q22 11 39 6t24 -19t1 -30.5t-29 -27.5q19 10 35.5 2.5t26 -24t9 -34.5t-15.5 -30q19 10 39 1q11 24 31 40t39 6q-24 12 -28.5 34.5t6 43.5t31 31t44.5 -3q-3 27 10 42.5t32 17.5t35.5 -9.5t19.5 -38.5q-2 28 11 41.5t29 7.5
t23 -36t-7 -90z" />
    <glyph glyph-name="brokenbar" unicode="&#xa6;" horiz-adv-x="296" 
d="M84 562q-24 0 -35.5 20.5t-11.5 47.5t11.5 47.5t35.5 20.5q-37 0 -49.5 16t0 32t49.5 16q-12 19 -8.5 34t15 22.5t26.5 3.5t27 -23q0 27 10 40.5t23.5 13.5t23.5 -13.5t10 -40.5q26 0 39 -11.5t13 -26.5t-12.5 -27t-38.5 -12q29 0 44 -19.5t15 -44.5t-15 -44.5t-44 -19.5
q21 -9 26 -26.5t-2.5 -35t-23.5 -27t-36 -0.5q0 -23 -14.5 -33.5t-33 -5.5t-32 28.5t-12.5 67.5zM84 139q-30 0 -44.5 14t-14.5 32t14.5 32t44.5 14q-28 0 -42.5 11.5t-14.5 26.5t14.5 26.5t42.5 11.5q-6 22 0.5 36t19.5 17.5t25.5 -5.5t18.5 -31q13 13 29 11t28.5 -14.5
t16 -28.5t-9.5 -29q23 0 34 -17.5t11 -40.5t-11 -40.5t-34 -17.5q25 0 37.5 -11.5t12.5 -26.5t-12.5 -26.5t-37.5 -11.5q19 -15 17.5 -30.5t-16 -20.5t-33.5 10q0 -27 -15 -38t-34.5 -1.5t-33.5 45.5t-13 103z" />
    <glyph glyph-name="section" unicode="&#xa7;" horiz-adv-x="636" 
d="M221 -98q-14 -25 -38.5 -28t-48 10t-34.5 35.5t3 47.5q-28 -18 -44.5 -12.5t-14.5 22.5t30 35q1 23 12 34t25 10.5t24.5 -12t9.5 -34.5q4 19 24 26.5t45.5 5t45.5 -13.5q-1 14 6.5 29t19.5 24q1 7 4 15q-10 -16 -30.5 -19t-40.5 4t-32.5 22t-6.5 35q-13 -25 -30 -32
t-31.5 0t-19 25t8.5 43q-28 -22 -47 -17t-19.5 25t27.5 42q-29 -5 -45.5 4.5t-19 24.5t10 29t41.5 18q-16 8 -19 24t3 34.5t18.5 31.5t28.5 14q-18 6 -25.5 21t-4.5 31t16 27.5t35 9.5q-25 5 -36 20t-7.5 31.5t18.5 27t41 6.5q-20 20 -18.5 41.5t16.5 36.5t36.5 16t41.5 -19
q-6 27 8.5 44.5t37.5 23t44 -4t27 -36.5q2 26 13 38.5t24 11.5t22.5 -14.5t7.5 -40.5q9 23 31 28t45 -4t36.5 -27t4.5 -41q20 24 36 24t18.5 -16t-17.5 -39q28 15 43 11t10.5 -19t-33.5 -30q0 -16 -15.5 -26t-38.5 -13t-46 0t-38.5 13t-15.5 26q1 -26 -21.5 -38.5
t-47.5 -10.5q-1 -2 -2 -3q9 -3 13.5 -13.5t-1.5 -25.5q10 14 32.5 15t47 -7t40 -22.5t10.5 -31.5q15 20 35.5 20t37.5 -12.5t22 -32.5t-10 -40q28 8 45 1.5t20.5 -20t-7.5 -28t-38 -22.5q27 -4 39.5 -17t10.5 -27t-17.5 -23t-43.5 -5q43 -26 41.5 -43.5t-34.5 -4.5
q17 -14 17 -33.5t-14 -34t-40 -12.5q24 -6 29.5 -25.5t-6.5 -36t-41 -14.5q24 -16 29.5 -34t-3.5 -32t-28 -17t-43 12q7 -17 -1.5 -33t-26.5 -27t-38.5 -15.5t-38 1t-24.5 22.5q3 -58 -27.5 -57.5t-98.5 67.5zM336 339q-5 -17 -15 -22t-19.5 0.5t-10.5 18.5q-5 -12 -19 -18
t-28 -5q2 -12 -11 -19q6 -4 2 -12q13 6 23.5 -3.5t3.5 -27.5q8 13 22 12.5t24 -10.5t5 -26q5 21 25 23t42 -8q-6 10 -3.5 22.5t11.5 20.5q-16 10 -11 28q-8 -11 -19.5 -10t-19 10.5t-2.5 25.5z" />
    <glyph glyph-name="dieresis" unicode="&#xa8;" horiz-adv-x="509" 
d="M294 614q-11 0 -16.5 14t-6 32t5.5 32t17 14q-13 6 -11 21.5t13 27t24 5.5q0 14 11 20.5t25 6.5t25 -6.5t11 -20.5q0 18 11 24t22 0t11 -24q11 3 19.5 -6t12 -23t0.5 -26t-14 -15q12 -2 16 -16.5t1.5 -32t-11 -30t-20.5 -11.5q0 -18 -10 -24t-20 0t-10 24
q0 -12 -13.5 -17.5t-32.5 -4t-36 10t-24 25.5zM55 634q-16 0 -21.5 12t0 24t21.5 12q-10 4 -10 18t7 29.5t17 25t20 5.5q0 11 11 17t25 6t25 -6t11 -17q2 19 14 24.5t23.5 -2t9.5 -26.5q15 2 21 -9t3 -23t-17 -14q14 0 18.5 -11t0 -22t-18.5 -11q13 -1 16 -16t-2 -29.5
t-18 -13.5q2 -15 -11 -21.5t-27 -3.5t-16 18q0 -13 -13 -19t-31 -3t-34.5 16.5t-23.5 39.5z" />
    <glyph glyph-name="copyright" unicode="&#xa9;" horiz-adv-x="792" 
d="M344 24q-7 -30 -19 -37.5t-19.5 4.5t-0.5 42q-14 -37 -27.5 -46t-18.5 6.5t8 52.5q-14 -27 -27.5 -31.5t-18 9t9.5 40.5q-17 -22 -34.5 -26.5t-29.5 4.5t-13 27t16 41q-18 -14 -37 -8t-32 23t-14 37t17 34q-22 -9 -36.5 -4t-19.5 17.5t2 26.5t29 23q-19 -1 -31.5 13.5
t-17.5 37t-2 45t13.5 38.5t29.5 17q-21 6 -29.5 18.5t-5 25t17 18.5t35.5 0q-24 13 -31 30t0 30t25 16.5t42 -9.5q-19 17 -22.5 32.5t4.5 25t24 8.5t36 -17q-15 18 -15 33.5t10 23.5t25 4.5t30 -22.5q-8 23 6 41.5t38.5 28t47 5.5t31.5 -27q1 18 18.5 27.5t42 11t48.5 -4
t39.5 -17.5t14.5 -30q14 25 37 29t43.5 -7.5t29 -33t-5.5 -46.5q27 28 43.5 31t14.5 -13.5t-29 -45.5q22 14 43.5 4.5t35 -31t12.5 -44.5t-23 -37q27 7 43.5 -1.5t20.5 -24t-6.5 -30.5t-37.5 -22q28 -2 41 -22.5t11.5 -45.5t-17.5 -43.5t-45 -15.5q26 -11 35 -26.5t4 -28.5
t-22 -18t-43 5q19 -14 19.5 -32.5t-10.5 -34t-29 -20t-37 9.5q14 -20 7 -40.5t-26 -33.5t-40.5 -13t-35.5 20q8 -22 1.5 -37t-20 -19.5t-28 3t-21.5 30.5q4 -39 -14.5 -54t-49 -3t-60.5 53zM432 57q-5 20 6 31t26.5 9.5t22.5 -18.5q-4 16 5 26.5t22.5 11.5t24.5 -12
q-10 18 -3.5 32t21.5 17t30 -11q-10 16 -2 35.5t24.5 31.5t33.5 6q-13 9 -14.5 20.5t7.5 18.5t25 4q-18 8 -21.5 28t5.5 38t28 21q-15 3 -24.5 16.5t-12 31t2.5 33t20 22.5q-16 -2 -29.5 13t-19 35t4.5 32q-17 -11 -35.5 -3.5t-28 25t-0.5 35.5q-11 -12 -23 -11.5
t-18.5 10.5t-0.5 26q-10 -15 -31.5 -16t-40.5 9.5t-22 28.5q-2 -20 -12.5 -27t-20.5 0t-13 28q-2 -16 -16 -24.5t-30.5 -7t-24.5 15.5q5 -18 -4.5 -30t-24.5 -12.5t-27 14.5q8 -14 1.5 -25.5t-19 -15t-25.5 7.5q11 -13 8 -25t-14.5 -17t-25.5 3q13 -10 11.5 -23.5t-12 -21
t-25.5 -2.5q16 -9 18 -22t-7 -22.5t-26 -7.5q18 -6 23 -20.5t-3 -27t-27 -13.5q20 -3 27.5 -18.5t2.5 -32t-25 -22.5q15 1 24 -9.5t7.5 -24t-15.5 -21.5q17 6 31 -5t17.5 -28.5t-9.5 -29.5q13 8 23 5t13 -13.5t-7 -22.5q20 21 33.5 11t-1.5 -34q12 12 33 8t38 -17t16 -30
q8 30 19.5 28t7.5 -32q7 30 31.5 26t46.5 -39zM289 223q-17 -6 -31 6.5t-22 33t-5 39t19 24.5q-16 3 -23.5 18.5t-7.5 36.5t7 40.5t19.5 31.5t28.5 9q-9 16 -2 31t22 24t31.5 8.5t26.5 -15.5q-1 20 11.5 30t29 10.5t29 -9.5t12.5 -30q9 18 27.5 20t37 -7t28 -25t0.5 -34
q21 -25 16.5 -43.5t-23 -20.5t-40.5 22q-16 -27 -28 -31.5t-12 9.5q-17 -19 -46 -17q2 -19 -6 -36.5t-25 -26.5q19 -5 31 -24q9 4 20 1t20 -16q-7 25 10.5 27.5t39.5 -30.5q17 29 35.5 31.5t25.5 -15t-9 -46.5q18 -18 17.5 -31t-13.5 -14.5t-32 16.5q6 -22 -10 -36.5
t-47.5 -18t-73.5 10t-88 47.5z" />
    <glyph glyph-name="ordfeminine" unicode="&#xaa;" horiz-adv-x="351" 
d="M50 494q-6 8 1.5 21t22.5 26.5t32 24.5t32 14.5t20 -4.5q-9 12 -1 27q-20 3 -38 11.5t-20 21.5q-1 -17 -10 -22.5t-18.5 1t-10.5 24.5q-8 20 3.5 36.5t32 24.5t40 4t27.5 -24q5 15 25 17t42.5 -6t37 -21.5t9.5 -28.5q15 2 24.5 -9.5t11.5 -28t-4.5 -30t-21.5 -15.5
q21 0 32 -10t11 -23t-11 -23.5t-32 -10.5q6 -12 -2.5 -23t-23 -17.5t-28.5 -5.5t-20 13q1 -26 -24 -34.5t-63.5 7.5t-75.5 63zM147 508q10 2 22 -1.5t22 -9.5q-10 6 -8.5 20.5t10.5 23.5q-7 1 -9 9q-5 -1 -10.5 2t-6.5 9q3 -9 -6.5 -18t-21.5 -12q10 -10 8 -23z" />
    <glyph glyph-name="guillemotleft" unicode="&#xab;" horiz-adv-x="632" 
d="M525 108q-10 -11 -23 -8.5t-23.5 12t-12.5 22.5t8 24q-11 -11 -28 -8t-34 15.5t-30 29.5t-17 34t7 28q-15 -5 -27.5 7.5t-20 32.5t-5.5 38t17 23q-11 10 -10 22.5t10 22.5t21 13t24 -7q-12 12 -8 27.5t17 28t28.5 16.5t27.5 -8q-15 15 -14.5 30.5t11 26t26.5 10.5t31 -15
q-15 15 -13 31t14 27.5t28 13t30 -13.5q26 -4 33 -14.5t-1.5 -17.5t-31.5 -3q17 -4 24.5 -23t6.5 -42.5t-11 -40.5t-29 -16q16 -15 13 -34t-17 -34.5t-32 -19.5q5 -8 3 -18.5t-13 -17.5q16 3 31 -7t24.5 -26.5t9 -33.5t-15.5 -28q17 1 27 -12t12.5 -30.5t-4 -34t-22 -24
t-41.5 1.5zM198 144q-15 -16 -32.5 -14.5t-30.5 14t-15 30t13 33.5q-11 -10 -30 -1.5t-36 27t-24.5 37.5t3.5 30q-14 5 -16 22t4.5 36.5t18.5 32t26 7.5q-11 12 -6.5 29t18.5 35t32 31.5t35.5 17t28.5 -7.5q-13 12 -7.5 30t20.5 33.5t32.5 20.5t30.5 -7q20 0 30.5 -16
t10.5 -37t-10.5 -37t-30.5 -16q11 -6 8.5 -23.5t-12.5 -38t-24.5 -37.5t-27.5 -23q18 -5 21.5 -24.5t-14.5 -30.5q14 2 27.5 -8t23 -26t10.5 -31.5t-12 -24.5q15 1 23.5 -11.5t9 -29t-9 -28.5t-31 -13t-57.5 19z" />
    <glyph glyph-name="logicalnot" unicode="&#xac;" horiz-adv-x="564" 
d="M366 214q-7 -13 -22.5 -14.5t-31.5 6t-28 19.5t-13 26q-6 -12 -21 -17.5t-31 -3.5t-27.5 10.5t-11.5 24.5q0 -25 -10 -33.5t-20 0t-10 33.5q0 -21 -15.5 -28t-31.5 0t-16 28q-34 -24 -39 -17t29 31q-25 0 -33.5 13t0 26t33.5 13q-10 12 -6 26t16.5 24.5t27 13t24.5 -9.5
q0 21 17 32t39 11t39 -11t17 -32q0 17 16.5 26t39 9t39 -9t16.5 -26q0 16 13.5 24t31 8t30.5 -8t13 -24q0 25 10 33.5t20 0t10 -33.5q33 9 36 -2t-30 -20q26 0 34.5 -16t0 -32t-34.5 -16q14 0 22 -15.5t10.5 -38.5t0 -46.5t-10.5 -39t-22 -15.5q1 -21 -16.5 -30.5t-41 -4
t-42 30.5t-20.5 74z" />
    <glyph glyph-name="uni00AD" unicode="&#xad;" horiz-adv-x="600" 
d="M71 245q-16 0 -24.5 10.5t-8.5 24.5t8.5 25t24.5 11q-20 9 -20.5 26.5t12.5 28.5t34 2q0 25 15 33t29.5 0t14.5 -33q0 18 11.5 27.5t26.5 9.5t26.5 -9.5t11.5 -27.5q0 17 11.5 25.5t27.5 8.5t28 -8.5t12 -25.5q5 14 21 16t34 -4.5t28.5 -19t5.5 -26.5q19 0 28.5 -15.5
t9.5 -35.5t-9.5 -35.5t-28.5 -15.5q2 -20 -15.5 -31.5t-41.5 -13.5t-43 6.5t-21 28.5q0 -22 -11.5 -33t-26 -11t-26 11t-11.5 33q0 -17 -20 -25t-46 -6.5t-46 13.5t-21 36z" />
    <glyph glyph-name="registered" unicode="&#xae;" horiz-adv-x="792" 
d="M316 30q-10 -29 -26.5 -34t-26.5 9t0 43q-15 -28 -32.5 -30.5t-24.5 13.5t8 44q-15 -18 -32 -19t-29 9.5t-13.5 27t13.5 34.5q-24 -16 -44.5 -11.5t-31.5 21t-7.5 37t27.5 36.5q-17 -3 -30.5 11t-21.5 37t-9.5 48t6 43t25.5 21q-26 6 -36.5 23t-6.5 35.5t20 30t42 5.5
q-26 14 -33.5 30.5t-1 30t25 17t44.5 -9.5q-25 19 -26.5 34.5t13.5 17.5t40 -17q-22 23 -21 38.5t17 16.5t38 -21q-14 22 -8 41t23 29.5t36.5 7.5t33.5 -25q-7 22 0.5 36t21 18t27 -4t20.5 -29q-5 38 3.5 52t20 2.5t16.5 -50.5q4 21 21.5 30.5t41 9.5t45.5 -8t35.5 -23
t9.5 -36q13 23 27.5 29.5t25.5 0t13 -22.5t-10 -38q17 19 34.5 21.5t28.5 -7.5t11 -27.5t-17 -37.5q21 15 39 12t27.5 -16.5t6 -31.5t-25.5 -33q15 3 27 -11t20 -37t10.5 -47.5t-2 -42.5t-18.5 -21q22 -6 31.5 -22.5t9 -38t-9.5 -40.5t-25.5 -29.5t-38.5 -5.5q17 -14 17 -34
t-11.5 -40.5t-29.5 -36t-38 -19t-37 9.5q10 -20 2.5 -38t-24.5 -30.5t-37.5 -17.5t-39 1.5t-27.5 26.5q3 -34 -17 -47t-55.5 -1.5t-79.5 50.5zM412 55q-4 24 8 35.5t28 8.5t24 -22q-7 27 3.5 30t22.5 -23q-4 17 11.5 33t36.5 23t35 -3q-12 17 -5 37t25 32t37 5
q-15 11 -14.5 27.5t12 29t29.5 10.5q-18 7 -22 28.5t3.5 41.5t26.5 25q-30 -1 -31 10t29 17q-19 -1 -29.5 14t-9.5 33t18 27q-16 -5 -29 6t-17.5 27.5t6.5 28.5q-24 -20 -32 -11.5t13 31.5q-13 -10 -32.5 -3t-32 23t-6.5 32q-9 -15 -19.5 -17t-17.5 6.5t-3 24.5
q-8 -19 -23 -23t-28 4.5t-14 28.5q-4 -27 -15.5 -26.5t-14.5 27.5q-1 -20 -11.5 -27.5t-21.5 -2t-17 23.5q3 -23 -8 -26.5t-21 17.5q5 -20 -9.5 -35.5t-35.5 -19.5t-36 11q8 -16 -2.5 -36t-29 -32t-34.5 -5q14 -12 13.5 -27.5t-12 -26t-29.5 -6.5q17 -7 20.5 -20t-5 -23
t-26.5 -10q19 -4 25 -15.5t-0.5 -23t-26.5 -14.5q21 -1 28.5 -11t2 -22t-25.5 -17q12 0 23 -11.5t18 -27.5t7.5 -32t-7.5 -25q17 11 29 7t14.5 -16.5t-9.5 -26.5q17 11 38 3.5t34.5 -25.5t6.5 -38q12 18 24.5 12.5t6.5 -27.5q8 18 23 21.5t27 -5.5t11 -28q4 29 18.5 25.5
t24.5 -36.5zM273 226q-19 0 -28 14.5t-9 33t9 33t28 14.5q-18 0 -29 14t-14.5 35t0 41.5t14.5 34.5t29 14q-21 21 -17 39t21.5 22t38.5 -17q0 31 16 41t31.5 0t15.5 -41q2 23 15 33.5t29.5 9.5t28 -13t9.5 -35q17 15 37.5 8.5t36.5 -24t19.5 -38.5t-13.5 -36q21 -9 22 -32.5
t-10.5 -48t-30.5 -34.5q19 -6 29 -25.5t6 -40t-27 -30.5q-3 -22 -16 -31t-28.5 -7t-26 14t-7.5 34q-19 -7 -34.5 -3.5t-25.5 12.5q-6 -10 -18 -16.5t-30 -6.5q-1 -21 -13.5 -30.5t-27.5 -6.5t-24.5 20t-5.5 49zM344 387q14 0 23 -3.5t14 -8.5q7 10 20 13t25 -1q-1 6 3 11
q-22 14 -26 39q-9 -7 -22 -8q3 -14 -6 -28t-31 -14z" />
    <glyph glyph-name="macron" unicode="&#xaf;" horiz-adv-x="473" 
d="M55 678q-18 4 -20 20.5t7 31t27 10.5q0 11 14.5 17t33.5 6t33.5 -5.5t14.5 -17.5q0 11 14.5 17t33.5 6t33 -6t14 -17q0 15 15.5 22t35 7t34.5 -7t15 -22q4 15 19.5 16.5t28.5 -7t10 -23.5q14 0 21.5 -16.5t7.5 -37.5t-7 -37.5t-22 -16.5q2 -11 -9.5 -19.5t-28.5 -12
t-31 -0.5t-17 14q0 -14 -12 -21t-27.5 -7t-28 7t-12.5 21q0 -19 -11.5 -25.5t-23.5 0t-12 25.5q0 -18 -16 -24t-32 0t-16 24q0 -13 -10.5 -18t-25.5 2t-29 29.5t-21 64.5z" />
    <glyph glyph-name="degree" unicode="&#xb0;" horiz-adv-x="430" 
d="M90 412q-22 -11 -39 -3.5t-24.5 24t-2.5 34t27 28.5q-27 5 -38 23t-7 38.5t20.5 34t43.5 7.5q-17 19 -14 38.5t17.5 32.5t34 14t36.5 -18q-3 23 10 37t32.5 16.5t35.5 -7.5t19 -33q10 33 25 40.5t23.5 -7t-1.5 -47.5q13 13 32 6.5t35.5 -23.5t22 -36.5t-7.5 -32.5
q17 -2 26 -18t10.5 -38.5t-4.5 -44.5t-18.5 -36t-29.5 -12q26 -27 24.5 -46.5t-21.5 -21t-46 25.5q8 -28 -4.5 -45t-42.5 -18t-74.5 19.5t-99.5 68.5zM149 473q18 5 40.5 -5.5t33.5 -27.5q3 18 21.5 31t37.5 10q-5 7 -1 11.5t16 3.5q-14 10 -17.5 31.5t4.5 36.5
q-14 -4 -25.5 4.5t-13.5 22.5q-12 -13 -33 -14.5t-35 9.5q1 -15 -10.5 -29.5t-27.5 -16.5q13 -9 11.5 -22t-16.5 -20q12 -1 16 -8.5t-1 -16.5z" />
    <glyph glyph-name="plusminus" unicode="&#xb1;" horiz-adv-x="576" 
d="M226 260q-21 0 -29 16.5t-3 32.5q-19 -3 -39 6.5t-31 26.5t-2 37q-8 -14 -20.5 -16t-24 5t-16.5 18.5t3 25.5q-13 6 -14 21.5t6.5 31.5t20 24.5t25.5 2.5q0 27 10.5 37t22 3.5t14.5 -29.5q2 19 18.5 28t32.5 4q-7 21 -6.5 49t8.5 48.5t24 20.5q-4 40 7 41t15 -39
q0 15 11.5 22.5t27.5 7.5t27.5 -7.5t11.5 -22.5q13 24 24 28.5t13 -7t-11 -35.5q20 0 30 -11.5t10.5 -27.5t-9.5 -27q20 -1 38 -17.5t20 -36.5q11 13 28.5 14t31 -9.5t13.5 -33.5q28 -1 38 -13.5t2.5 -25t-32.5 -13.5q24 -2 32 -16.5t-0.5 -29.5t-35.5 -17q-2 -27 -13 -36
t-21.5 1t-9.5 37q0 -22 -8.5 -30.5t-18 -3.5t-11.5 24q-2 -14 -14.5 -22.5t-27.5 -10.5q6 -15 -4.5 -29.5t-37.5 -14.5q15 -5 19 -19.5t-1 -30.5t-16.5 -26t-27.5 -5q0 -13 -14.5 -18t-34.5 -1t-35 20.5t-16 47.5zM74 39q-24 0 -32.5 13.5t0 27t32.5 13.5q-16 12 -13 27.5
t17 22.5t30 -5q0 16 14.5 24t33.5 8t33.5 -8t14.5 -24q0 15 12 23t28 8t28 -8t12 -23q0 17 11.5 25.5t26.5 8.5t26.5 -8.5t11.5 -25.5q0 19 12.5 28.5t29.5 9.5t29.5 -9.5t12.5 -28.5q9 15 22 17.5t24.5 -4t16 -19t-4.5 -27.5q28 0 37 -11.5t0 -23.5t-37 -12q5 -13 -6 -24.5
t-29 -18t-34 -5t-21 14.5q0 -18 -14 -27.5t-32 -9.5t-32 9.5t-14 27.5q0 -17 -15 -25.5t-35 -8.5t-35 8.5t-15 25.5q0 -14 -14.5 -22.5t-36 -11t-43.5 2t-36.5 15.5t-15.5 30z" />
    <glyph glyph-name="uni00B2" unicode="&#xb2;" horiz-adv-x="369" 
d="M48 443q-12 16 -5.5 28.5t20.5 15t26 -12.5q-10 12 -2.5 24t20.5 15.5t23 -9.5q-11 14 0.5 26.5t25.5 8.5q-7 10 -6 29q-14 -4 -22 6q-3 -10 -18.5 -11t-34 4.5t-30.5 14.5t-9 20q-11 6 -10.5 19t8 26t19 19.5t22.5 -0.5q-3 9 12.5 19t38 16.5t40.5 7t21 -8.5q3 14 16 19
t28.5 2t26 -12.5t7.5 -24.5q11 16 24 15t18 -12.5t-6 -27.5q13 4 23 -6t15 -25.5t1.5 -29.5t-16.5 -18q16 -7 16 -21t-10 -23.5t-26 -3.5q14 -14 2.5 -33t-28.5 -25q5 -10 -6 -19q13 1 30.5 -6t29 -17.5t7.5 -20.5q16 -3 18.5 -18.5t-6 -28t-25.5 -9.5q0 -14 -16.5 -21.5
t-38.5 -7.5t-39 7t-17 22q0 -14 -15.5 -21t-36 -7t-36 7t-15.5 21q0 -12 -10 -16t-23 4t-22.5 32t-8.5 68z" />
    <glyph glyph-name="uni00B3" unicode="&#xb3;" horiz-adv-x="365" 
d="M166 350q-2 -12 -12.5 -16.5t-23 -2.5t-21 9.5t-6.5 19.5q-8 -12 -21.5 -11.5t-26 8.5t-18 20.5t2.5 23.5q-13 1 -16 15t1.5 27.5t17.5 12.5q1 11 14.5 15.5t31.5 3.5t33.5 -6.5t18.5 -14.5q-1 11 15 21q-3 6 0 13q-5 -13 -19 -13t-24.5 9t-5.5 23q-12 7 -5.5 28.5
t19.5 37.5q-9 2 -15 8.5t-5 15.5q-7 -8 -20 -4.5t-24.5 14t-17 23t1.5 20.5q-7 7 -2.5 17.5t14 19.5t20 12t17.5 -4q0 13 11 19.5t25 6.5t25 -6.5t11 -19.5q0 16 11.5 21.5t23.5 0t12 -21.5q0 15 15 20t30 0t15 -20q4 14 16.5 16t22.5 -6t6 -23q11 -1 15 -13.5t2 -28
t-9 -26.5t-19 -9q11 -16 1 -29q10 -9 14 -23.5t-8 -23.5q11 1 19 -15t10.5 -38t-0.5 -39.5t-14 -18.5q7 -11 -1 -25t-23.5 -25.5t-31.5 -15t-24 6.5q2 -17 -14.5 -25.5t-36.5 -5t-28 21.5z" />
    <glyph glyph-name="acute" unicode="&#xb4;" horiz-adv-x="450" 
d="M64 627q-11 9 -10 21t9.5 22.5t20.5 14t23 -5.5q-10 8 -6 22.5t15.5 28.5t25.5 21t23 -1q-1 13 11.5 21.5t30.5 10.5t32.5 -3t15.5 -19q0 12 13.5 17.5t30.5 5.5t30 -5.5t13 -17.5q10 10 21.5 4.5t17 -17t-3.5 -20.5q11 -14 4 -27t-21.5 -17.5t-25.5 9.5q10 -12 4 -23.5
t-18.5 -15.5t-22.5 8q11 -13 6 -24t-17 -13.5t-23 10.5q4 -9 -5.5 -18t-24.5 -15.5t-28.5 -7.5t-17.5 7q0 -16 -12.5 -21.5t-25.5 0t-13 21.5q0 -13 -10.5 -19t-24.5 -3.5t-25 14.5t-12 35z" />
    <glyph glyph-name="uni00B5" unicode="&#xb5;" horiz-adv-x="699" 
d="M78 -156q-16 0 -23.5 16t-7.5 37.5t7.5 37.5t23.5 16q-20 0 -30 20t-10 46t10 46t30 20q-20 0 -30 14.5t-10 33.5t10 33t30 14q-22 0 -33 15t-11 35t11 35t33 15q-18 0 -26.5 16t-8.5 37.5t8.5 37.5t26.5 16q-22 0 -32.5 11.5t-10.5 26.5t10.5 26.5t32.5 11.5
q-4 12 7.5 22.5t29 17.5t33.5 6.5t20 -12.5q0 18 17 26.5t39 9t39 -8.5t17 -27q12 0 18.5 -14t8.5 -34.5t-1 -40.5t-10 -34t-18 -13q11 0 17.5 -19t7.5 -44.5t-3.5 -48t-13.5 -30.5q14 5 25 -2.5t14 -18.5q14 9 32 10.5t32 -5.5q0 13 8.5 26.5t23.5 13.5q-16 2 -20 13.5
t2.5 22t24.5 10.5q-13 0 -19 17.5t-6 40t6 40t19 17.5q-14 2 -20 16.5t-4 33t11 32t23 11.5q0 24 13 32t25.5 0t12.5 -32q0 28 15 37.5t30 0t15 -37.5q0 20 11.5 29.5t26 9t25.5 -10.5t10 -30q16 0 25.5 -14t12.5 -35t0 -41.5t-12.5 -34.5t-25.5 -14q12 0 19 -16t9.5 -39
t0 -46t-9.5 -39t-19 -16q20 0 30.5 -13t10.5 -30.5t-10.5 -30.5t-30.5 -13q26 0 34.5 -14t0 -28t-34.5 -14q26 -9 32 -19t-5 -15t-37 4q0 -19 -17.5 -29t-40 -10t-40 10t-17.5 29q-8 -21 -24.5 -23t-27 10t-2.5 33q-13 -18 -27.5 -15t-15.5 19q-14 -14 -41.5 -25t-50.5 -12
q13 -12 13.5 -30t-10.5 -32.5t-33 -14.5q16 0 24 -15.5t8 -36t-8 -36t-24 -15.5q2 -20 -7 -31t-22 -12.5t-24 8t-13 29.5q0 -28 -15 -37.5t-30 0t-15 37.5q0 -16 -11 -23.5t-25.5 -6t-25.5 13t-12 34.5z" />
    <glyph glyph-name="paragraph" unicode="&#xb6;" horiz-adv-x="709" 
d="M250 23q-25 0 -38 10.5t-13 23.5t13 23.5t38 10.5q-30 0 -44.5 13.5t-14.5 30.5t14.5 30.5t44.5 13.5q-25 0 -37.5 14.5t-12.5 33.5t12.5 33.5t37.5 14.5q-19 0 -30 4.5t-14 10.5q-21 0 -42 10.5t-32.5 27t-3.5 35.5q-24 -27 -41 -28t-18 16t23 44q-25 -13 -42.5 -11
t-24 14t1.5 28t33 29q-27 1 -40 18t-12.5 38.5t15 37.5t41.5 15q-10 11 -6.5 27.5t16.5 33t30 29t33.5 15.5t27.5 -8q-3 27 9.5 41.5t30.5 16.5t33 -10t18 -39q0 24 12 36t27.5 12t27.5 -12t12 -36q0 24 19.5 36.5t44.5 12.5t44.5 -12.5t19.5 -36.5q0 39 13 52t26 0t13 -52
q0 27 12.5 41t29 14t29 -14t12.5 -41q26 13 40 7.5t10.5 -20.5t-29.5 -28q24 0 38 -14.5t19 -36t0 -42.5t-19 -35.5t-38 -14.5q25 0 37.5 -14t12.5 -32.5t-12.5 -32t-37.5 -13.5q24 0 35.5 -10.5t11.5 -24t-11.5 -23.5t-35.5 -10q25 0 37.5 -20t12.5 -46t-12.5 -46
t-37.5 -20q24 0 36.5 -14.5t12.5 -33.5t-12.5 -33t-36.5 -14q31 0 41 -15t0 -30t-41 -15q17 -5 21 -24t-2.5 -40.5t-20 -35.5t-30.5 -9q0 -25 -13 -37t-30 -12t-30 12t-13 37q-17 0 -26.5 15.5t-12.5 37.5t1 44t14 37t27 14q-21 0 -31.5 15t-10.5 35t10.5 35t31.5 15
q-18 0 -27 16t-9 37.5t9 37.5t27 16q-29 0 -39 10t0 20t39 10q-32 0 -42.5 16t0 32t42.5 16q-18 0 -28 12t-12.5 29t2.5 33t18 24q-13 1 -25.5 12t-21.5 25q-14 -20 -35 -27q16 -8 6.5 -20t-43.5 -12q17 0 27 -15t13.5 -37t0 -44t-13.5 -37t-27 -15q31 0 41.5 -15t0 -30
t-41.5 -15q23 0 34.5 -19.5t11.5 -45.5t-11.5 -46t-34.5 -20q22 0 33 -20t11 -46t-11 -45.5t-33 -19.5q14 -17 9 -35.5t-20.5 -31t-34.5 -14t-33 15.5q0 -35 -9.5 -43t-18.5 23t-8 113z" />
    <glyph glyph-name="periodcentered" unicode="&#xb7;" horiz-adv-x="330" 
d="M147 206q-11 -18 -28 -20.5t-31.5 6.5t-20.5 25t6 35q-15 -5 -25.5 4t-15 23.5t-1 28t18.5 18.5q-13 8 -10.5 26.5t14.5 37t27.5 29t28.5 2.5q-4 21 3.5 33t20 15t24.5 -5.5t17 -28.5q10 13 29.5 9t38.5 -18t28.5 -31.5t-0.5 -30.5q14 -3 17.5 -23t-1 -44t-15 -41
t-24.5 -15q8 -18 -1 -32t-27 -21.5t-38 -3.5t-35 22z" />
    <glyph glyph-name="cedilla" unicode="&#xb8;" horiz-adv-x="282" 
d="M80 -204q-13 -12 -23.5 -9t-12 14t11.5 23q-3 10 13.5 20t37.5 15q-13 8 -21 19t-3 20q-13 -11 -24 -7t-14 16t10 23q-14 6 -14.5 19t9 22.5t24.5 3.5q-6 7 0.5 17.5t18.5 20t23.5 13t17.5 -3.5q19 -5 20 -25t-10 -34q15 -1 32 -6.5t28 -14t8 -17.5q11 2 18.5 -8
t10.5 -24t-0.5 -26t-15.5 -14q11 -9 9.5 -21.5t-10.5 -24t-21 -16.5t-23 4q5 -22 -25.5 -25.5t-74.5 26.5z" />
    <glyph glyph-name="uni00B9" unicode="&#xb9;" horiz-adv-x="325" 
d="M130 368q-19 -1 -25 11t0 24.5t25 12.5q-14 0 -21 14t-6 32t9 29q-10 -2 -18.5 5t-9.5 18q-9 -6 -20 -2t-12 19q-11 -1 -18 12t-8.5 31t2.5 32t15 15q-9 12 -0.5 25t23 18t24.5 -6q-10 11 -3 23t20.5 16t22.5 -8q-1 12 16 19t39 8.5t39.5 -4t18.5 -18.5q13 2 21 -9.5
t10.5 -28t-2 -30.5t-17.5 -16q13 0 19.5 -11t6.5 -26t-6.5 -26.5t-19.5 -11.5q13 0 19.5 -17t6.5 -39t-6.5 -38.5t-19.5 -16.5q14 -3 18.5 -14.5t2.5 -25t-11 -22.5t-23 -7q0 -12 -14.5 -18.5t-35 -5.5t-38 10t-24.5 27z" />
    <glyph glyph-name="ordmasculine" unicode="&#xba;" horiz-adv-x="350" 
d="M67 492q-16 -3 -26.5 5.5t-14 22.5t2 26.5t21.5 16.5q-10 6 -5.5 25.5t17 41.5t28 35t25.5 7q-1 19 11 29.5t29 11.5t30.5 -7.5t15.5 -26.5q10 11 30 2.5t39.5 -26.5t29.5 -37t-1 -30q14 -5 15 -24.5t-6.5 -42.5t-20 -38t-26.5 -11q5 -21 -19.5 -31t-70.5 0.5t-104 50.5z
M219 519q-10 0 -15 14t-4.5 32t6.5 30q-12 -2 -27 0.5t-27 8.5q4 -18 2 -41.5t-10 -36.5q11 4 24.5 0.5l27 -7t23.5 -0.5z" />
    <glyph glyph-name="guillemotright" unicode="&#xbb;" horiz-adv-x="632" 
d="M369 145q-11 3 -9.5 23.5t10 46t20.5 45t23 22.5q-16 2 -24 19t-7 37.5t11 33.5q-12 -2 -21 6t-9.5 20t11.5 25q-17 -1 -27.5 14t-14.5 37t-1.5 44.5t12 38t26.5 15.5q14 16 31 14.5t30.5 -14t16.5 -29t-10 -32.5q12 13 29.5 10t35 -15t30 -29.5t16 -35t-8.5 -29.5
q11 5 23.5 -8t22 -34t11 -39t-9.5 -23q13 -12 9 -30.5t-18.5 -35.5t-32 -24.5t-31.5 3.5q9 -9 3.5 -24.5t-19.5 -32.5t-31.5 -30.5t-33 -18.5t-24.5 4q12 -12 12 -23.5t-8 -13.5t-20 11.5t-23 51.5zM79 133q-17 0 -25.5 13t-8.5 30t8.5 30.5t25.5 13.5q-13 11 -6.5 31.5
t23.5 39.5t35 26q-11 9 -10.5 24.5t19.5 23.5q-13 -7 -28.5 5t-27.5 33t-15 40.5t10 26.5q-27 0 -36.5 14t0 27.5t36.5 13.5q-1 23 11 31.5t25 1.5t15 -30q14 15 30.5 13t29 -14t14.5 -28.5t-12 -31.5q10 10 28.5 1.5t36.5 -26t26.5 -35.5t-0.5 -28q15 0 22.5 -16t7 -36.5
t-9 -35.5t-23.5 -15q14 -14 8 -34.5t-23.5 -37t-38 -22.5t-34.5 9q13 -14 8 -32.5t-21 -34t-34.5 -20t-31.5 9.5q11 -11 10.5 -21t-7.5 -12.5t-17 9t-20 43.5z" />
    <glyph glyph-name="onequarter" unicode="&#xbc;" horiz-adv-x="905" 
d="M130 368q-19 -1 -25 11t0 24.5t25 12.5q-14 0 -21 14t-6 32t9 29q-10 -2 -18.5 5t-9.5 18q-9 -6 -20 -2t-12 19q-11 -1 -18 12t-8.5 31t2.5 32t15 15q-9 12 -0.5 25t23 18t24.5 -6q-10 11 -3 23t20.5 16t22.5 -8q-1 12 16 19t39 8.5t39.5 -4t18.5 -18.5q13 2 21 -9.5
t10.5 -28t-2 -30.5t-17.5 -16q13 0 19.5 -11t6.5 -26t-6.5 -26.5t-19.5 -11.5q13 0 19.5 -17t6.5 -39t-6.5 -38.5t-19.5 -16.5q14 -3 18.5 -14.5t2.5 -25t-11 -22.5t-23 -7q0 -12 -14.5 -18.5t-35 -5.5t-38 10t-24.5 27zM205 102q-22 17 -23.5 37.5t11 37t33 20.5t42.5 -13
q-20 15 -18.5 37t15.5 41t35 25.5t40 -8.5q-22 17 -23.5 38t10.5 37.5t33 20.5t43 -13q-22 16 -20.5 40.5t18 46t39.5 29.5t45 -8q-27 20 -26.5 40t19 25.5t46.5 -15.5q-22 17 -24 37t10 36t32 19.5t42 -12.5q-14 15 -9 33.5t21 32.5t35 17t32 -13q-3 37 5.5 50t20 2
t15.5 -48q31 -23 34 -40.5t-14.5 -19t-48.5 21.5q20 -14 17.5 -36.5t-17.5 -43t-36.5 -28.5t-40.5 7q18 -14 17.5 -33.5t-13.5 -36.5t-32 -23t-37 7q26 -19 27.5 -35.5t-14.5 -19.5t-42 17q17 -12 17.5 -32t-10.5 -41t-28 -37t-36.5 -21t-36.5 7q20 -14 22 -32.5t-8.5 -32
t-28.5 -16.5t-38 12q21 -16 18.5 -40t-18.5 -45t-38.5 -30t-43.5 7q18 -14 20 -30t-7.5 -29t-26 -15.5t-34.5 11.5q3 -19 -3.5 -30.5t-16.5 -14.5t-17 6t-5 31.5t20 62.5zM705 13q-17 -8 -27 0t-8 19q-12 -5 -29 -5t-29.5 6t-12.5 18q-1 -18 -16 -24t-30 1t-15 25
q-14 -1 -22 12.5t-9.5 31.5t4.5 32t20 15q-9 7 -5.5 22.5t14.5 31t24 23.5t23 2q-14 10 -9 25t18.5 23.5t26.5 -2.5q-6 7 3.5 22t26 30t32.5 23t22 1q0 13 15 19.5t34.5 6.5t34.5 -6.5t15 -19.5q14 2 23.5 -13.5t13 -37t-1 -39t-18.5 -19.5q14 4 24.5 -6.5t15.5 -27.5
t2.5 -31t-15.5 -18q11 3 22 -9t14.5 -27t-6.5 -21q10 -7 6 -20.5t-14.5 -22.5t-20.5 -2q10 -10 8.5 -22t-10.5 -21t-21 -11t-22 8q0 -14 -13.5 -21t-31.5 -6.5t-34 9.5t-22 26zM690 147q-10 7 -5.5 17t14.5 9q-10 6 -7 21q-5 -7 -12 -10t-13 1q6 -4 6 -12t-1 -16t2 -11.5
t16 1.5z" />
    <glyph glyph-name="onehalf" unicode="&#xbd;" horiz-adv-x="875" 
d="M130 368q-19 -1 -25 11t0 24.5t25 12.5q-14 0 -21 14t-6 32t9 29q-10 -2 -18.5 5t-9.5 18q-9 -6 -20 -2t-12 19q-11 -1 -18 12t-8.5 31t2.5 32t15 15q-9 12 -0.5 25t23 18t24.5 -6q-10 11 -3 23t20.5 16t22.5 -8q-1 12 16 19t39 8.5t39.5 -4t18.5 -18.5q13 2 21 -9.5
t10.5 -28t-2 -30.5t-17.5 -16q13 0 19.5 -11t6.5 -26t-6.5 -26.5t-19.5 -11.5q13 0 19.5 -17t6.5 -39t-6.5 -38.5t-19.5 -16.5q14 -3 18.5 -14.5t2.5 -25t-11 -22.5t-23 -7q0 -12 -14.5 -18.5t-35 -5.5t-38 10t-24.5 27zM205 102q-22 17 -23.5 37.5t11 37t33 20.5t42.5 -13
q-20 15 -18.5 37t15.5 41t35 25.5t40 -8.5q-22 17 -23.5 38t10.5 37.5t33 20.5t43 -13q-22 16 -20.5 40.5t18 46t39.5 29.5t45 -8q-27 20 -26.5 40t19 25.5t46.5 -15.5q-22 17 -24 37t10 36t32 19.5t42 -12.5q-14 15 -9 33.5t21 32.5t35 17t32 -13q-3 37 5.5 50t20 2
t15.5 -48q31 -23 34 -40.5t-14.5 -19t-48.5 21.5q20 -14 17.5 -36.5t-17.5 -43t-36.5 -28.5t-40.5 7q18 -14 17.5 -33.5t-13.5 -36.5t-32 -23t-37 7q26 -19 27.5 -35.5t-14.5 -19.5t-42 17q17 -12 17.5 -32t-10.5 -41t-28 -37t-36.5 -21t-36.5 7q20 -14 22 -32.5t-8.5 -32
t-28.5 -16.5t-38 12q21 -16 18.5 -40t-18.5 -45t-38.5 -30t-43.5 7q18 -14 20 -30t-7.5 -29t-26 -15.5t-34.5 11.5q3 -19 -3.5 -30.5t-16.5 -14.5t-17 6t-5 31.5t20 62.5zM554 93q-12 16 -5.5 28.5t20.5 15t26 -12.5q-10 12 -2.5 24t20.5 15.5t23 -9.5q-11 14 0.5 26.5
t25.5 8.5q-7 10 -6 29q-14 -4 -22 6q-3 -10 -18.5 -11t-34 4.5t-30.5 14.5t-9 20q-11 6 -10.5 19t8 26t19 19.5t22.5 -0.5q-3 9 12.5 19t38 16.5t40.5 7t21 -8.5q3 14 16 19t28.5 2t26 -12.5t7.5 -24.5q11 16 24 15t18 -12.5t-6 -27.5q13 4 23 -6t15 -25.5t1.5 -29.5
t-16.5 -18q16 -7 16 -21t-10 -23.5t-26 -3.5q14 -14 2.5 -33t-28.5 -25q5 -10 -6 -19q13 1 30.5 -6t29 -17.5t7.5 -20.5q16 -3 18.5 -18.5t-6 -28t-25.5 -9.5q0 -14 -16.5 -21.5t-38.5 -7.5t-39 7t-17 22q0 -14 -15.5 -21t-36 -7t-36 7t-15.5 21q0 -12 -10 -16t-23 4
t-22.5 32t-8.5 68z" />
    <glyph glyph-name="threequarters" unicode="&#xbe;" horiz-adv-x="945" 
d="M166 350q-2 -12 -12.5 -16.5t-23 -2.5t-21 9.5t-6.5 19.5q-8 -12 -21.5 -11.5t-26 8.5t-18 20.5t2.5 23.5q-13 1 -16 15t1.5 27.5t17.5 12.5q1 11 14.5 15.5t31.5 3.5t33.5 -6.5t18.5 -14.5q-1 11 15 21q-3 6 0 13q-5 -13 -19 -13t-24.5 9t-5.5 23q-12 7 -5.5 28.5
t19.5 37.5q-9 2 -15 8.5t-5 15.5q-7 -8 -20 -4.5t-24.5 14t-17 23t1.5 20.5q-7 7 -2.5 17.5t14 19.5t20 12t17.5 -4q0 13 11 19.5t25 6.5t25 -6.5t11 -19.5q0 16 11.5 21.5t23.5 0t12 -21.5q0 15 15 20t30 0t15 -20q4 14 16.5 16t22.5 -6t6 -23q11 -1 15 -13.5t2 -28
t-9 -26.5t-19 -9q11 -16 1 -29q10 -9 14 -23.5t-8 -23.5q11 1 19 -15t10.5 -38t-0.5 -39.5t-14 -18.5q7 -11 -1 -25t-23.5 -25.5t-31.5 -15t-24 6.5q2 -17 -14.5 -25.5t-36.5 -5t-28 21.5zM245 102q-22 17 -23.5 37.5t11 37t33 20.5t42.5 -13q-20 15 -18.5 37t15.5 41
t35 25.5t40 -8.5q-22 17 -23.5 38t10.5 37.5t33 20.5t43 -13q-22 16 -20.5 40.5t18 46t39.5 29.5t45 -8q-27 20 -26.5 40t19 25.5t46.5 -15.5q-22 17 -24 37t10 36t32 19.5t42 -12.5q-14 15 -9 33.5t21 32.5t35 17t32 -13q-3 37 5.5 50t20 2t15.5 -48q31 -23 34 -40.5
t-14.5 -19t-48.5 21.5q20 -14 17.5 -36.5t-17.5 -43t-36.5 -28.5t-40.5 7q18 -14 17.5 -33.5t-13.5 -36.5t-32 -23t-37 7q26 -19 27.5 -35.5t-14.5 -19.5t-42 17q17 -12 17.5 -32t-10.5 -41t-28 -37t-36.5 -21t-36.5 7q20 -14 22 -32.5t-8.5 -32t-28.5 -16.5t-38 12
q21 -16 18.5 -40t-18.5 -45t-38.5 -30t-43.5 7q18 -14 20 -30t-7.5 -29t-26 -15.5t-34.5 11.5q3 -19 -3.5 -30.5t-16.5 -14.5t-17 6t-5 31.5t20 62.5zM745 13q-17 -8 -27 0t-8 19q-12 -5 -29 -5t-29.5 6t-12.5 18q-1 -18 -16 -24t-30 1t-15 25q-14 -1 -22 12.5t-9.5 31.5
t4.5 32t20 15q-9 7 -5.5 22.5t14.5 31t24 23.5t23 2q-14 10 -9 25t18.5 23.5t26.5 -2.5q-6 7 3.5 22t26 30t32.5 23t22 1q0 13 15 19.5t34.5 6.5t34.5 -6.5t15 -19.5q14 2 23.5 -13.5t13 -37t-1 -39t-18.5 -19.5q14 4 24.5 -6.5t15.5 -27.5t2.5 -31t-15.5 -18q11 3 22 -9
t14.5 -27t-6.5 -21q10 -7 6 -20.5t-14.5 -22.5t-20.5 -2q10 -10 8.5 -22t-10.5 -21t-21 -11t-22 8q0 -14 -13.5 -21t-31.5 -6.5t-34 9.5t-22 26zM730 147q-10 7 -5.5 17t14.5 9q-10 6 -7 21q-5 -7 -12 -10t-13 1q6 -4 6 -12t-1 -16t2 -11.5t16 1.5z" />
    <glyph glyph-name="questiondown" unicode="&#xbf;" horiz-adv-x="649" 
d="M416 427q17 -1 25 -16t6.5 -34.5t-11 -33.5t-26.5 -13q0 -20 -16 -27t-32 0t-16 27q0 -14 -12 -21t-27.5 -7t-27.5 7t-12 21q-11 -14 -24 -11t-19 15t5 26q-21 0 -32 12.5t-11 29t11 29t32 12.5q-7 11 1.5 23.5t24 22.5t30.5 12t22 -8q0 20 16 29t37.5 3t38 -29.5
t17.5 -68.5zM404 216q10 -10 1 -31t-28 -43t-40 -36.5t-35 -10.5q10 -9 9 -31t-9 -40q18 4 38.5 -1t28.5 -17q2 14 15.5 26.5t29.5 16t25 -8.5q0 15 15.5 23t36 8t36 -8t15.5 -23q0 21 11.5 27.5t23.5 0t12 -27.5q17 -2 24 -14.5t5.5 -27.5t-11 -26t-26.5 -10q15 -12 16 -26
t-7.5 -24.5t-22 -12.5t-28.5 10q6 -13 -4.5 -27.5t-30 -27t-41.5 -19.5t-40 -6t-24 14q1 -16 -16.5 -25t-41 -11t-42 4.5t-20.5 22.5q-2 -15 -16 -20.5t-31.5 -3t-29.5 11.5t-10 24q-8 -21 -22 -27t-27.5 -1t-19.5 19.5t2 35.5q-10 -8 -26.5 4t-31.5 32t-21.5 39.5t2.5 26.5
q-15 2 -21 16t-3.5 30.5t12 28.5t25.5 9q-12 10 -9.5 28t14.5 38t29 35.5t34 22t29 -3.5q-16 15 -15 32t13 29.5t29 14t33 -14.5q0 18 12 26.5t27.5 8.5t27.5 -8.5t12 -26.5q0 12 12.5 19.5t30.5 9t35 -3.5t26 -17.5t3 -31.5z" />
    <glyph glyph-name="Agrave" unicode="&#xc0;" horiz-adv-x="755" 
d="M55 94q-34 12 -42.5 25.5t6.5 19t49 -6.5q-25 9 -33 26.5t-2 34.5t23 25.5t43 -0.5q-26 9 -32.5 32t1.5 46.5t27.5 37.5t45.5 5q-23 8 -28.5 27.5t1.5 40.5t24 33t40 4q-22 8 -26.5 30.5t4 47t26 39.5t39.5 7q-16 10 -15.5 30t12.5 40.5t29 31t34 0.5q0 36 12 47.5
t23.5 0t11.5 -47.5q0 21 15 33.5t37.5 16.5t45 0t37.5 -16.5t15 -33.5q21 13 38.5 9t26.5 -18t5.5 -31.5t-25.5 -31.5q25 9 43.5 -5.5t27.5 -39t3 -47.5t-30 -32q32 12 48 0.5t10.5 -30.5t-37.5 -30q28 10 41 3t7.5 -20.5t-34.5 -23.5q30 10 44 1.5t8.5 -24t-35.5 -26.5
q18 6 33.5 -4.5t26.5 -30.5t15 -42.5t-1.5 -40.5t-23.5 -25q20 7 36 -2t27 -27.5t14 -39.5t-4 -38t-27 -24q9 -24 -2.5 -37t-28.5 -10t-26 27q0 -27 -12 -40.5t-27.5 -13.5t-27.5 13.5t-12 40.5q-15 -14 -33 -8.5t-31.5 21.5t-15.5 34q-11 -16 -25.5 -17.5t-24.5 10.5t-8 36
q-7 -24 -30.5 -33t-48.5 -3t-36 26q2 -25 -15.5 -38t-40 -8.5t-34.5 34.5q9 -19 -2.5 -36.5t-33 -28t-42 -9.5t-30.5 20q0 -35 -12.5 -47t-25.5 0t-13 47q0 -24 -7.5 -35t-15.5 -5t-9.5 31t10.5 73zM344 256q0 15 13.5 23t31.5 9t32 -4q-1 9 4.5 18.5t15.5 13.5
q-16 3 -23.5 18t-4 30.5t21.5 21.5q-17 -6 -31 12t-18 40q-9 -7 -20 -11.5t-20 -2.5q11 -11 8.5 -29.5t-14.5 -31.5t-29 -8q13 -4 16 -21t3 -36.5t2 -32.5t12 -9zM302 759q-8 -10 -21.5 -8t-25.5 11t-17 21.5t3 22.5q-9 -12 -20 -9.5t-15.5 13t5.5 22.5q-7 -9 -21.5 -4.5
t-29 16.5t-22 25.5t-0.5 22.5q-9 9 -6.5 17.5t11 11.5t17.5 -6q0 11 11 17t25 6t25 -6t11 -17q0 14 11 20.5t25 6.5t25 -6.5t11 -20.5q2 13 13 18t24.5 2.5t22.5 -10.5t7 -21q14 12 27.5 6t17 -20t-10.5 -26q13 12 28 3t20 -25t-8 -27q15 -1 19.5 -16t-1.5 -30t-21 -14
q0 -19 -10 -25.5t-20 0t-10 25.5q0 -11 -12 -16.5t-30 -5.5t-34 6.5t-24 19.5z" />
    <glyph glyph-name="Aacute" unicode="&#xc1;" horiz-adv-x="755" 
d="M55 94q-34 12 -42.5 25.5t6.5 19t49 -6.5q-25 9 -33 26.5t-2 34.5t23 25.5t43 -0.5q-26 9 -32.5 32t1.5 46.5t27.5 37.5t45.5 5q-23 8 -28.5 27.5t1.5 40.5t24 33t40 4q-22 8 -26.5 30.5t4 47t26 39.5t39.5 7q-16 10 -15.5 30t12.5 40.5t29 31t34 0.5q0 36 12 47.5
t23.5 0t11.5 -47.5q0 21 15 33.5t37.5 16.5t45 0t37.5 -16.5t15 -33.5q21 13 38.5 9t26.5 -18t5.5 -31.5t-25.5 -31.5q25 9 43.5 -5.5t27.5 -39t3 -47.5t-30 -32q32 12 48 0.5t10.5 -30.5t-37.5 -30q28 10 41 3t7.5 -20.5t-34.5 -23.5q30 10 44 1.5t8.5 -24t-35.5 -26.5
q18 6 33.5 -4.5t26.5 -30.5t15 -42.5t-1.5 -40.5t-23.5 -25q20 7 36 -2t27 -27.5t14 -39.5t-4 -38t-27 -24q9 -24 -2.5 -37t-28.5 -10t-26 27q0 -27 -12 -40.5t-27.5 -13.5t-27.5 13.5t-12 40.5q-15 -14 -33 -8.5t-31.5 21.5t-15.5 34q-11 -16 -25.5 -17.5t-24.5 10.5t-8 36
q-7 -24 -30.5 -33t-48.5 -3t-36 26q2 -25 -15.5 -38t-40 -8.5t-34.5 34.5q9 -19 -2.5 -36.5t-33 -28t-42 -9.5t-30.5 20q0 -35 -12.5 -47t-25.5 0t-13 47q0 -24 -7.5 -35t-15.5 -5t-9.5 31t10.5 73zM344 256q0 15 13.5 23t31.5 9t32 -4q-1 9 4.5 18.5t15.5 13.5
q-16 3 -23.5 18t-4 30.5t21.5 21.5q-17 -6 -31 12t-18 40q-9 -7 -20 -11.5t-20 -2.5q11 -11 8.5 -29.5t-14.5 -31.5t-29 -8q13 -4 16 -21t3 -36.5t2 -32.5t12 -9zM308 813q-10 7 -6 21.5t15.5 28.5t25 21t23.5 -1q-9 12 1 24.5t25 16.5t23 -9q0 11 17.5 17t40.5 6t40.5 -6
t17.5 -17q0 17 14 22.5t28 0t14 -22.5q7 16 17.5 17t17 -7.5t-0.5 -24.5q12 -12 8 -23.5t-15.5 -15t-23.5 7.5q10 -11 4.5 -22t-17 -14t-20.5 9q8 -11 2.5 -24t-18 -23.5t-26.5 -13.5t-23 8q10 -12 5 -22.5t-16 -13t-21 9.5q2 -12 -9.5 -19t-27.5 -8.5t-28.5 3t-14.5 16.5
q0 -14 -14 -20t-30.5 -0.5t-26.5 24t-1 54.5z" />
    <glyph glyph-name="Acircumflex" unicode="&#xc2;" horiz-adv-x="755" 
d="M55 94q-34 12 -42.5 25.5t6.5 19t49 -6.5q-25 9 -33 26.5t-2 34.5t23 25.5t43 -0.5q-26 9 -32.5 32t1.5 46.5t27.5 37.5t45.5 5q-23 8 -28.5 27.5t1.5 40.5t24 33t40 4q-22 8 -26.5 30.5t4 47t26 39.5t39.5 7q-16 10 -15.5 30t12.5 40.5t29 31t34 0.5q0 36 12 47.5
t23.5 0t11.5 -47.5q0 21 15 33.5t37.5 16.5t45 0t37.5 -16.5t15 -33.5q21 13 38.5 9t26.5 -18t5.5 -31.5t-25.5 -31.5q25 9 43.5 -5.5t27.5 -39t3 -47.5t-30 -32q32 12 48 0.5t10.5 -30.5t-37.5 -30q28 10 41 3t7.5 -20.5t-34.5 -23.5q30 10 44 1.5t8.5 -24t-35.5 -26.5
q18 6 33.5 -4.5t26.5 -30.5t15 -42.5t-1.5 -40.5t-23.5 -25q20 7 36 -2t27 -27.5t14 -39.5t-4 -38t-27 -24q9 -24 -2.5 -37t-28.5 -10t-26 27q0 -27 -12 -40.5t-27.5 -13.5t-27.5 13.5t-12 40.5q-15 -14 -33 -8.5t-31.5 21.5t-15.5 34q-11 -16 -25.5 -17.5t-24.5 10.5t-8 36
q-7 -24 -30.5 -33t-48.5 -3t-36 26q2 -25 -15.5 -38t-40 -8.5t-34.5 34.5q9 -19 -2.5 -36.5t-33 -28t-42 -9.5t-30.5 20q0 -35 -12.5 -47t-25.5 0t-13 47q0 -24 -7.5 -35t-15.5 -5t-9.5 31t10.5 73zM344 256q0 15 13.5 23t31.5 9t32 -4q-1 9 4.5 18.5t15.5 13.5
q-16 3 -23.5 18t-4 30.5t21.5 21.5q-17 -6 -31 12t-18 40q-9 -7 -20 -11.5t-20 -2.5q11 -11 8.5 -29.5t-14.5 -31.5t-29 -8q13 -4 16 -21t3 -36.5t2 -32.5t12 -9zM165 762q-11 8 -9.5 22t11.5 26.5t22.5 18t23.5 -3.5q-9 9 -6.5 21t12 22.5t21.5 14t21 -4.5q-5 9 2.5 19.5
t21 18t26.5 8t18 -8.5q0 13 16 19.5t37 6.5t37 -6.5t16 -19.5q6 10 18 9t24 -8t18 -18t0 -20q9 8 20.5 4t21 -14.5t12.5 -22.5t-6 -20q11 2 18.5 -7.5t10.5 -23t-0.5 -25.5t-14.5 -14q0 -16 -10.5 -21.5t-21.5 0t-11 21.5q-4 -11 -18 -13t-31 2.5t-30 14t-14 20.5
q-4 -10 -20 -16t-35 -7t-34 4t-15 16q2 -12 -12.5 -20.5t-34.5 -12.5t-36.5 -1.5t-19.5 13.5q0 -18 -10 -23.5t-22 1.5t-17 29z" />
    <glyph glyph-name="Atilde" unicode="&#xc3;" horiz-adv-x="755" 
d="M55 94q-34 12 -42.5 25.5t6.5 19t49 -6.5q-25 9 -33 26.5t-2 34.5t23 25.5t43 -0.5q-26 9 -32.5 32t1.5 46.5t27.5 37.5t45.5 5q-23 8 -28.5 27.5t1.5 40.5t24 33t40 4q-22 8 -26.5 30.5t4 47t26 39.5t39.5 7q-16 10 -15.5 30t12.5 40.5t29 31t34 0.5q0 36 12 47.5
t23.5 0t11.5 -47.5q0 21 15 33.5t37.5 16.5t45 0t37.5 -16.5t15 -33.5q21 13 38.5 9t26.5 -18t5.5 -31.5t-25.5 -31.5q25 9 43.5 -5.5t27.5 -39t3 -47.5t-30 -32q32 12 48 0.5t10.5 -30.5t-37.5 -30q28 10 41 3t7.5 -20.5t-34.5 -23.5q30 10 44 1.5t8.5 -24t-35.5 -26.5
q18 6 33.5 -4.5t26.5 -30.5t15 -42.5t-1.5 -40.5t-23.5 -25q20 7 36 -2t27 -27.5t14 -39.5t-4 -38t-27 -24q9 -24 -2.5 -37t-28.5 -10t-26 27q0 -27 -12 -40.5t-27.5 -13.5t-27.5 13.5t-12 40.5q-15 -14 -33 -8.5t-31.5 21.5t-15.5 34q-11 -16 -25.5 -17.5t-24.5 10.5t-8 36
q-7 -24 -30.5 -33t-48.5 -3t-36 26q2 -25 -15.5 -38t-40 -8.5t-34.5 34.5q9 -19 -2.5 -36.5t-33 -28t-42 -9.5t-30.5 20q0 -35 -12.5 -47t-25.5 0t-13 47q0 -24 -7.5 -35t-15.5 -5t-9.5 31t10.5 73zM344 256q0 15 13.5 23t31.5 9t32 -4q-1 9 4.5 18.5t15.5 13.5
q-16 3 -23.5 18t-4 30.5t21.5 21.5q-17 -6 -31 12t-18 40q-9 -7 -20 -11.5t-20 -2.5q11 -11 8.5 -29.5t-14.5 -31.5t-29 -8q13 -4 16 -21t3 -36.5t2 -32.5t12 -9zM428 751q-3 -10 -16.5 -11t-29.5 3.5t-29 13t-17 18.5q-3 -11 -16.5 -20t-30 -13t-30.5 -1.5t-18 14.5
q-2 -17 -17 -21.5t-29.5 2.5t-12.5 24q-12 3 -13 21.5t5 40.5t16.5 37.5t21.5 12.5q-10 12 -2 25.5t23.5 19t25.5 -6.5q0 9 17.5 13t40 3t39.5 -7t17 -15q2 13 17 17t32 0.5t26 -13.5q-2 11 5.5 17.5t18 5t18.5 -15.5q0 19 10 25.5t20 0t10 -25.5q7 11 21 6.5t22.5 -16
t1.5 -21.5q12 -5 11 -22.5t-9 -37t-20.5 -32t-24.5 -6.5q5 -12 -6.5 -22.5t-30 -17.5t-37.5 -6.5t-30 11.5z" />
    <glyph glyph-name="Adieresis" unicode="&#xc4;" horiz-adv-x="755" 
d="M55 94q-34 12 -42.5 25.5t6.5 19t49 -6.5q-25 9 -33 26.5t-2 34.5t23 25.5t43 -0.5q-26 9 -32.5 32t1.5 46.5t27.5 37.5t45.5 5q-23 8 -28.5 27.5t1.5 40.5t24 33t40 4q-22 8 -26.5 30.5t4 47t26 39.5t39.5 7q-16 10 -15.5 30t12.5 40.5t29 31t34 0.5q0 36 12 47.5
t23.5 0t11.5 -47.5q0 21 15 33.5t37.5 16.5t45 0t37.5 -16.5t15 -33.5q21 13 38.5 9t26.5 -18t5.5 -31.5t-25.5 -31.5q25 9 43.5 -5.5t27.5 -39t3 -47.5t-30 -32q32 12 48 0.5t10.5 -30.5t-37.5 -30q28 10 41 3t7.5 -20.5t-34.5 -23.5q30 10 44 1.5t8.5 -24t-35.5 -26.5
q18 6 33.5 -4.5t26.5 -30.5t15 -42.5t-1.5 -40.5t-23.5 -25q20 7 36 -2t27 -27.5t14 -39.5t-4 -38t-27 -24q9 -24 -2.5 -37t-28.5 -10t-26 27q0 -27 -12 -40.5t-27.5 -13.5t-27.5 13.5t-12 40.5q-15 -14 -33 -8.5t-31.5 21.5t-15.5 34q-11 -16 -25.5 -17.5t-24.5 10.5t-8 36
q-7 -24 -30.5 -33t-48.5 -3t-36 26q2 -25 -15.5 -38t-40 -8.5t-34.5 34.5q9 -19 -2.5 -36.5t-33 -28t-42 -9.5t-30.5 20q0 -35 -12.5 -47t-25.5 0t-13 47q0 -24 -7.5 -35t-15.5 -5t-9.5 31t10.5 73zM344 256q0 15 13.5 23t31.5 9t32 -4q-1 9 4.5 18.5t15.5 13.5
q-16 3 -23.5 18t-4 30.5t21.5 21.5q-17 -6 -31 12t-18 40q-9 -7 -20 -11.5t-20 -2.5q11 -11 8.5 -29.5t-14.5 -31.5t-29 -8q13 -4 16 -21t3 -36.5t2 -32.5t12 -9zM163 837q-11 4 -12.5 17.5t4 29t14.5 25.5t20 6q0 14 11.5 21.5t26.5 7.5t26.5 -7.5t11.5 -21.5q5 8 16 6.5
t22.5 -8t18 -15.5t1.5 -17q16 0 21 -13t0 -26t-21 -13q14 0 18.5 -12t0 -24t-18.5 -12q7 -11 -1.5 -21t-21 -13t-19.5 8q0 -15 -15.5 -20.5t-37 1.5t-40 31.5t-25.5 69.5zM432 825q-9 1 -11.5 15.5t0 32t9.5 30.5t16 12q0 14 14 21t32 7t32 -7t14 -21q8 7 20 2t22.5 -16.5
t15 -24t-3.5 -19.5q11 0 17 -11t6 -25t-6 -25t-17 -11q4 -11 -5.5 -20.5t-25 -15.5t-29.5 -5.5t-18 11.5q0 -11 -10 -15.5t-24.5 1.5t-27.5 26.5t-20 57.5z" />
    <glyph glyph-name="Aring" unicode="&#xc5;" horiz-adv-x="755" 
d="M55 94q-34 12 -42.5 25.5t6.5 19t49 -6.5q-25 9 -33 26.5t-2 34.5t23 25.5t43 -0.5q-26 9 -32.5 32t1.5 46.5t27.5 37.5t45.5 5q-23 8 -28.5 27.5t1.5 40.5t24 33t40 4q-22 8 -26.5 30.5t4 47t26 39.5t39.5 7q-16 10 -15.5 30t12.5 40.5t29 31t34 0.5q0 36 12 47.5
t23.5 0t11.5 -47.5q0 21 15 33.5t37.5 16.5t45 0t37.5 -16.5t15 -33.5q21 13 38.5 9t26.5 -18t5.5 -31.5t-25.5 -31.5q25 9 43.5 -5.5t27.5 -39t3 -47.5t-30 -32q32 12 48 0.5t10.5 -30.5t-37.5 -30q28 10 41 3t7.5 -20.5t-34.5 -23.5q30 10 44 1.5t8.5 -24t-35.5 -26.5
q18 6 33.5 -4.5t26.5 -30.5t15 -42.5t-1.5 -40.5t-23.5 -25q20 7 36 -2t27 -27.5t14 -39.5t-4 -38t-27 -24q9 -24 -2.5 -37t-28.5 -10t-26 27q0 -27 -12 -40.5t-27.5 -13.5t-27.5 13.5t-12 40.5q-15 -14 -33 -8.5t-31.5 21.5t-15.5 34q-11 -16 -25.5 -17.5t-24.5 10.5t-8 36
q-7 -24 -30.5 -33t-48.5 -3t-36 26q2 -25 -15.5 -38t-40 -8.5t-34.5 34.5q9 -19 -2.5 -36.5t-33 -28t-42 -9.5t-30.5 20q0 -35 -12.5 -47t-25.5 0t-13 47q0 -24 -7.5 -35t-15.5 -5t-9.5 31t10.5 73zM344 256q0 15 13.5 23t31.5 9t32 -4q-1 9 4.5 18.5t15.5 13.5
q-16 3 -23.5 18t-4 30.5t21.5 21.5q-17 -6 -31 12t-18 40q-9 -7 -20 -11.5t-20 -2.5q11 -11 8.5 -29.5t-14.5 -31.5t-29 -8q13 -4 16 -21t3 -36.5t2 -32.5t12 -9zM323 761q-9 -5 -20 6t-19 28.5t-9 33t9 19.5q-15 6 -16.5 17t7.5 18.5t23 1.5q-4 10 7.5 20.5t29 18.5t33 9
t19.5 -8q7 9 23 4.5t32 -17t25 -26.5t2 -23q11 -3 13 -18t-2 -33t-13 -30t-20 -10q7 -17 -10 -29t-48 -10t-66 28zM370 844q7 -6 15 -14t14 -12q-6 5 -9.5 15.5t-2.5 18.5q-7 -6 -17 -8zM407 815h-3h3z" />
    <glyph glyph-name="AE" unicode="&#xc6;" horiz-adv-x="1005" 
d="M48 63q-26 10 -35.5 26t-4 31t23 22t43.5 -2q-27 9 -37 23t-6 26t21 16.5t44 -4.5q-24 8 -31.5 24.5t-2 32t21.5 23.5t40 0q-24 8 -31.5 26t-1.5 36t23 27t41 1q-33 11 -40.5 26.5t8 23t48.5 -4.5q-25 9 -34 23t-4.5 27t20.5 18t41 -4q-19 7 -26 25t-3.5 40.5t15 42
t28 29.5t35.5 3q-8 18 6 35t37 26.5t44.5 8t29.5 -19.5q0 23 15 35t35 12t35 -12t15 -35q0 30 17 44.5t39 14.5t39 -14.5t17 -44.5q0 24 10.5 36.5t23.5 12.5t23.5 -12.5t10.5 -36.5q0 34 10 45.5t20 0t10 -45.5q0 39 12 51.5t24 0t12 -51.5q0 28 15 42t35 14t35 -14t15 -42
q6 23 24 31t38 3t32.5 -20t6.5 -38q22 0 34 -16.5t12.5 -38t-10.5 -38.5t-33 -18q0 -18 -11 -27.5t-25 -9.5t-25 9.5t-11 27.5q0 -23 -18 -34.5t-42 -11.5t-42 11.5t-18 34.5q0 -21 -19 -30t-39 -7q4 -15 1.5 -32.5t-11.5 -30.5q1 -11 0 -19q2 17 16 25t31.5 7.5t30.5 -9.5
t13 -27q0 21 15.5 31t36 10t36 -10t15.5 -31q13 25 27.5 28t20.5 -10.5t-7 -38.5q27 0 40.5 -11t13.5 -26t-13.5 -26t-40.5 -11q8 -21 1 -35t-21.5 -20t-29.5 0t-22 26q0 -19 -15 -29t-35 -10t-35 10t-15 29q0 -27 -12 -37.5t-24 -5.5q-4 -23 -24 -31q7 -6 7 -16
q21 5 43.5 3t38.5 -11t16 -25q0 25 15 33.5t30 0t15 -33.5q1 22 16 32t34.5 9t33.5 -12.5t13 -33.5q35 0 46.5 -12.5t0 -25.5t-46.5 -13q18 -10 20 -27t-7 -32.5t-24.5 -22.5t-33.5 3q0 -32 -15 -43t-30 0t-15 43q0 -27 -12.5 -40t-29 -13t-29.5 13t-13 40q0 -28 -19.5 -42
t-46 -14t-46 14t-19.5 42q0 -27 -13 -40t-29.5 -13t-29 13t-12.5 40q0 -28 -12.5 -42.5t-28.5 -14t-28 14.5t-12 43q-20 0 -31.5 6.5t-13.5 14.5q-12 1 -20 9t-10 22q-11 -16 -29 -17.5t-31 11.5q-3 -21 -19 -37t-37 -19t-40 14q2 -30 -9.5 -45.5t-28 -16.5t-29.5 13t-15 44
q0 -25 -17 -37t-37.5 -9t-33 22.5t-4.5 56.5zM341 256q0 28 7 37t14 0t7 -37q-1 25 17.5 36t36.5 6q-2 20 5.5 39t24.5 19q-13 0 -19.5 12t-6.5 27.5t6.5 27.5t19.5 12q-13 0 -20 12.5t-7.5 28.5t5.5 28q-2 -1 -4 -1q-11 -10 -26.5 -15.5t-27.5 -2.5q8 -13 4.5 -32t-16 -32
t-29.5 -8q19 -6 21.5 -22.5t-8.5 -28.5t-30 -7q15 -4 18.5 -21t2.5 -37t-1 -32.5t6 -8.5z" />
    <glyph glyph-name="Ccedilla" unicode="&#xc7;" horiz-adv-x="733" 
d="M320 -182q-5 14 0.5 26t16.5 20q-6 13 -4 28.5t16 29.5q-22 0 -31.5 17t-6.5 35q-16 1 -27 15t-6 40q-10 -28 -30.5 -36t-41.5 -1t-32 26.5t-2 47.5q-12 -10 -29 -3.5t-33.5 22.5t-28 36t-13.5 38t11 28q-24 -3 -38 11.5t-16.5 35t7.5 38t34 20.5q-26 -1 -39.5 9t-14 23
t13 22.5t40.5 10.5q-19 1 -29 18t-11.5 40.5t4.5 46.5t18.5 37.5t31.5 13.5q-16 11 -12 33t19.5 44t35 33t35.5 -1q-13 26 -8 44.5t20 26t32.5 0.5t30.5 -33q-5 22 2.5 35.5t21 16.5t26 -6t17.5 -31q0 23 15.5 36.5t38.5 18t45.5 0t38 -18.5t15.5 -37q7 34 22.5 43
t25.5 -5.5t3 -48.5q9 16 27 19t38 -4t36 -20.5t22.5 -30.5t-2.5 -34q31 23 49.5 20t15.5 -21t-35 -41q32 12 46.5 4.5t8.5 -22.5t-38 -27q12 -16 9.5 -30.5t-14 -23t-26 -7.5t-26.5 17q0 -27 -14 -40.5t-32 -13.5t-32 13.5t-14 40.5q0 -30 -10 -40.5t-20 0t-10 40.5
q-19 -20 -40.5 -18.5t-38 16.5t-20.5 35q-16 -14 -33 0q-4 -24 -23 -45t-41 -21q13 -9 19.5 -27t6 -38.5t-8 -38t-21.5 -24.5q21 2 37.5 -12t25.5 -35.5t7 -41.5q12 -1 15 -20q6 14 16.5 15t19.5 -13q2 21 19 38t38.5 20.5t37.5 -14.5q0 24 14.5 36.5t33.5 12.5t33.5 -12.5
t14.5 -36.5q0 33 10 44t20 0t10 -44q12 26 26.5 30t21 -9.5t-5.5 -39.5q22 -9 26.5 -28.5t-3.5 -39.5t-25 -30.5t-39 -0.5q19 -22 21.5 -39.5t-7.5 -26.5t-27.5 -5.5t-36.5 25.5q12 -25 8.5 -41.5t-15.5 -22.5t-27.5 1.5t-27.5 32.5q4 -25 -10 -41.5t-37.5 -23.5t-45.5 -4
q2 -18 -11 -32q5 -11 1 -28q20 -10 21.5 -31.5t-13.5 -41.5t-43.5 -29t-65.5 5z" />
    <glyph glyph-name="Egrave" unicode="&#xc8;" horiz-adv-x="667" 
d="M85 127q-24 0 -36.5 16.5t-12.5 39t12.5 39t36.5 16.5q-24 0 -35.5 13t-11.5 29.5t11.5 29t35.5 12.5q-37 0 -49.5 15t0 30t49.5 15q-25 0 -38 12t-13 28t13 28t38 12q-28 0 -41.5 18t-13.5 41.5t13.5 41.5t41.5 18q-19 6 -23.5 22.5t1 34t19 28t32.5 4.5q0 31 11 41
t22 0t11 -41q0 18 15 29t37.5 14.5t45 0t38 -14.5t15.5 -29q0 32 15.5 42.5t31.5 0t16 -42.5q0 27 13 40t29.5 13t29 -13t12.5 -40q0 18 14 29t34.5 14.5t41.5 0t35 -14.5t14 -29q30 -3 39.5 -12.5t-1.5 -18t-41 -5.5q26 -3 38 -19t10 -35.5t-16.5 -33t-40.5 -11.5
q0 -32 -11 -42.5t-22 0t-11 42.5q0 -30 -15.5 -40.5t-31.5 0t-16 40.5q0 -15 -15 -24t-36.5 -11t-42.5 1.5t-32 14.5q2 -12 -2 -23t-13 -19q12 -8 19.5 -19.5t8.5 -24.5q8 12 24 16.5t33 2.5t29 -11.5t12 -25.5q0 22 11.5 33t26.5 11t26.5 -11t11.5 -33q12 31 24 38
t16.5 -6.5t-7.5 -44.5q28 -2 40.5 -20t10.5 -40t-17 -37.5t-43 -13.5q0 -15 -14.5 -24t-36 -12t-43 0t-36 12t-14.5 24q0 -20 -15 -29t-32.5 -7t-26.5 16q-1 -12 -7.5 -21t-15.5 -14q11 -10 10 -24q12 -3 21 -14t9 -30q0 18 19.5 27.5t44.5 9.5t44.5 -9.5t19.5 -27.5
q0 31 15 41t29.5 0t14.5 -41q14 20 32 18t26.5 -18t-5.5 -36q21 -8 26 -27t-2 -38.5t-23.5 -30.5t-37.5 -3q0 -27 -11.5 -40.5t-26.5 -13.5t-26 13.5t-11 40.5q0 -28 -16.5 -41.5t-37.5 -13.5t-37.5 13.5t-16.5 41.5q0 -25 -13 -37.5t-30.5 -12.5t-30.5 12.5t-13 37.5
q0 -29 -16.5 -43.5t-37.5 -14.5t-37.5 14.5t-16.5 43.5q0 -25 -15.5 -35.5t-35.5 -2t-35 41t-14 93.5zM258 759q-8 -10 -21.5 -8t-25.5 11t-17 21.5t3 22.5q-9 -12 -20 -9.5t-15.5 13t5.5 22.5q-7 -9 -21.5 -4.5t-29 16.5t-22 25.5t-0.5 22.5q-9 9 -6.5 17.5t11 11.5
t17.5 -6q0 11 11 17t25 6t25 -6t11 -17q0 14 11 20.5t25 6.5t25 -6.5t11 -20.5q2 13 13 18t24.5 2.5t22.5 -10.5t7 -21q14 12 27.5 6t17 -20t-10.5 -26q13 12 28 3t20 -25t-8 -27q15 -1 19.5 -16t-1.5 -30t-21 -14q0 -19 -10 -25.5t-20 0t-10 25.5q0 -11 -12 -16.5t-30 -5.5
t-34 6.5t-24 19.5z" />
    <glyph glyph-name="Eacute" unicode="&#xc9;" horiz-adv-x="667" 
d="M85 127q-24 0 -36.5 16.5t-12.5 39t12.5 39t36.5 16.5q-24 0 -35.5 13t-11.5 29.5t11.5 29t35.5 12.5q-37 0 -49.5 15t0 30t49.5 15q-25 0 -38 12t-13 28t13 28t38 12q-28 0 -41.5 18t-13.5 41.5t13.5 41.5t41.5 18q-19 6 -23.5 22.5t1 34t19 28t32.5 4.5q0 31 11 41
t22 0t11 -41q0 18 15 29t37.5 14.5t45 0t38 -14.5t15.5 -29q0 32 15.5 42.5t31.5 0t16 -42.5q0 27 13 40t29.5 13t29 -13t12.5 -40q0 18 14 29t34.5 14.5t41.5 0t35 -14.5t14 -29q30 -3 39.5 -12.5t-1.5 -18t-41 -5.5q26 -3 38 -19t10 -35.5t-16.5 -33t-40.5 -11.5
q0 -32 -11 -42.5t-22 0t-11 42.5q0 -30 -15.5 -40.5t-31.5 0t-16 40.5q0 -15 -15 -24t-36.5 -11t-42.5 1.5t-32 14.5q2 -12 -2 -23t-13 -19q12 -8 19.5 -19.5t8.5 -24.5q8 12 24 16.5t33 2.5t29 -11.5t12 -25.5q0 22 11.5 33t26.5 11t26.5 -11t11.5 -33q12 31 24 38
t16.5 -6.5t-7.5 -44.5q28 -2 40.5 -20t10.5 -40t-17 -37.5t-43 -13.5q0 -15 -14.5 -24t-36 -12t-43 0t-36 12t-14.5 24q0 -20 -15 -29t-32.5 -7t-26.5 16q-1 -12 -7.5 -21t-15.5 -14q11 -10 10 -24q12 -3 21 -14t9 -30q0 18 19.5 27.5t44.5 9.5t44.5 -9.5t19.5 -27.5
q0 31 15 41t29.5 0t14.5 -41q14 20 32 18t26.5 -18t-5.5 -36q21 -8 26 -27t-2 -38.5t-23.5 -30.5t-37.5 -3q0 -27 -11.5 -40.5t-26.5 -13.5t-26 13.5t-11 40.5q0 -28 -16.5 -41.5t-37.5 -13.5t-37.5 13.5t-16.5 41.5q0 -25 -13 -37.5t-30.5 -12.5t-30.5 12.5t-13 37.5
q0 -29 -16.5 -43.5t-37.5 -14.5t-37.5 14.5t-16.5 43.5q0 -25 -15.5 -35.5t-35.5 -2t-35 41t-14 93.5zM264 813q-10 7 -6 21.5t15.5 28.5t25 21t23.5 -1q-9 12 1 24.5t25 16.5t23 -9q0 11 17.5 17t40.5 6t40.5 -6t17.5 -17q0 17 14 22.5t28 0t14 -22.5q7 16 17.5 17t17 -7.5
t-0.5 -24.5q12 -12 8 -23.5t-15.5 -15t-23.5 7.5q10 -11 4.5 -22t-17 -14t-20.5 9q8 -11 2.5 -24t-18 -23.5t-26.5 -13.5t-23 8q10 -12 5 -22.5t-16 -13t-21 9.5q2 -12 -9.5 -19t-27.5 -8.5t-28.5 3t-14.5 16.5q0 -14 -14 -20t-30.5 -0.5t-26.5 24t-1 54.5z" />
    <glyph glyph-name="Ecircumflex" unicode="&#xca;" horiz-adv-x="667" 
d="M85 127q-24 0 -36.5 16.5t-12.5 39t12.5 39t36.5 16.5q-24 0 -35.5 13t-11.5 29.5t11.5 29t35.5 12.5q-37 0 -49.5 15t0 30t49.5 15q-25 0 -38 12t-13 28t13 28t38 12q-28 0 -41.5 18t-13.5 41.5t13.5 41.5t41.5 18q-19 6 -23.5 22.5t1 34t19 28t32.5 4.5q0 31 11 41
t22 0t11 -41q0 18 15 29t37.5 14.5t45 0t38 -14.5t15.5 -29q0 32 15.5 42.5t31.5 0t16 -42.5q0 27 13 40t29.5 13t29 -13t12.5 -40q0 18 14 29t34.5 14.5t41.5 0t35 -14.5t14 -29q30 -3 39.5 -12.5t-1.5 -18t-41 -5.5q26 -3 38 -19t10 -35.5t-16.5 -33t-40.5 -11.5
q0 -32 -11 -42.5t-22 0t-11 42.5q0 -30 -15.5 -40.5t-31.5 0t-16 40.5q0 -15 -15 -24t-36.5 -11t-42.5 1.5t-32 14.5q2 -12 -2 -23t-13 -19q12 -8 19.5 -19.5t8.5 -24.5q8 12 24 16.5t33 2.5t29 -11.5t12 -25.5q0 22 11.5 33t26.5 11t26.5 -11t11.5 -33q12 31 24 38
t16.5 -6.5t-7.5 -44.5q28 -2 40.5 -20t10.5 -40t-17 -37.5t-43 -13.5q0 -15 -14.5 -24t-36 -12t-43 0t-36 12t-14.5 24q0 -20 -15 -29t-32.5 -7t-26.5 16q-1 -12 -7.5 -21t-15.5 -14q11 -10 10 -24q12 -3 21 -14t9 -30q0 18 19.5 27.5t44.5 9.5t44.5 -9.5t19.5 -27.5
q0 31 15 41t29.5 0t14.5 -41q14 20 32 18t26.5 -18t-5.5 -36q21 -8 26 -27t-2 -38.5t-23.5 -30.5t-37.5 -3q0 -27 -11.5 -40.5t-26.5 -13.5t-26 13.5t-11 40.5q0 -28 -16.5 -41.5t-37.5 -13.5t-37.5 13.5t-16.5 41.5q0 -25 -13 -37.5t-30.5 -12.5t-30.5 12.5t-13 37.5
q0 -29 -16.5 -43.5t-37.5 -14.5t-37.5 14.5t-16.5 43.5q0 -25 -15.5 -35.5t-35.5 -2t-35 41t-14 93.5zM121 762q-11 8 -9.5 22t11.5 26.5t22.5 18t23.5 -3.5q-9 9 -6.5 21t12 22.5t21.5 14t21 -4.5q-5 9 2.5 19.5t21 18t26.5 8t18 -8.5q0 13 16 19.5t37 6.5t37 -6.5
t16 -19.5q6 10 18 9t24 -8t18 -18t0 -20q9 8 20.5 4t21 -14.5t12.5 -22.5t-6 -20q11 2 18.5 -7.5t10.5 -23t-0.5 -25.5t-14.5 -14q0 -16 -10.5 -21.5t-21.5 0t-11 21.5q-4 -11 -18 -13t-31 2.5t-30 14t-14 20.5q-4 -10 -20 -16t-35 -7t-34 4t-15 16q2 -12 -12.5 -20.5
t-34.5 -12.5t-36.5 -1.5t-19.5 13.5q0 -18 -10 -23.5t-22 1.5t-17 29z" />
    <glyph glyph-name="Edieresis" unicode="&#xcb;" horiz-adv-x="667" 
d="M85 127q-24 0 -36.5 16.5t-12.5 39t12.5 39t36.5 16.5q-24 0 -35.5 13t-11.5 29.5t11.5 29t35.5 12.5q-37 0 -49.5 15t0 30t49.5 15q-25 0 -38 12t-13 28t13 28t38 12q-28 0 -41.5 18t-13.5 41.5t13.5 41.5t41.5 18q-19 6 -23.5 22.5t1 34t19 28t32.5 4.5q0 31 11 41
t22 0t11 -41q0 18 15 29t37.5 14.5t45 0t38 -14.5t15.5 -29q0 32 15.5 42.5t31.5 0t16 -42.5q0 27 13 40t29.5 13t29 -13t12.5 -40q0 18 14 29t34.5 14.5t41.5 0t35 -14.5t14 -29q30 -3 39.5 -12.5t-1.5 -18t-41 -5.5q26 -3 38 -19t10 -35.5t-16.5 -33t-40.5 -11.5
q0 -32 -11 -42.5t-22 0t-11 42.5q0 -30 -15.5 -40.5t-31.5 0t-16 40.5q0 -15 -15 -24t-36.5 -11t-42.5 1.5t-32 14.5q2 -12 -2 -23t-13 -19q12 -8 19.5 -19.5t8.5 -24.5q8 12 24 16.5t33 2.5t29 -11.5t12 -25.5q0 22 11.5 33t26.5 11t26.5 -11t11.5 -33q12 31 24 38
t16.5 -6.5t-7.5 -44.5q28 -2 40.5 -20t10.5 -40t-17 -37.5t-43 -13.5q0 -15 -14.5 -24t-36 -12t-43 0t-36 12t-14.5 24q0 -20 -15 -29t-32.5 -7t-26.5 16q-1 -12 -7.5 -21t-15.5 -14q11 -10 10 -24q12 -3 21 -14t9 -30q0 18 19.5 27.5t44.5 9.5t44.5 -9.5t19.5 -27.5
q0 31 15 41t29.5 0t14.5 -41q14 20 32 18t26.5 -18t-5.5 -36q21 -8 26 -27t-2 -38.5t-23.5 -30.5t-37.5 -3q0 -27 -11.5 -40.5t-26.5 -13.5t-26 13.5t-11 40.5q0 -28 -16.5 -41.5t-37.5 -13.5t-37.5 13.5t-16.5 41.5q0 -25 -13 -37.5t-30.5 -12.5t-30.5 12.5t-13 37.5
q0 -29 -16.5 -43.5t-37.5 -14.5t-37.5 14.5t-16.5 43.5q0 -25 -15.5 -35.5t-35.5 -2t-35 41t-14 93.5zM119 837q-11 4 -12.5 17.5t4 29t14.5 25.5t20 6q0 14 11.5 21.5t26.5 7.5t26.5 -7.5t11.5 -21.5q5 8 16 6.5t22.5 -8t18 -15.5t1.5 -17q16 0 21 -13t0 -26t-21 -13
q14 0 18.5 -12t0 -24t-18.5 -12q7 -11 -1.5 -21t-21 -13t-19.5 8q0 -15 -15.5 -20.5t-37 1.5t-40 31.5t-25.5 69.5zM388 825q-9 1 -11.5 15.5t0 32t9.5 30.5t16 12q0 14 14 21t32 7t32 -7t14 -21q8 7 20 2t22.5 -16.5t15 -24t-3.5 -19.5q11 0 17 -11t6 -25t-6 -25t-17 -11
q4 -11 -5.5 -20.5t-25 -15.5t-29.5 -5.5t-18 11.5q0 -11 -10 -15.5t-24.5 1.5t-27.5 26.5t-20 57.5z" />
    <glyph glyph-name="Igrave" unicode="&#xcc;" horiz-adv-x="368" 
d="M85 35q-20 0 -32.5 15.5t-16.5 39t0 46.5t16.5 38.5t32.5 15.5q-19 0 -30.5 15t-15 37t0 44t15 37t30.5 15q-30 0 -44.5 10.5t-14.5 23.5t14.5 23.5t44.5 10.5q-19 0 -30 15t-14.5 37t0 44t14.5 36.5t30 14.5q-39 0 -52.5 13t0 26t52.5 13q-14 15 -11.5 32t15.5 29.5
t30 15t31 -11.5q0 27 12.5 40.5t29.5 13.5t29.5 -13.5t12.5 -40.5q19 14 36 10.5t27 -17t7.5 -31t-21.5 -31.5q24 0 36.5 -14.5t12.5 -33.5t-12.5 -33t-36.5 -14q38 0 50.5 -10t0 -20t-50.5 -10q23 0 34 -11.5t11 -26.5t-11 -26.5t-34 -11.5q29 0 43.5 -17.5t14.5 -40.5
t-14.5 -40.5t-43.5 -17.5q35 0 46.5 -13t0 -26t-46.5 -13q19 0 30.5 -14.5t15 -36.5t0 -44t-15 -37t-30.5 -15q11 -16 6.5 -30.5t-17.5 -23.5t-28 -8t-26 17q0 -20 -13.5 -31.5t-34 -15.5t-40.5 0.5t-33 17.5t-12 34zM108 759q-8 -10 -21.5 -8t-25.5 11t-17 21.5t3 22.5
q-9 -12 -20 -9.5t-15.5 13t5.5 22.5q-7 -9 -21.5 -4.5t-29 16.5t-22 25.5t-0.5 22.5q-9 9 -6.5 17.5t11 11.5t17.5 -6q0 11 11 17t25 6t25 -6t11 -17q0 14 11 20.5t25 6.5t25 -6.5t11 -20.5q2 13 13 18t24.5 2.5t22.5 -10.5t7 -21q14 12 27.5 6t17 -20t-10.5 -26q13 12 28 3
t20 -25t-8 -27q15 -1 19.5 -16t-1.5 -30t-21 -14q0 -19 -10 -25.5t-20 0t-10 25.5q0 -11 -12 -16.5t-30 -5.5t-34 6.5t-24 19.5z" />
    <glyph glyph-name="Iacute" unicode="&#xcd;" horiz-adv-x="368" 
d="M85 35q-20 0 -32.5 15.5t-16.5 39t0 46.5t16.5 38.5t32.5 15.5q-19 0 -30.5 15t-15 37t0 44t15 37t30.5 15q-30 0 -44.5 10.5t-14.5 23.5t14.5 23.5t44.5 10.5q-19 0 -30 15t-14.5 37t0 44t14.5 36.5t30 14.5q-39 0 -52.5 13t0 26t52.5 13q-14 15 -11.5 32t15.5 29.5
t30 15t31 -11.5q0 27 12.5 40.5t29.5 13.5t29.5 -13.5t12.5 -40.5q19 14 36 10.5t27 -17t7.5 -31t-21.5 -31.5q24 0 36.5 -14.5t12.5 -33.5t-12.5 -33t-36.5 -14q38 0 50.5 -10t0 -20t-50.5 -10q23 0 34 -11.5t11 -26.5t-11 -26.5t-34 -11.5q29 0 43.5 -17.5t14.5 -40.5
t-14.5 -40.5t-43.5 -17.5q35 0 46.5 -13t0 -26t-46.5 -13q19 0 30.5 -14.5t15 -36.5t0 -44t-15 -37t-30.5 -15q11 -16 6.5 -30.5t-17.5 -23.5t-28 -8t-26 17q0 -20 -13.5 -31.5t-34 -15.5t-40.5 0.5t-33 17.5t-12 34zM114 813q-10 7 -6 21.5t15.5 28.5t25 21t23.5 -1
q-9 12 1 24.5t25 16.5t23 -9q0 11 17.5 17t40.5 6t40.5 -6t17.5 -17q0 17 14 22.5t28 0t14 -22.5q7 16 17.5 17t17 -7.5t-0.5 -24.5q12 -12 8 -23.5t-15.5 -15t-23.5 7.5q10 -11 4.5 -22t-17 -14t-20.5 9q8 -11 2.5 -24t-18 -23.5t-26.5 -13.5t-23 8q10 -12 5 -22.5t-16 -13
t-21 9.5q2 -12 -9.5 -19t-27.5 -8.5t-28.5 3t-14.5 16.5q0 -14 -14 -20t-30.5 -0.5t-26.5 24t-1 54.5z" />
    <glyph glyph-name="Icircumflex" unicode="&#xce;" horiz-adv-x="368" 
d="M85 35q-20 0 -32.5 15.5t-16.5 39t0 46.5t16.5 38.5t32.5 15.5q-19 0 -30.5 15t-15 37t0 44t15 37t30.5 15q-30 0 -44.5 10.5t-14.5 23.5t14.5 23.5t44.5 10.5q-19 0 -30 15t-14.5 37t0 44t14.5 36.5t30 14.5q-39 0 -52.5 13t0 26t52.5 13q-14 15 -11.5 32t15.5 29.5
t30 15t31 -11.5q0 27 12.5 40.5t29.5 13.5t29.5 -13.5t12.5 -40.5q19 14 36 10.5t27 -17t7.5 -31t-21.5 -31.5q24 0 36.5 -14.5t12.5 -33.5t-12.5 -33t-36.5 -14q38 0 50.5 -10t0 -20t-50.5 -10q23 0 34 -11.5t11 -26.5t-11 -26.5t-34 -11.5q29 0 43.5 -17.5t14.5 -40.5
t-14.5 -40.5t-43.5 -17.5q35 0 46.5 -13t0 -26t-46.5 -13q19 0 30.5 -14.5t15 -36.5t0 -44t-15 -37t-30.5 -15q11 -16 6.5 -30.5t-17.5 -23.5t-28 -8t-26 17q0 -20 -13.5 -31.5t-34 -15.5t-40.5 0.5t-33 17.5t-12 34zM-29 762q-11 8 -9.5 22t11.5 26.5t22.5 18t23.5 -3.5
q-9 9 -6.5 21t12 22.5t21.5 14t21 -4.5q-5 9 2.5 19.5t21 18t26.5 8t18 -8.5q0 13 16 19.5t37 6.5t37 -6.5t16 -19.5q6 10 18 9t24 -8t18 -18t0 -20q9 8 20.5 4t21 -14.5t12.5 -22.5t-6 -20q11 2 18.5 -7.5t10.5 -23t-0.5 -25.5t-14.5 -14q0 -16 -10.5 -21.5t-21.5 0
t-11 21.5q-4 -11 -18 -13t-31 2.5t-30 14t-14 20.5q-4 -10 -20 -16t-35 -7t-34 4t-15 16q2 -12 -12.5 -20.5t-34.5 -12.5t-36.5 -1.5t-19.5 13.5q0 -18 -10 -23.5t-22 1.5t-17 29z" />
    <glyph glyph-name="Idieresis" unicode="&#xcf;" horiz-adv-x="368" 
d="M85 35q-20 0 -32.5 15.5t-16.5 39t0 46.5t16.5 38.5t32.5 15.5q-19 0 -30.5 15t-15 37t0 44t15 37t30.5 15q-30 0 -44.5 10.5t-14.5 23.5t14.5 23.5t44.5 10.5q-19 0 -30 15t-14.5 37t0 44t14.5 36.5t30 14.5q-39 0 -52.5 13t0 26t52.5 13q-14 15 -11.5 32t15.5 29.5
t30 15t31 -11.5q0 27 12.5 40.5t29.5 13.5t29.5 -13.5t12.5 -40.5q19 14 36 10.5t27 -17t7.5 -31t-21.5 -31.5q24 0 36.5 -14.5t12.5 -33.5t-12.5 -33t-36.5 -14q38 0 50.5 -10t0 -20t-50.5 -10q23 0 34 -11.5t11 -26.5t-11 -26.5t-34 -11.5q29 0 43.5 -17.5t14.5 -40.5
t-14.5 -40.5t-43.5 -17.5q35 0 46.5 -13t0 -26t-46.5 -13q19 0 30.5 -14.5t15 -36.5t0 -44t-15 -37t-30.5 -15q11 -16 6.5 -30.5t-17.5 -23.5t-28 -8t-26 17q0 -20 -13.5 -31.5t-34 -15.5t-40.5 0.5t-33 17.5t-12 34zM-31 837q-11 4 -12.5 17.5t4 29t14.5 25.5t20 6
q0 14 11.5 21.5t26.5 7.5t26.5 -7.5t11.5 -21.5q5 8 16 6.5t22.5 -8t18 -15.5t1.5 -17q16 0 21 -13t0 -26t-21 -13q14 0 18.5 -12t0 -24t-18.5 -12q7 -11 -1.5 -21t-21 -13t-19.5 8q0 -15 -15.5 -20.5t-37 1.5t-40 31.5t-25.5 69.5zM238 825q-9 1 -11.5 15.5t0 32t9.5 30.5
t16 12q0 14 14 21t32 7t32 -7t14 -21q8 7 20 2t22.5 -16.5t15 -24t-3.5 -19.5q11 0 17 -11t6 -25t-6 -25t-17 -11q4 -11 -5.5 -20.5t-25 -15.5t-29.5 -5.5t-18 11.5q0 -11 -10 -15.5t-24.5 1.5t-27.5 26.5t-20 57.5z" />
    <glyph glyph-name="Eth" unicode="&#xd0;" horiz-adv-x="766" 
d="M109 114q-23 0 -34.5 17.5t-11.5 40t11.5 40t34.5 17.5q-27 0 -38 14t-7 29q-16 3 -24 19.5t4 40.5q-15 13 -11.5 31.5t17.5 33.5t31 18q-16 10 -22.5 29.5t-3 40t17 35t36.5 14.5q-24 0 -36.5 18t-12.5 41.5t12.5 41.5t36.5 18q-8 30 4.5 44t30.5 8t26 -35q0 19 15 30.5
t37 15t44 0t37 -15t15 -30.5q0 33 10 43.5t20 0t10 -43.5q0 33 11 44t22 0t11 -44q4 19 20.5 28t39 9t43.5 -8t33.5 -22t8.5 -34q13 24 30 29.5t31 -2.5t18 -25.5t-10 -40.5q21 22 35.5 22.5t14.5 -14t-21 -36.5q20 11 36.5 5t25 -21t5 -32t-23.5 -28q25 3 39 -12t16.5 -36
t-8.5 -38.5t-36 -19.5q24 0 36.5 -20.5t12 -46.5t-12.5 -46.5t-36 -20.5q24 -5 33 -22t5 -35.5t-19.5 -29.5t-40.5 -6q33 -21 35.5 -40.5t-16.5 -25t-52 15.5q15 -21 8 -41t-25 -32.5t-39.5 -11t-35.5 23.5q6 -28 -8 -45.5t-36.5 -22t-42.5 5.5t-26 38q0 -28 -17 -42
t-40 -14t-40.5 13.5t-17.5 40.5q0 -32 -12 -43t-24 0t-12 43q0 -38 -13.5 -50.5t-27.5 0t-14 50.5q0 -27 -17.5 -39t-40 -4.5t-39 38.5t-15.5 89zM299 240q16 0 25 -11t13 -26t5 -26.5l1 -11.5q0 15 8.5 21t18.5 3.5t14 -14.5q2 13 15.5 24.5t31.5 18t32 4.5q-10 11 -3.5 20
t23.5 5q-11 7 -15.5 22.5t-2.5 32.5t10.5 29t23.5 12q-12 0 -18.5 12t-7 28t4.5 30t16 17q-20 -2 -27.5 15.5t3.5 30.5q-14 -3 -26 7.5t-11 24.5q-8 -10 -20.5 -10t-21 8t-5.5 22q-4 -14 -20.5 -20.5t-33.5 -4.5q1 -8 -3.5 -16.5t-14.5 -12.5q12 -1 22 -12t13.5 -25
t-2.5 -25q10 4 20.5 0t15.5 -14t-1 -23q15 -6 19.5 -19t-0.5 -27t-16.5 -22t-26.5 -3q4 -14 -2.5 -24t-17.5 -13q3 -9 -6.5 -18t-32.5 -9z" />
    <glyph glyph-name="Ntilde" unicode="&#xd1;" horiz-adv-x="740" 
d="M85 63q-38 0 -51 14t0 28t51 14q-27 0 -41 18t-14 41.5t14 41.5t41 18q-29 0 -43.5 16t-14.5 36.5t14.5 36t43.5 15.5q-26 0 -39 14t-13 32t13 32t39 14q-29 0 -43.5 15t-14.5 34.5t14.5 34.5t43.5 15q-24 0 -36.5 17t-12.5 39t12.5 39t36.5 17q-6 22 5 36t29 19t35 -2
t23 -28q0 37 11 49.5t21.5 0t10.5 -49.5q15 18 31.5 19.5t28 -8.5t13.5 -26.5t-13 -34.5q22 14 38 11.5t23.5 -14.5t2.5 -28t-27 -29q19 11 37 2.5t29.5 -27t10.5 -38.5t-19 -32q12 8 24.5 5t21.5 -12q12 8 26 5q-8 17 0.5 36.5t32.5 19.5q-32 0 -42.5 13.5t0 27.5t42.5 14
q-28 0 -37 13t0 26t37 13q-11 20 -3.5 37t24 25.5t34.5 5t29 -23.5q4 25 20.5 35.5t34.5 7t29.5 -18.5t6.5 -41q20 0 32.5 -14.5t16.5 -36t0 -42.5t-16.5 -35.5t-32.5 -14.5q26 0 39.5 -18.5t13.5 -42t-13.5 -41.5t-39.5 -18q24 0 36.5 -11t12.5 -25t-12.5 -25t-36.5 -11
q23 0 36.5 -14t18 -35t0 -41.5t-18 -34.5t-36.5 -14q36 0 48 -10t0 -20t-48 -10q29 0 43 -13.5t14 -31t-14 -30.5t-43 -13q10 -28 -0.5 -42.5t-28 -10.5t-27.5 32q-5 -21 -27 -26.5t-47 0t-42 20.5t-12 36q-28 -18 -43.5 -14.5t-13 19.5t29.5 35q-24 -16 -43 -13t-28.5 17.5
t-5 33.5t28.5 34q-19 -12 -41 1t-35 36q-14 -9 -31 -5q10 -15 13 -37t-0.5 -44t-14 -37t-27.5 -15q20 -14 20 -29t-14 -20.5t-34 8.5q0 -24 -12 -36.5t-27.5 -12.5t-27.5 12.5t-12 36.5q0 -25 -10.5 -37.5t-24.5 -9.5t-24 22.5t-9 57.5zM420 751q-3 -10 -16.5 -11t-29.5 3.5
t-29 13t-17 18.5q-3 -11 -16.5 -20t-30 -13t-30.5 -1.5t-18 14.5q-2 -17 -17 -21.5t-29.5 2.5t-12.5 24q-12 3 -13 21.5t5 40.5t16.5 37.5t21.5 12.5q-10 12 -2 25.5t23.5 19t25.5 -6.5q0 9 17.5 13t40 3t39.5 -7t17 -15q2 13 17 17t32 0.5t26 -13.5q-2 11 5.5 17.5t18 5
t18.5 -15.5q0 19 10 25.5t20 0t10 -25.5q7 11 21 6.5t22.5 -16t1.5 -21.5q12 -5 11 -22.5t-9 -37t-20.5 -32t-24.5 -6.5q5 -12 -6.5 -22.5t-30 -17.5t-37.5 -6.5t-30 11.5z" />
    <glyph glyph-name="Ograve" unicode="&#xd2;" horiz-adv-x="742" 
d="M275 29q-9 -19 -27.5 -24.5t-40 0t-39.5 18t-26.5 30.5t0.5 37q-20 -14 -38 -9.5t-29 20t-9.5 34t21.5 32.5q-19 -2 -32.5 11.5t-20.5 35.5t-6.5 45t10 40t28.5 19q-23 1 -36 17.5t-16.5 40t2 46.5t19.5 38t36 15q-14 7 -15.5 24t5.5 37t19.5 37.5t27.5 26t28 1.5
q-19 25 -15 41t21 16t36 -25q-11 28 -4 47t24 25.5t35.5 -2t29.5 -35.5q-3 24 7 38t26 16t29.5 -8.5t17.5 -34.5q2 23 20.5 34.5t43 13.5t48.5 -5.5t39 -23t12 -38.5q15 34 34 39t27.5 -12.5t-6.5 -51.5q22 30 40 32t21 -15.5t-19 -47.5q22 17 40.5 15.5t28 -14t5.5 -30.5
t-27 -35q22 7 36 -0.5t18 -21t-3.5 -27t-29.5 -20.5q19 1 30.5 -13.5t16 -36t1.5 -43.5t-13.5 -37t-29.5 -16q37 0 49 -13.5t-0.5 -26.5t-49.5 -12q24 -4 33 -22.5t5 -39.5t-19 -34.5t-39 -8.5q12 -11 9 -29t-16 -36.5t-30.5 -32.5t-34.5 -18.5t-29 6.5q6 -23 -10.5 -40
t-42.5 -24t-49 -1t-29 29q3 -55 -35 -55t-113 62zM440 178q-23 10 -24.5 30.5t11 37t33.5 15.5q-13 7 -18.5 24t-3.5 36t11.5 32.5t26.5 13.5q-20 -1 -30 16.5t-7.5 39t16.5 32.5q-19 -2 -33 15t-10 35q-12 -7 -24.5 -3.5t-19.5 15.5q-4 -17 -20 -25.5t-32 -3.5q5 -14 1 -30
t-15 -27t-27 -11q14 -4 20.5 -17t5 -28.5t-10 -26.5t-24.5 -11q21 1 28 -6t0 -14.5t-28 -7.5q24 1 34.5 -11.5t8 -28.5t-18.5 -25q17 -2 32 -20t16 -37q14 15 40.5 10.5t61.5 -19.5zM295 759q-8 -10 -21.5 -8t-25.5 11t-17 21.5t3 22.5q-9 -12 -20 -9.5t-15.5 13t5.5 22.5
q-7 -9 -21.5 -4.5t-29 16.5t-22 25.5t-0.5 22.5q-9 9 -6.5 17.5t11 11.5t17.5 -6q0 11 11 17t25 6t25 -6t11 -17q0 14 11 20.5t25 6.5t25 -6.5t11 -20.5q2 13 13 18t24.5 2.5t22.5 -10.5t7 -21q14 12 27.5 6t17 -20t-10.5 -26q13 12 28 3t20 -25t-8 -27q15 -1 19.5 -16
t-1.5 -30t-21 -14q0 -19 -10 -25.5t-20 0t-10 25.5q0 -11 -12 -16.5t-30 -5.5t-34 6.5t-24 19.5z" />
    <glyph glyph-name="Oacute" unicode="&#xd3;" horiz-adv-x="742" 
d="M275 29q-9 -19 -27.5 -24.5t-40 0t-39.5 18t-26.5 30.5t0.5 37q-20 -14 -38 -9.5t-29 20t-9.5 34t21.5 32.5q-19 -2 -32.5 11.5t-20.5 35.5t-6.5 45t10 40t28.5 19q-23 1 -36 17.5t-16.5 40t2 46.5t19.5 38t36 15q-14 7 -15.5 24t5.5 37t19.5 37.5t27.5 26t28 1.5
q-19 25 -15 41t21 16t36 -25q-11 28 -4 47t24 25.5t35.5 -2t29.5 -35.5q-3 24 7 38t26 16t29.5 -8.5t17.5 -34.5q2 23 20.5 34.5t43 13.5t48.5 -5.5t39 -23t12 -38.5q15 34 34 39t27.5 -12.5t-6.5 -51.5q22 30 40 32t21 -15.5t-19 -47.5q22 17 40.5 15.5t28 -14t5.5 -30.5
t-27 -35q22 7 36 -0.5t18 -21t-3.5 -27t-29.5 -20.5q19 1 30.5 -13.5t16 -36t1.5 -43.5t-13.5 -37t-29.5 -16q37 0 49 -13.5t-0.5 -26.5t-49.5 -12q24 -4 33 -22.5t5 -39.5t-19 -34.5t-39 -8.5q12 -11 9 -29t-16 -36.5t-30.5 -32.5t-34.5 -18.5t-29 6.5q6 -23 -10.5 -40
t-42.5 -24t-49 -1t-29 29q3 -55 -35 -55t-113 62zM440 178q-23 10 -24.5 30.5t11 37t33.5 15.5q-13 7 -18.5 24t-3.5 36t11.5 32.5t26.5 13.5q-20 -1 -30 16.5t-7.5 39t16.5 32.5q-19 -2 -33 15t-10 35q-12 -7 -24.5 -3.5t-19.5 15.5q-4 -17 -20 -25.5t-32 -3.5q5 -14 1 -30
t-15 -27t-27 -11q14 -4 20.5 -17t5 -28.5t-10 -26.5t-24.5 -11q21 1 28 -6t0 -14.5t-28 -7.5q24 1 34.5 -11.5t8 -28.5t-18.5 -25q17 -2 32 -20t16 -37q14 15 40.5 10.5t61.5 -19.5zM301 813q-10 7 -6 21.5t15.5 28.5t25 21t23.5 -1q-9 12 1 24.5t25 16.5t23 -9
q0 11 17.5 17t40.5 6t40.5 -6t17.5 -17q0 17 14 22.5t28 0t14 -22.5q7 16 17.5 17t17 -7.5t-0.5 -24.5q12 -12 8 -23.5t-15.5 -15t-23.5 7.5q10 -11 4.5 -22t-17 -14t-20.5 9q8 -11 2.5 -24t-18 -23.5t-26.5 -13.5t-23 8q10 -12 5 -22.5t-16 -13t-21 9.5q2 -12 -9.5 -19
t-27.5 -8.5t-28.5 3t-14.5 16.5q0 -14 -14 -20t-30.5 -0.5t-26.5 24t-1 54.5z" />
    <glyph glyph-name="Ocircumflex" unicode="&#xd4;" horiz-adv-x="742" 
d="M275 29q-9 -19 -27.5 -24.5t-40 0t-39.5 18t-26.5 30.5t0.5 37q-20 -14 -38 -9.5t-29 20t-9.5 34t21.5 32.5q-19 -2 -32.5 11.5t-20.5 35.5t-6.5 45t10 40t28.5 19q-23 1 -36 17.5t-16.5 40t2 46.5t19.5 38t36 15q-14 7 -15.5 24t5.5 37t19.5 37.5t27.5 26t28 1.5
q-19 25 -15 41t21 16t36 -25q-11 28 -4 47t24 25.5t35.5 -2t29.5 -35.5q-3 24 7 38t26 16t29.5 -8.5t17.5 -34.5q2 23 20.5 34.5t43 13.5t48.5 -5.5t39 -23t12 -38.5q15 34 34 39t27.5 -12.5t-6.5 -51.5q22 30 40 32t21 -15.5t-19 -47.5q22 17 40.5 15.5t28 -14t5.5 -30.5
t-27 -35q22 7 36 -0.5t18 -21t-3.5 -27t-29.5 -20.5q19 1 30.5 -13.5t16 -36t1.5 -43.5t-13.5 -37t-29.5 -16q37 0 49 -13.5t-0.5 -26.5t-49.5 -12q24 -4 33 -22.5t5 -39.5t-19 -34.5t-39 -8.5q12 -11 9 -29t-16 -36.5t-30.5 -32.5t-34.5 -18.5t-29 6.5q6 -23 -10.5 -40
t-42.5 -24t-49 -1t-29 29q3 -55 -35 -55t-113 62zM440 178q-23 10 -24.5 30.5t11 37t33.5 15.5q-13 7 -18.5 24t-3.5 36t11.5 32.5t26.5 13.5q-20 -1 -30 16.5t-7.5 39t16.5 32.5q-19 -2 -33 15t-10 35q-12 -7 -24.5 -3.5t-19.5 15.5q-4 -17 -20 -25.5t-32 -3.5q5 -14 1 -30
t-15 -27t-27 -11q14 -4 20.5 -17t5 -28.5t-10 -26.5t-24.5 -11q21 1 28 -6t0 -14.5t-28 -7.5q24 1 34.5 -11.5t8 -28.5t-18.5 -25q17 -2 32 -20t16 -37q14 15 40.5 10.5t61.5 -19.5zM158 762q-11 8 -9.5 22t11.5 26.5t22.5 18t23.5 -3.5q-9 9 -6.5 21t12 22.5t21.5 14
t21 -4.5q-5 9 2.5 19.5t21 18t26.5 8t18 -8.5q0 13 16 19.5t37 6.5t37 -6.5t16 -19.5q6 10 18 9t24 -8t18 -18t0 -20q9 8 20.5 4t21 -14.5t12.5 -22.5t-6 -20q11 2 18.5 -7.5t10.5 -23t-0.5 -25.5t-14.5 -14q0 -16 -10.5 -21.5t-21.5 0t-11 21.5q-4 -11 -18 -13t-31 2.5
t-30 14t-14 20.5q-4 -10 -20 -16t-35 -7t-34 4t-15 16q2 -12 -12.5 -20.5t-34.5 -12.5t-36.5 -1.5t-19.5 13.5q0 -18 -10 -23.5t-22 1.5t-17 29z" />
    <glyph glyph-name="Otilde" unicode="&#xd5;" horiz-adv-x="742" 
d="M275 29q-9 -19 -27.5 -24.5t-40 0t-39.5 18t-26.5 30.5t0.5 37q-20 -14 -38 -9.5t-29 20t-9.5 34t21.5 32.5q-19 -2 -32.5 11.5t-20.5 35.5t-6.5 45t10 40t28.5 19q-23 1 -36 17.5t-16.5 40t2 46.5t19.5 38t36 15q-14 7 -15.5 24t5.5 37t19.5 37.5t27.5 26t28 1.5
q-19 25 -15 41t21 16t36 -25q-11 28 -4 47t24 25.5t35.5 -2t29.5 -35.5q-3 24 7 38t26 16t29.5 -8.5t17.5 -34.5q2 23 20.5 34.5t43 13.5t48.5 -5.5t39 -23t12 -38.5q15 34 34 39t27.5 -12.5t-6.5 -51.5q22 30 40 32t21 -15.5t-19 -47.5q22 17 40.5 15.5t28 -14t5.5 -30.5
t-27 -35q22 7 36 -0.5t18 -21t-3.5 -27t-29.5 -20.5q19 1 30.5 -13.5t16 -36t1.5 -43.5t-13.5 -37t-29.5 -16q37 0 49 -13.5t-0.5 -26.5t-49.5 -12q24 -4 33 -22.5t5 -39.5t-19 -34.5t-39 -8.5q12 -11 9 -29t-16 -36.5t-30.5 -32.5t-34.5 -18.5t-29 6.5q6 -23 -10.5 -40
t-42.5 -24t-49 -1t-29 29q3 -55 -35 -55t-113 62zM440 178q-23 10 -24.5 30.5t11 37t33.5 15.5q-13 7 -18.5 24t-3.5 36t11.5 32.5t26.5 13.5q-20 -1 -30 16.5t-7.5 39t16.5 32.5q-19 -2 -33 15t-10 35q-12 -7 -24.5 -3.5t-19.5 15.5q-4 -17 -20 -25.5t-32 -3.5q5 -14 1 -30
t-15 -27t-27 -11q14 -4 20.5 -17t5 -28.5t-10 -26.5t-24.5 -11q21 1 28 -6t0 -14.5t-28 -7.5q24 1 34.5 -11.5t8 -28.5t-18.5 -25q17 -2 32 -20t16 -37q14 15 40.5 10.5t61.5 -19.5zM421 751q-3 -10 -16.5 -11t-29.5 3.5t-29 13t-17 18.5q-3 -11 -16.5 -20t-30 -13
t-30.5 -1.5t-18 14.5q-2 -17 -17 -21.5t-29.5 2.5t-12.5 24q-12 3 -13 21.5t5 40.5t16.5 37.5t21.5 12.5q-10 12 -2 25.5t23.5 19t25.5 -6.5q0 9 17.5 13t40 3t39.5 -7t17 -15q2 13 17 17t32 0.5t26 -13.5q-2 11 5.5 17.5t18 5t18.5 -15.5q0 19 10 25.5t20 0t10 -25.5
q7 11 21 6.5t22.5 -16t1.5 -21.5q12 -5 11 -22.5t-9 -37t-20.5 -32t-24.5 -6.5q5 -12 -6.5 -22.5t-30 -17.5t-37.5 -6.5t-30 11.5z" />
    <glyph glyph-name="Odieresis" unicode="&#xd6;" horiz-adv-x="742" 
d="M275 29q-9 -19 -27.5 -24.5t-40 0t-39.5 18t-26.5 30.5t0.5 37q-20 -14 -38 -9.5t-29 20t-9.5 34t21.5 32.5q-19 -2 -32.5 11.5t-20.5 35.5t-6.5 45t10 40t28.5 19q-23 1 -36 17.5t-16.5 40t2 46.5t19.5 38t36 15q-14 7 -15.5 24t5.5 37t19.5 37.5t27.5 26t28 1.5
q-19 25 -15 41t21 16t36 -25q-11 28 -4 47t24 25.5t35.5 -2t29.5 -35.5q-3 24 7 38t26 16t29.5 -8.5t17.5 -34.5q2 23 20.5 34.5t43 13.5t48.5 -5.5t39 -23t12 -38.5q15 34 34 39t27.5 -12.5t-6.5 -51.5q22 30 40 32t21 -15.5t-19 -47.5q22 17 40.5 15.5t28 -14t5.5 -30.5
t-27 -35q22 7 36 -0.5t18 -21t-3.5 -27t-29.5 -20.5q19 1 30.5 -13.5t16 -36t1.5 -43.5t-13.5 -37t-29.5 -16q37 0 49 -13.5t-0.5 -26.5t-49.5 -12q24 -4 33 -22.5t5 -39.5t-19 -34.5t-39 -8.5q12 -11 9 -29t-16 -36.5t-30.5 -32.5t-34.5 -18.5t-29 6.5q6 -23 -10.5 -40
t-42.5 -24t-49 -1t-29 29q3 -55 -35 -55t-113 62zM440 178q-23 10 -24.5 30.5t11 37t33.5 15.5q-13 7 -18.5 24t-3.5 36t11.5 32.5t26.5 13.5q-20 -1 -30 16.5t-7.5 39t16.5 32.5q-19 -2 -33 15t-10 35q-12 -7 -24.5 -3.5t-19.5 15.5q-4 -17 -20 -25.5t-32 -3.5q5 -14 1 -30
t-15 -27t-27 -11q14 -4 20.5 -17t5 -28.5t-10 -26.5t-24.5 -11q21 1 28 -6t0 -14.5t-28 -7.5q24 1 34.5 -11.5t8 -28.5t-18.5 -25q17 -2 32 -20t16 -37q14 15 40.5 10.5t61.5 -19.5zM156 837q-11 4 -12.5 17.5t4 29t14.5 25.5t20 6q0 14 11.5 21.5t26.5 7.5t26.5 -7.5
t11.5 -21.5q5 8 16 6.5t22.5 -8t18 -15.5t1.5 -17q16 0 21 -13t0 -26t-21 -13q14 0 18.5 -12t0 -24t-18.5 -12q7 -11 -1.5 -21t-21 -13t-19.5 8q0 -15 -15.5 -20.5t-37 1.5t-40 31.5t-25.5 69.5zM425 825q-9 1 -11.5 15.5t0 32t9.5 30.5t16 12q0 14 14 21t32 7t32 -7t14 -21
q8 7 20 2t22.5 -16.5t15 -24t-3.5 -19.5q11 0 17 -11t6 -25t-6 -25t-17 -11q4 -11 -5.5 -20.5t-25 -15.5t-29.5 -5.5t-18 11.5q0 -11 -10 -15.5t-24.5 1.5t-27.5 26.5t-20 57.5z" />
    <glyph glyph-name="multiply" unicode="&#xd7;" horiz-adv-x="639" 
d="M151 66q-15 -16 -35.5 -12t-36.5 20t-20 36t11 36q-15 11 -14 30t12.5 38t28.5 32t34 12q-18 11 -19 30.5t11 32.5q-17 5 -23 24.5t13 37.5q-15 -9 -29 -3t-22 19.5t-7.5 28.5t15.5 24q-12 13 -8 29t17 29t29.5 17t28.5 -9q3 17 19.5 23t36.5 3t34 -13.5t11 -26.5
q10 9 24 6t28.5 -14t23.5 -25q11 19 33.5 27.5t39.5 -9.5q-12 15 -6 32t21.5 30t34 15t30.5 -13q11 12 28 9t34.5 -16t30 -30t15.5 -34t-9 -29q20 -4 24.5 -15.5t-4 -20t-28.5 -3.5q13 -14 6 -35.5t-25.5 -41t-39.5 -28.5q17 -11 31 -30.5t18.5 -39.5t-6.5 -32q18 17 31 15
t14 -16t-18 -33q16 -11 15 -29t-12.5 -34.5t-28 -24t-32.5 3.5q3 -12 -7.5 -21.5t-26.5 -14t-30.5 -1.5t-17.5 15q-15 -15 -34 -11t-34 19t-18 33q-15 -14 -38.5 -15.5t-35.5 15.5q2 -13 -8.5 -28t-29 -25.5t-40 -9.5t-40.5 21z" />
    <glyph glyph-name="Oslash" unicode="&#xd8;" horiz-adv-x="742" 
d="M275 29q-9 -19 -27.5 -24.5t-40 0t-39.5 18t-26.5 30.5t0.5 37q-20 -14 -38 -9.5t-29 20t-9.5 34t21.5 32.5q-19 -2 -32.5 11.5t-20.5 35.5t-6.5 45t10 40t28.5 19q-23 1 -36 17.5t-16.5 40t2 46.5t19.5 38t36 15q-14 7 -15.5 24t5.5 37t19.5 37.5t27.5 26t28 1.5
q-19 25 -15 41t21 16t36 -25q-11 28 -4 47t24 25.5t35.5 -2t29.5 -35.5q-3 24 7 38t26 16t29.5 -8.5t17.5 -34.5q2 23 20.5 34.5t43 13.5t48.5 -5.5t39 -23t12 -38.5q15 34 34 39t27.5 -12.5t-6.5 -51.5q22 30 40 32t21 -15.5t-19 -47.5q22 17 40.5 15.5t28 -14t5.5 -30.5
t-27 -35q22 7 36 -0.5t18 -21t-3.5 -27t-29.5 -20.5q19 1 30.5 -13.5t16 -36t1.5 -43.5t-13.5 -37t-29.5 -16q37 0 49 -13.5t-0.5 -26.5t-49.5 -12q24 -4 33 -22.5t5 -39.5t-19 -34.5t-39 -8.5q12 -11 9 -29t-16 -36.5t-30.5 -32.5t-34.5 -18.5t-29 6.5q6 -23 -10.5 -40
t-42.5 -24t-49 -1t-29 29q3 -55 -35 -55t-113 62zM440 178q-23 10 -24.5 30.5t11 37t33.5 15.5q-13 7 -18.5 24t-3.5 36t11.5 32.5t26.5 13.5q-20 -1 -30 16.5t-7.5 39t16.5 32.5q-19 -2 -33 15t-10 35q-12 -7 -24.5 -3.5t-19.5 15.5q-4 -17 -20 -25.5t-32 -3.5q5 -14 1 -30
t-15 -27t-27 -11q14 -4 20.5 -17t5 -28.5t-10 -26.5t-24.5 -11q21 1 28 -6t0 -14.5t-28 -7.5q24 1 34.5 -11.5t8 -28.5t-18.5 -25q17 -2 32 -20t16 -37q14 15 40.5 10.5t61.5 -19.5zM89 4q-11 7 -8.5 21.5t12.5 29t22.5 21.5t23.5 0q-14 9 -9.5 25.5t18.5 26.5t27 0
q-9 7 -3.5 24.5t18.5 36.5t27.5 30t23.5 4q-14 10 -12.5 22.5t12.5 18t25 -3.5q-12 8 -9.5 24t13 31.5t25 23.5t26.5 -1q-11 7 -8.5 22t12.5 29t22.5 21.5t23.5 -0.5q-12 9 -8 27.5t17 37t29 29t28 1.5q-16 12 -14 26t14.5 21t28.5 -4q-11 8 -10 22.5t10.5 28t22.5 20
t25 -1.5q-14 10 -12 23t13.5 19.5t25.5 -3.5q-13 9 -9.5 23.5t16 23t25.5 -0.5q-9 9 -3.5 22.5t17.5 25t26 15.5t22 -5q1 17 12 22.5t21 -1t9 -24.5q16 -4 18 -16.5t-6 -23t-24 -6.5q16 -11 13 -26t-16 -23t-29 3q16 -10 12.5 -26t-17.5 -24.5t-29 1.5q10 -7 7.5 -21.5
t-12.5 -28.5t-22.5 -21.5t-22.5 -0.5q11 -8 8 -24.5t-14 -32.5t-25.5 -24.5t-25.5 -0.5q15 -10 13.5 -22.5t-13 -18.5t-25.5 5q11 -8 10 -21.5t-9.5 -25.5t-21 -17.5t-23.5 1.5q10 -7 6.5 -23t-14.5 -32t-25 -25t-24 -2q14 -9 12.5 -20.5t-11.5 -16.5t-24 4q11 -7 9.5 -20
t-10.5 -25t-20.5 -18t-21.5 1q12 -8 12 -20.5t-7.5 -24t-19.5 -15.5t-24 4q12 -8 11.5 -20.5t-9 -24.5t-20 -17t-23.5 3q11 -7 7.5 -23.5t-14.5 -32.5t-25 -24.5t-25 -1.5q5 -9 -5.5 -19.5t-27 -14.5t-29.5 6t-12 43z" />
    <glyph glyph-name="Ugrave" unicode="&#xd9;" horiz-adv-x="746" 
d="M333 21q-4 -24 -22.5 -32.5t-40 -4.5t-35 19t-8.5 39q-12 -19 -31 -20.5t-35.5 8.5t-23.5 27.5t4 36.5q-25 -20 -40.5 -18t-14 17.5t27.5 35.5q-15 -3 -27 9t-20 33t-10 42.5t3 38.5t19 20q-23 0 -34.5 18t-11.5 41.5t11.5 41.5t34.5 18q-27 0 -40.5 14.5t-13.5 33.5
t13.5 33t40.5 14q-27 0 -41 17.5t-14 40.5t14 40.5t41 17.5q-26 0 -39 10t-13 23.5t13 23.5t39 10q0 26 18.5 39.5t43.5 13.5t44 -13t19 -39q0 26 10.5 39.5t23.5 13.5t23.5 -13.5t10.5 -39.5q29 -1 43 -21.5t13.5 -47.5t-15.5 -47.5t-44 -19.5q24 0 35.5 -14t11.5 -32
t-11.5 -31.5t-35.5 -13.5q39 0 51.5 -11t0 -22t-51.5 -11q22 0 33 -14t12 -32.5t-8.5 -34t-29.5 -18.5q26 2 40 -9t15.5 -27t-9.5 -29q17 0 15 -14q32 14 64 -2q1 20 15.5 32.5t36.5 9.5q-14 12 -19 34t-2 45t14.5 39t30.5 16q-28 0 -41.5 20.5t-13.5 47t13.5 47t41.5 20.5
q-24 0 -36 15t-12 34.5t12 34.5t36 15q-20 14 -19.5 29t14.5 20.5t34 -8.5q0 28 11 42t25 14t25 -14t11 -42q0 26 10.5 39.5t23.5 13.5t23.5 -13.5t10.5 -39.5q23 5 37.5 -8.5t19 -34t-4 -39t-31.5 -22.5q23 0 35 -20t12 -46t-12 -45.5t-35 -19.5q21 0 34 -14.5t17 -36
t0 -42.5t-17 -35.5t-34 -14.5q34 0 45.5 -11t0 -22t-45.5 -11q38 -5 49 -19.5t-3.5 -26t-52.5 -6.5q23 -12 27 -33t-6 -40.5t-29.5 -28.5t-43.5 4q20 -24 19.5 -38.5t-15 -13t-34.5 25.5q12 -25 7.5 -42.5t-18 -24t-30 1t-28.5 32.5q4 -26 -15.5 -41.5t-50 -19t-61 6.5
t-49.5 36zM297 759q-8 -10 -21.5 -8t-25.5 11t-17 21.5t3 22.5q-9 -12 -20 -9.5t-15.5 13t5.5 22.5q-7 -9 -21.5 -4.5t-29 16.5t-22 25.5t-0.5 22.5q-9 9 -6.5 17.5t11 11.5t17.5 -6q0 11 11 17t25 6t25 -6t11 -17q0 14 11 20.5t25 6.5t25 -6.5t11 -20.5q2 13 13 18
t24.5 2.5t22.5 -10.5t7 -21q14 12 27.5 6t17 -20t-10.5 -26q13 12 28 3t20 -25t-8 -27q15 -1 19.5 -16t-1.5 -30t-21 -14q0 -19 -10 -25.5t-20 0t-10 25.5q0 -11 -12 -16.5t-30 -5.5t-34 6.5t-24 19.5z" />
    <glyph glyph-name="Uacute" unicode="&#xda;" horiz-adv-x="746" 
d="M333 21q-4 -24 -22.5 -32.5t-40 -4.5t-35 19t-8.5 39q-12 -19 -31 -20.5t-35.5 8.5t-23.5 27.5t4 36.5q-25 -20 -40.5 -18t-14 17.5t27.5 35.5q-15 -3 -27 9t-20 33t-10 42.5t3 38.5t19 20q-23 0 -34.5 18t-11.5 41.5t11.5 41.5t34.5 18q-27 0 -40.5 14.5t-13.5 33.5
t13.5 33t40.5 14q-27 0 -41 17.5t-14 40.5t14 40.5t41 17.5q-26 0 -39 10t-13 23.5t13 23.5t39 10q0 26 18.5 39.5t43.5 13.5t44 -13t19 -39q0 26 10.5 39.5t23.5 13.5t23.5 -13.5t10.5 -39.5q29 -1 43 -21.5t13.5 -47.5t-15.5 -47.5t-44 -19.5q24 0 35.5 -14t11.5 -32
t-11.5 -31.5t-35.5 -13.5q39 0 51.5 -11t0 -22t-51.5 -11q22 0 33 -14t12 -32.5t-8.5 -34t-29.5 -18.5q26 2 40 -9t15.5 -27t-9.5 -29q17 0 15 -14q32 14 64 -2q1 20 15.5 32.5t36.5 9.5q-14 12 -19 34t-2 45t14.5 39t30.5 16q-28 0 -41.5 20.5t-13.5 47t13.5 47t41.5 20.5
q-24 0 -36 15t-12 34.5t12 34.5t36 15q-20 14 -19.5 29t14.5 20.5t34 -8.5q0 28 11 42t25 14t25 -14t11 -42q0 26 10.5 39.5t23.5 13.5t23.5 -13.5t10.5 -39.5q23 5 37.5 -8.5t19 -34t-4 -39t-31.5 -22.5q23 0 35 -20t12 -46t-12 -45.5t-35 -19.5q21 0 34 -14.5t17 -36
t0 -42.5t-17 -35.5t-34 -14.5q34 0 45.5 -11t0 -22t-45.5 -11q38 -5 49 -19.5t-3.5 -26t-52.5 -6.5q23 -12 27 -33t-6 -40.5t-29.5 -28.5t-43.5 4q20 -24 19.5 -38.5t-15 -13t-34.5 25.5q12 -25 7.5 -42.5t-18 -24t-30 1t-28.5 32.5q4 -26 -15.5 -41.5t-50 -19t-61 6.5
t-49.5 36zM303 813q-10 7 -6 21.5t15.5 28.5t25 21t23.5 -1q-9 12 1 24.5t25 16.5t23 -9q0 11 17.5 17t40.5 6t40.5 -6t17.5 -17q0 17 14 22.5t28 0t14 -22.5q7 16 17.5 17t17 -7.5t-0.5 -24.5q12 -12 8 -23.5t-15.5 -15t-23.5 7.5q10 -11 4.5 -22t-17 -14t-20.5 9
q8 -11 2.5 -24t-18 -23.5t-26.5 -13.5t-23 8q10 -12 5 -22.5t-16 -13t-21 9.5q2 -12 -9.5 -19t-27.5 -8.5t-28.5 3t-14.5 16.5q0 -14 -14 -20t-30.5 -0.5t-26.5 24t-1 54.5z" />
    <glyph glyph-name="Ucircumflex" unicode="&#xdb;" horiz-adv-x="746" 
d="M333 21q-4 -24 -22.5 -32.5t-40 -4.5t-35 19t-8.5 39q-12 -19 -31 -20.5t-35.5 8.5t-23.5 27.5t4 36.5q-25 -20 -40.5 -18t-14 17.5t27.5 35.5q-15 -3 -27 9t-20 33t-10 42.5t3 38.5t19 20q-23 0 -34.5 18t-11.5 41.5t11.5 41.5t34.5 18q-27 0 -40.5 14.5t-13.5 33.5
t13.5 33t40.5 14q-27 0 -41 17.5t-14 40.5t14 40.5t41 17.5q-26 0 -39 10t-13 23.5t13 23.5t39 10q0 26 18.5 39.5t43.5 13.5t44 -13t19 -39q0 26 10.5 39.5t23.5 13.5t23.5 -13.5t10.5 -39.5q29 -1 43 -21.5t13.5 -47.5t-15.5 -47.5t-44 -19.5q24 0 35.5 -14t11.5 -32
t-11.5 -31.5t-35.5 -13.5q39 0 51.5 -11t0 -22t-51.5 -11q22 0 33 -14t12 -32.5t-8.5 -34t-29.5 -18.5q26 2 40 -9t15.5 -27t-9.5 -29q17 0 15 -14q32 14 64 -2q1 20 15.5 32.5t36.5 9.5q-14 12 -19 34t-2 45t14.5 39t30.5 16q-28 0 -41.5 20.5t-13.5 47t13.5 47t41.5 20.5
q-24 0 -36 15t-12 34.5t12 34.5t36 15q-20 14 -19.5 29t14.5 20.5t34 -8.5q0 28 11 42t25 14t25 -14t11 -42q0 26 10.5 39.5t23.5 13.5t23.5 -13.5t10.5 -39.5q23 5 37.5 -8.5t19 -34t-4 -39t-31.5 -22.5q23 0 35 -20t12 -46t-12 -45.5t-35 -19.5q21 0 34 -14.5t17 -36
t0 -42.5t-17 -35.5t-34 -14.5q34 0 45.5 -11t0 -22t-45.5 -11q38 -5 49 -19.5t-3.5 -26t-52.5 -6.5q23 -12 27 -33t-6 -40.5t-29.5 -28.5t-43.5 4q20 -24 19.5 -38.5t-15 -13t-34.5 25.5q12 -25 7.5 -42.5t-18 -24t-30 1t-28.5 32.5q4 -26 -15.5 -41.5t-50 -19t-61 6.5
t-49.5 36zM160 762q-11 8 -9.5 22t11.5 26.5t22.5 18t23.5 -3.5q-9 9 -6.5 21t12 22.5t21.5 14t21 -4.5q-5 9 2.5 19.5t21 18t26.5 8t18 -8.5q0 13 16 19.5t37 6.5t37 -6.5t16 -19.5q6 10 18 9t24 -8t18 -18t0 -20q9 8 20.5 4t21 -14.5t12.5 -22.5t-6 -20q11 2 18.5 -7.5
t10.5 -23t-0.5 -25.5t-14.5 -14q0 -16 -10.5 -21.5t-21.5 0t-11 21.5q-4 -11 -18 -13t-31 2.5t-30 14t-14 20.5q-4 -10 -20 -16t-35 -7t-34 4t-15 16q2 -12 -12.5 -20.5t-34.5 -12.5t-36.5 -1.5t-19.5 13.5q0 -18 -10 -23.5t-22 1.5t-17 29z" />
    <glyph glyph-name="Udieresis" unicode="&#xdc;" horiz-adv-x="746" 
d="M333 21q-4 -24 -22.5 -32.5t-40 -4.5t-35 19t-8.5 39q-12 -19 -31 -20.5t-35.5 8.5t-23.5 27.5t4 36.5q-25 -20 -40.5 -18t-14 17.5t27.5 35.5q-15 -3 -27 9t-20 33t-10 42.5t3 38.5t19 20q-23 0 -34.5 18t-11.5 41.5t11.5 41.5t34.5 18q-27 0 -40.5 14.5t-13.5 33.5
t13.5 33t40.5 14q-27 0 -41 17.5t-14 40.5t14 40.5t41 17.5q-26 0 -39 10t-13 23.5t13 23.5t39 10q0 26 18.5 39.5t43.5 13.5t44 -13t19 -39q0 26 10.5 39.5t23.5 13.5t23.5 -13.5t10.5 -39.5q29 -1 43 -21.5t13.5 -47.5t-15.5 -47.5t-44 -19.5q24 0 35.5 -14t11.5 -32
t-11.5 -31.5t-35.5 -13.5q39 0 51.5 -11t0 -22t-51.5 -11q22 0 33 -14t12 -32.5t-8.5 -34t-29.5 -18.5q26 2 40 -9t15.5 -27t-9.5 -29q17 0 15 -14q32 14 64 -2q1 20 15.5 32.5t36.5 9.5q-14 12 -19 34t-2 45t14.5 39t30.5 16q-28 0 -41.5 20.5t-13.5 47t13.5 47t41.5 20.5
q-24 0 -36 15t-12 34.5t12 34.5t36 15q-20 14 -19.5 29t14.5 20.5t34 -8.5q0 28 11 42t25 14t25 -14t11 -42q0 26 10.5 39.5t23.5 13.5t23.5 -13.5t10.5 -39.5q23 5 37.5 -8.5t19 -34t-4 -39t-31.5 -22.5q23 0 35 -20t12 -46t-12 -45.5t-35 -19.5q21 0 34 -14.5t17 -36
t0 -42.5t-17 -35.5t-34 -14.5q34 0 45.5 -11t0 -22t-45.5 -11q38 -5 49 -19.5t-3.5 -26t-52.5 -6.5q23 -12 27 -33t-6 -40.5t-29.5 -28.5t-43.5 4q20 -24 19.5 -38.5t-15 -13t-34.5 25.5q12 -25 7.5 -42.5t-18 -24t-30 1t-28.5 32.5q4 -26 -15.5 -41.5t-50 -19t-61 6.5
t-49.5 36zM158 837q-11 4 -12.5 17.5t4 29t14.5 25.5t20 6q0 14 11.5 21.5t26.5 7.5t26.5 -7.5t11.5 -21.5q5 8 16 6.5t22.5 -8t18 -15.5t1.5 -17q16 0 21 -13t0 -26t-21 -13q14 0 18.5 -12t0 -24t-18.5 -12q7 -11 -1.5 -21t-21 -13t-19.5 8q0 -15 -15.5 -20.5t-37 1.5
t-40 31.5t-25.5 69.5zM427 825q-9 1 -11.5 15.5t0 32t9.5 30.5t16 12q0 14 14 21t32 7t32 -7t14 -21q8 7 20 2t22.5 -16.5t15 -24t-3.5 -19.5q11 0 17 -11t6 -25t-6 -25t-17 -11q4 -11 -5.5 -20.5t-25 -15.5t-29.5 -5.5t-18 11.5q0 -11 -10 -15.5t-24.5 1.5t-27.5 26.5
t-20 57.5z" />
    <glyph glyph-name="Yacute" unicode="&#xdd;" horiz-adv-x="710" 
d="M260 83q-28 0 -42.5 10.5t-14.5 23.5t14.5 23.5t42.5 10.5q-29 0 -41.5 9t-9.5 19.5t22 15.5q-21 2 -31 13.5t-5.5 27t25.5 26.5q-24 -7 -35 2t-4.5 25t34.5 31q-23 -12 -39 -8.5t-22 15.5t1 26.5t30 26.5q-33 -16 -50.5 -7.5t-14 28.5t35.5 36q-21 -11 -37.5 -5t-24 21
t-2.5 31.5t26 27.5q-24 -13 -42.5 -6.5t-27 22.5t-2.5 34.5t31 30.5q-27 -13 -47 -6.5t-28.5 24t-2 38t32.5 33.5q26 45 37 40q12 12 26 -1t14 -51q0 26 16.5 39t38 13t38 -13t16.5 -39q31 20 49 15t15 -23.5t-35 -38.5q25 12 42 9.5t23 -14.5t-2 -27.5t-33 -27.5
q17 8 32.5 -1.5t24.5 -28t7.5 -36.5t-18.5 -26q19 9 34 5q-3 15 3 34t18 34.5t26.5 22.5t29.5 -1q-35 18 -40.5 36.5t12.5 25t53 -11.5q-11 19 -1.5 37t29 28.5t39.5 9t31 -20.5q0 39 11 52t22 2t11 -46q1 29 18.5 39t35 0t19.5 -41q26 -13 29.5 -37.5t-8.5 -48.5t-34 -36
t-48 1q20 -10 25 -29t-1 -41t-20 -39.5t-32.5 -25t-37.5 2.5q27 -14 31 -29t-10.5 -21t-42.5 7q25 -12 31.5 -28.5t-0.5 -31t-24.5 -19t-42.5 7.5q30 -13 36 -35t-6.5 -40t-37.5 -18q17 -9 24 -25.5t3 -34t-18.5 -29.5t-39.5 -12q20 -10 24 -27.5t-4 -34.5t-24.5 -25
t-36.5 2q0 -19 -15.5 -30.5t-38 -13t-44.5 8t-37 31.5t-14 57zM285 813q-10 7 -6 21.5t15.5 28.5t25 21t23.5 -1q-9 12 1 24.5t25 16.5t23 -9q0 11 17.5 17t40.5 6t40.5 -6t17.5 -17q0 17 14 22.5t28 0t14 -22.5q7 16 17.5 17t17 -7.5t-0.5 -24.5q12 -12 8 -23.5t-15.5 -15
t-23.5 7.5q10 -11 4.5 -22t-17 -14t-20.5 9q8 -11 2.5 -24t-18 -23.5t-26.5 -13.5t-23 8q10 -12 5 -22.5t-16 -13t-21 9.5q2 -12 -9.5 -19t-27.5 -8.5t-28.5 3t-14.5 16.5q0 -14 -14 -20t-30.5 -0.5t-26.5 24t-1 54.5z" />
    <glyph glyph-name="Thorn" unicode="&#xde;" horiz-adv-x="705" 
d="M85 39q-23 0 -34.5 17.5t-11.5 40.5t11.5 40.5t34.5 17.5q-34 0 -45.5 11t0 21.5t45.5 10.5q-25 0 -37 11.5t-12 26.5t12 26.5t37 11.5q-27 0 -40 17.5t-13 40.5t13 40.5t40 17.5q-22 0 -33.5 10t-11.5 23.5t11.5 24t33.5 10.5q-26 0 -39 16.5t-13 39t13 39t39 16.5
q-29 0 -43.5 10.5t-14.5 24t14.5 23.5t43.5 10q-34 13 -42 26t6.5 16.5t48.5 -9.5q0 20 14 32t34.5 16t41 0t35 -16t14.5 -32q20 11 37 4.5t27 -23t8 -34.5q16 8 35.5 5t33 -16t10.5 -35q3 29 16 42t29 12t27 -16.5t8 -44.5q8 17 26.5 21t40.5 -2.5t40.5 -19.5t27.5 -29.5
t1 -33.5q21 13 37.5 10.5t24 -14.5t3 -28t-26.5 -29q15 0 25 -14t14 -35.5t1.5 -43.5t-10.5 -37t-24 -16q24 -13 30.5 -29.5t-1 -30.5t-25 -18.5t-41.5 8.5q14 -23 6 -43t-27 -31.5t-40 -8.5t-35 26q8 -36 -3 -51t-27.5 -6t-24.5 45q2 -26 -12.5 -38t-33 -9.5t-28.5 19.5
q3 -25 -12 -40.5t-37 -17t-39 17.5q5 -15 -1.5 -30.5t-20 -26t-29.5 -11.5t-30 12q0 -21 -13.5 -33t-33.5 -16t-40 1t-33 19.5t-12 37.5zM280 326q21 0 30 -13.5t10 -24.5q8 13 27 14t30 -9q-1 18 17.5 38t38.5 22q-8 8 -11 21.5t0 24.5q-16 -6 -33.5 4.5t-15.5 27.5
q-6 -11 -20 -13.5t-25 4.5q-1 -16 -11 -29.5t-24 -14.5q12 -5 14.5 -18t-4.5 -23.5t-23 -10.5z" />
    <glyph glyph-name="germandbls" unicode="&#xdf;" horiz-adv-x="682" 
d="M70 35q-17 0 -25.5 15t-8.5 34.5t8.5 34.5t25.5 15q-19 0 -28 12t-9 28t9 28t28 12q-19 0 -29 12t-10 27.5t10 27.5t29 12q-27 0 -36.5 13t0 26t36.5 13q-13 0 -20.5 16.5t-9 40t1.5 47t11 39.5t21 15q-9 6 -7.5 21.5t10 35t20.5 36.5t24.5 26.5t21.5 4.5q-8 20 6.5 38
t39 28.5t48 8t31.5 -22.5q0 17 19.5 26t45.5 9.5t46.5 -7.5t20.5 -26q4 16 18 21t30 1t26.5 -15t7.5 -26q8 10 27.5 1.5t39.5 -25.5t31.5 -34.5t3.5 -27.5q15 2 24.5 -13.5t12.5 -36.5t-3 -38.5t-21 -18.5q16 -11 18 -27t-6 -31t-22 -23q7 -7 1.5 -19t-26.5 -20
q10 5 23 -4.5t25 -28t20.5 -38.5t9 -36.5t-9.5 -21.5q9 -4 8 -21t-9 -38.5t-19.5 -41t-24 -31t-21.5 -6.5q7 -16 -4.5 -31t-31.5 -24.5t-39 -8.5t-26 17q4 -24 -5.5 -34t-22 -4t-16.5 30q-5 -11 -21 -10t-33.5 9.5t-27.5 20.5t-5 23q-18 0 -24 12t0 23.5t24 11.5
q-10 17 -2.5 32t24 22t30.5 0q-7 14 -1.5 34t18.5 32q-20 4 -40 20t-30 35t1 33q-12 5 -11 22t10 36t21.5 30.5t23.5 6.5q-13 20 -6.5 32t20.5 7q-8 16 6 27q-13 6 -21 19.5t-7 26.5q-12 -7 -27.5 -6t-25.5 9q-1 -19 -10 -42t-22 -39.5t-26 -15.5q12 -4 17.5 -22.5t4.5 -41
t-7.5 -39t-19.5 -16.5q13 0 19.5 -9.5t6.5 -22.5t-6.5 -22.5t-19.5 -9.5q18 0 23.5 -14t0 -28t-23.5 -14q16 0 21.5 -14t0 -28t-21.5 -14q13 0 19 -12t6 -28t-6 -28t-19 -12q17 -3 21 -13t-3 -19t-24 -6q0 -26 -13 -34.5t-25.5 0t-12.5 34.5q0 -21 -11.5 -31t-26.5 -10
t-26.5 10t-11.5 31q0 -20 -11.5 -26.5t-24 2.5t-13.5 34z" />
    <glyph glyph-name="agrave" unicode="&#xe0;" horiz-adv-x="622" 
d="M68 74q-11 0 -18.5 13.5t-10.5 34.5t-1.5 42t7.5 35.5t18 14.5q-5 9 5 22t28.5 25.5t39 21.5t36.5 11t21 -7q-2 13 9.5 23t29.5 15t35.5 4t27.5 -10q-4 16 10 35q-25 1 -46 8.5t-20 20.5q0 -15 -12 -22t-27.5 -7t-27.5 7t-12 22q-9 -15 -23 -17t-27.5 5.5t-19.5 21
t3 28.5q-17 19 -12.5 34.5t20.5 18.5t33 -16q-12 23 -6 36t19.5 10.5t25.5 -26.5q-4 16 4.5 27.5t23 15.5t28 -1t17.5 -21q-1 20 13 30.5t33 11.5t34 -8t16 -29q2 27 14 35t22 -2t8 -37q5 18 19 23.5t29.5 1t24.5 -17t4 -29.5q11 14 26 13.5t27.5 -10t16 -24.5t-7.5 -29
q24 11 39 0t13 -29t-26 -29q20 1 30.5 -17.5t12 -42.5t-7.5 -43.5t-29 -20.5q16 0 24 -12.5t8 -29t-8 -29t-24 -12.5q18 0 29 -13.5t15.5 -34t1.5 -41.5t-13 -35.5t-27 -15.5q-1 -16 -15.5 -26t-35.5 -13t-42.5 0.5t-35.5 14t-14 26.5q0 -25 -11 -34t-22 -0.5t-11 34.5
q-13 -16 -27 -17t-23.5 8t-8.5 22q-16 -13 -51.5 -18t-86.5 6.5t-111 47.5zM324 123q-9 5 -7 18t9.5 28t17.5 25q-9 2 -16.5 9t-9.5 16q-7 -10 -21 -16.5t-28.5 -7.5t-23.5 5q3 -9 -4 -16q14 -5 30.5 -18t30.5 -26t22 -17zM196 634q-9 -11 -23 -8.5t-27 13t-18 24t4 24.5
q-13 -15 -25.5 -13.5t-16.5 13.5t8 27q-14 -7 -24 2.5t-11 23t13 19.5q0 18 12 24.5t24 0.5t13 -24q0 13 16.5 19.5t38.5 6.5t38.5 -6.5t16.5 -19.5q4 17 20.5 19t31 -7t10.5 -26q11 9 26 2t27.5 -22.5t16.5 -31.5t-7 -25q9 2 15.5 -7.5t9.5 -23.5t0.5 -25t-12.5 -13
q0 -19 -12.5 -25.5t-25 0t-12.5 25.5q0 -17 -19.5 -21.5t-48.5 8.5t-59 47z" />
    <glyph glyph-name="aacute" unicode="&#xe1;" horiz-adv-x="622" 
d="M68 74q-11 0 -18.5 13.5t-10.5 34.5t-1.5 42t7.5 35.5t18 14.5q-5 9 5 22t28.5 25.5t39 21.5t36.5 11t21 -7q-2 13 9.5 23t29.5 15t35.5 4t27.5 -10q-4 16 10 35q-25 1 -46 8.5t-20 20.5q0 -15 -12 -22t-27.5 -7t-27.5 7t-12 22q-9 -15 -23 -17t-27.5 5.5t-19.5 21
t3 28.5q-17 19 -12.5 34.5t20.5 18.5t33 -16q-12 23 -6 36t19.5 10.5t25.5 -26.5q-4 16 4.5 27.5t23 15.5t28 -1t17.5 -21q-1 20 13 30.5t33 11.5t34 -8t16 -29q2 27 14 35t22 -2t8 -37q5 18 19 23.5t29.5 1t24.5 -17t4 -29.5q11 14 26 13.5t27.5 -10t16 -24.5t-7.5 -29
q24 11 39 0t13 -29t-26 -29q20 1 30.5 -17.5t12 -42.5t-7.5 -43.5t-29 -20.5q16 0 24 -12.5t8 -29t-8 -29t-24 -12.5q18 0 29 -13.5t15.5 -34t1.5 -41.5t-13 -35.5t-27 -15.5q-1 -16 -15.5 -26t-35.5 -13t-42.5 0.5t-35.5 14t-14 26.5q0 -25 -11 -34t-22 -0.5t-11 34.5
q-13 -16 -27 -17t-23.5 8t-8.5 22q-16 -13 -51.5 -18t-86.5 6.5t-111 47.5zM324 123q-9 5 -7 18t9.5 28t17.5 25q-9 2 -16.5 9t-9.5 16q-7 -10 -21 -16.5t-28.5 -7.5t-23.5 5q3 -9 -4 -16q14 -5 30.5 -18t30.5 -26t22 -17zM223 627q-11 9 -10 21t9.5 22.5t20.5 14t23 -5.5
q-10 8 -6 22.5t15.5 28.5t25.5 21t23 -1q-1 13 11.5 21.5t30.5 10.5t32.5 -3t15.5 -19q0 12 13.5 17.5t30.5 5.5t30 -5.5t13 -17.5q10 10 21.5 4.5t17 -17t-3.5 -20.5q11 -14 4 -27t-21.5 -17.5t-25.5 9.5q10 -12 4 -23.5t-18.5 -15.5t-22.5 8q11 -13 6 -24t-17 -13.5
t-23 10.5q4 -9 -5.5 -18t-24.5 -15.5t-28.5 -7.5t-17.5 7q0 -16 -12.5 -21.5t-25.5 0t-13 21.5q0 -13 -10.5 -19t-24.5 -3.5t-25 14.5t-12 35z" />
    <glyph glyph-name="acircumflex" unicode="&#xe2;" horiz-adv-x="622" 
d="M68 74q-11 0 -18.5 13.5t-10.5 34.5t-1.5 42t7.5 35.5t18 14.5q-5 9 5 22t28.5 25.5t39 21.5t36.5 11t21 -7q-2 13 9.5 23t29.5 15t35.5 4t27.5 -10q-4 16 10 35q-25 1 -46 8.5t-20 20.5q0 -15 -12 -22t-27.5 -7t-27.5 7t-12 22q-9 -15 -23 -17t-27.5 5.5t-19.5 21
t3 28.5q-17 19 -12.5 34.5t20.5 18.5t33 -16q-12 23 -6 36t19.5 10.5t25.5 -26.5q-4 16 4.5 27.5t23 15.5t28 -1t17.5 -21q-1 20 13 30.5t33 11.5t34 -8t16 -29q2 27 14 35t22 -2t8 -37q5 18 19 23.5t29.5 1t24.5 -17t4 -29.5q11 14 26 13.5t27.5 -10t16 -24.5t-7.5 -29
q24 11 39 0t13 -29t-26 -29q20 1 30.5 -17.5t12 -42.5t-7.5 -43.5t-29 -20.5q16 0 24 -12.5t8 -29t-8 -29t-24 -12.5q18 0 29 -13.5t15.5 -34t1.5 -41.5t-13 -35.5t-27 -15.5q-1 -16 -15.5 -26t-35.5 -13t-42.5 0.5t-35.5 14t-14 26.5q0 -25 -11 -34t-22 -0.5t-11 34.5
q-13 -16 -27 -17t-23.5 8t-8.5 22q-16 -13 -51.5 -18t-86.5 6.5t-111 47.5zM324 123q-9 5 -7 18t9.5 28t17.5 25q-9 2 -16.5 9t-9.5 16q-7 -10 -21 -16.5t-28.5 -7.5t-23.5 5q3 -9 -4 -16q14 -5 30.5 -18t30.5 -26t22 -17zM116 633q-10 8 -7 21t13 23.5t22.5 14.5t21.5 -4
q-10 9 -6 23t15 26t24.5 16.5t23.5 -4.5q-1 12 12.5 19.5t32.5 10t34 -2t16 -16.5q2 11 15.5 14.5t29.5 0.5t27.5 -10.5t9.5 -18.5q9 8 24.5 0t29.5 -23.5t20.5 -31.5t-2.5 -24q13 11 25 6t16 -17.5t-9 -23.5q15 -2 18.5 -10.5t-2 -16t-20.5 -5.5q-1 -13 -18 -17.5t-38 -2
t-36.5 10.5t-14.5 21q-6 -14 -24 -13.5t-35.5 10t-23.5 23.5q-5 -12 -20 -20.5t-30.5 -8.5t-21.5 13q5 -17 -6 -26.5t-25.5 -8t-19.5 18.5q0 -13 -11.5 -18.5t-26 -3t-25 16t-8.5 38.5z" />
    </font>
</defs>
</svg>
